<svg width="369" height="358" viewBox="0 0 369 358" fill="none" xmlns="http://www.w3.org/2000/svg">
<path d="M54.0005 203C110.8 171 151.167 172.833 174 203C169.5 208.333 190.7 226.6 311.5 257C462.5 295 276.001 354.5 174 357.5C71.9996 360.5 -35.4999 323.5 11.5001 277.5C58.5001 231.5 -16.9995 243 54.0005 203Z" fill="#E8F7FC"/>
<path d="M268.989 83.6971C268.978 83.1464 269.159 82.6097 269.5 82.1824L250.504 65.1795C247.539 62.5238 243.247 61 238.737 61H138.817C134.306 61 130.015 62.5238 127.049 65.1795L108.069 82.1687C108.312 82.3685 108.524 82.6033 108.699 82.8657C108.796 83.0387 108.823 83.2435 108.773 83.4363C108.724 83.6291 108.603 83.7947 108.436 83.8975C108.291 83.9817 108.122 84.0133 107.958 83.9872C107.793 83.9611 107.642 83.879 107.529 83.754C107.529 83.836 107.513 83.918 107.5 84H269.038C269.002 83.9033 268.985 83.8003 268.989 83.6971Z" fill="#65A0FF"/>
<path d="M232.261 275L241.014 284.264H134.986L143.739 275H115.5V285.58V293.423V298.505H120.486V299L126.24 298.505L130.593 291.461H245.407L249.76 298.505H260.5V293.423V285.58V275H232.261Z" fill="#162C44"/>
<path d="M257.101 78H120.899C110.737 78 102.5 86.2354 102.5 96.3943V266.606C102.5 276.765 110.737 285 120.899 285H257.101C267.263 285 275.5 276.765 275.5 266.606V96.3943C275.5 86.2354 267.263 78 257.101 78Z" fill="#83AFF6"/>
<path d="M265.672 93.5582C264.799 91.3283 263.278 89.4148 261.308 88.0667C259.337 86.7186 257.009 85.9984 254.626 86H121.371C118.224 86.003 115.206 87.262 112.98 89.5007C110.755 91.7394 109.503 94.7749 109.5 97.9409V266.059C109.504 269.225 110.755 272.26 112.981 274.499C115.207 276.737 118.224 277.996 121.371 278H254.626C257.774 277.996 260.792 276.737 263.018 274.499C265.244 272.26 266.496 269.225 266.5 266.059V97.9409C266.501 96.4406 266.22 94.9537 265.672 93.5582Z" fill="#CEE4ED"/>
<path d="M257.5 86H119.5V278H257.5V86Z" fill="#B1CDD6"/>
<path d="M319.617 301H57.3854C57.138 301 56.8928 300.949 56.6641 300.849C56.4353 300.748 56.2275 300.601 56.0524 300.415C55.8773 300.23 55.7383 300.009 55.6436 299.767C55.5488 299.524 55.5 299.264 55.5 299.001C55.4997 298.738 55.5483 298.478 55.6429 298.235C55.7376 297.992 55.8764 297.771 56.0516 297.585C56.2267 297.4 56.4347 297.252 56.6636 297.152C56.8925 297.051 57.1378 297 57.3854 297H319.617C319.864 297 320.109 297.052 320.338 297.152C320.567 297.253 320.774 297.4 320.949 297.586C321.124 297.772 321.263 297.993 321.357 298.236C321.452 298.478 321.5 298.738 321.5 299.001C321.5 299.531 321.302 300.04 320.948 300.415C320.595 300.789 320.116 301 319.617 301Z" fill="#65A0FF"/>
<path d="M229.615 307H81.3847C80.3438 307 79.5 307.895 79.5 309C79.5 310.105 80.3438 311 81.3847 311H229.615C230.656 311 231.5 310.105 231.5 309C231.5 307.895 230.656 307 229.615 307Z" fill="#65A0FF"/>
<path d="M295.616 307H239.383C238.343 307 237.5 307.895 237.5 309C237.5 310.105 238.343 311 239.383 311H295.616C296.657 311 297.5 310.105 297.5 309C297.5 307.895 296.657 307 295.616 307Z" fill="#65A0FF"/>
<path d="M254.626 263.42H121.371C118.224 263.416 115.207 262.106 112.981 259.778C110.755 257.45 109.504 254.293 109.5 251V265.58C109.504 268.873 110.755 272.03 112.981 274.358C115.207 276.687 118.224 277.996 121.371 278H254.626C257.774 277.996 260.792 276.687 263.018 274.358C265.244 272.03 266.496 268.873 266.5 265.58V251C266.496 254.293 265.244 257.45 263.018 259.778C260.792 262.106 257.774 263.416 254.626 263.42Z" fill="#65A0FF"/>
<path d="M223.359 66.9569H155.141C153.682 66.9569 152.5 68.1397 152.5 69.5987V69.8413C152.5 71.3003 153.682 72.483 155.141 72.483H223.359C224.817 72.483 226 71.3003 226 69.8413V69.5987C226 68.1397 224.817 66.9569 223.359 66.9569Z" fill="#162C44"/>
<path d="M222.925 187.303L190.575 205.382L227.079 270.749L259.429 252.67L222.925 187.303Z" fill="#B3ED8E"/>
<path d="M231 239.76C236.488 236.693 238.253 229.4 234.942 223.471C231.631 217.541 224.497 215.221 219.009 218.288C213.521 221.355 211.756 228.649 215.067 234.578C218.378 240.507 225.512 242.828 231 239.76Z" fill="#E0F85C"/>
<path d="M195.59 206.641L221.321 192.266L254.388 251.487L228.657 265.865L195.59 206.641ZM220.856 193.905L197.231 207.105L229.128 264.213L252.753 251.013L220.856 193.905Z" fill="#C5FFA1"/>
<path d="M226.673 233.246C226.969 232.697 227.11 232.078 227.082 231.455C227.044 230.817 226.941 230.184 226.773 229.566L229.097 228.255C229.095 228.309 229.089 228.364 229.081 228.418C229.013 228.856 228.731 229.278 228.234 229.679L229.543 231.779C229.989 231.529 230.376 231.186 230.678 230.773C230.98 230.361 231.19 229.887 231.292 229.386C231.422 228.633 231.341 227.858 231.059 227.147L232.739 226.2L231.581 224.153L229.944 225.072C229.65 224.661 229.3 224.294 228.903 223.981C228.376 223.56 227.734 223.308 227.061 223.259C226.439 223.216 225.817 223.358 225.275 223.668C224.865 223.895 224.51 224.208 224.235 224.588C223.96 224.967 223.772 225.402 223.684 225.862C223.547 226.49 223.616 227.368 223.888 228.49L220.914 230.17C220.867 229.912 220.867 229.648 220.914 229.39C221.027 228.82 221.399 228.274 222.031 227.753L220.646 225.772C219.531 226.591 218.866 227.535 218.651 228.605C218.49 229.411 218.603 230.298 218.991 231.265L217.354 232.188L218.514 234.235L220.165 233.301C220.453 233.69 220.791 234.039 221.169 234.341C221.74 234.801 222.44 235.071 223.172 235.113C223.861 235.144 224.546 234.989 225.156 234.665C225.765 234.341 226.276 233.86 226.636 233.271L226.673 233.246ZM226.143 226.314C226.163 226.172 226.216 226.037 226.297 225.918C226.378 225.799 226.485 225.7 226.609 225.629C226.738 225.553 226.883 225.51 227.033 225.505C227.182 225.499 227.331 225.531 227.464 225.598C227.718 225.719 227.946 225.888 228.135 226.096L226.186 227.197C226.122 226.909 226.106 226.613 226.137 226.321L226.143 226.314ZM222.665 232.534C222.465 232.455 222.279 232.343 222.117 232.202L224.533 230.837C224.532 230.845 224.532 230.852 224.533 230.86C224.612 231.202 224.604 231.558 224.508 231.895C224.411 232.147 224.227 232.355 223.989 232.481C223.786 232.593 223.561 232.656 223.33 232.667C223.099 232.677 222.868 232.634 222.657 232.54L222.665 232.534Z" fill="#5D7B2A"/>
<path d="M214.603 196.772L221.117 193.133L224.755 199.649C223.899 200.128 222.958 200.432 221.985 200.546C221.012 200.661 220.026 200.582 219.083 200.315C218.14 200.047 217.26 199.597 216.491 198.989C215.722 198.381 215.081 197.628 214.603 196.772Z" fill="#E0F85C"/>
<path d="M200.165 213.331L196.525 206.815L203.039 203.176C204.005 204.903 204.245 206.942 203.708 208.847C203.171 210.751 201.9 212.364 200.175 213.331H200.165Z" fill="#E0F85C"/>
<path d="M246.99 254.909C246.512 254.053 246.208 253.112 246.094 252.138C245.979 251.164 246.058 250.178 246.325 249.235C246.592 248.291 247.043 247.41 247.65 246.641C248.258 245.872 249.011 245.23 249.867 244.752L253.504 251.268L246.99 254.909Z" fill="#C5FFA1"/>
<path d="M228.924 264.952L225.284 258.435C226.14 257.957 227.081 257.652 228.054 257.538C229.027 257.424 230.013 257.502 230.956 257.769C231.899 258.036 232.78 258.487 233.549 259.094C234.318 259.702 234.96 260.455 235.438 261.311L228.924 264.952Z" fill="#C5FFA1"/>
<path d="M217.098 209.269C216.997 208.702 216.73 208.179 216.331 207.764C215.932 207.35 215.42 207.063 214.858 206.94C214.296 206.817 213.711 206.863 213.175 207.073C212.64 207.283 212.179 207.647 211.85 208.119C211.522 208.591 211.341 209.15 211.33 209.725C211.319 210.3 211.478 210.866 211.789 211.35C212.099 211.834 212.546 212.216 213.073 212.446C213.6 212.676 214.183 212.745 214.749 212.643C215.508 212.507 216.182 212.075 216.622 211.442C217.063 210.81 217.234 210.028 217.098 209.269Z" fill="#B3E25C"/>
<path d="M237.422 250.694C238.735 249.769 239.049 247.954 238.125 246.641C237.2 245.328 235.386 245.014 234.074 245.938C232.761 246.863 232.446 248.678 233.371 249.991C234.296 251.304 236.109 251.619 237.422 250.694Z" fill="#C5FFA1"/>
<path d="M149.501 156.777L117.151 174.857L153.655 240.224L186.005 222.145L149.501 156.777Z" fill="#B3ED8E"/>
<path d="M157.574 209.234C163.062 206.167 164.827 198.874 161.516 192.945C158.204 187.015 151.071 184.695 145.583 187.762C140.094 190.829 138.33 198.122 141.641 204.052C144.952 209.981 152.086 212.302 157.574 209.234Z" fill="#C5FFA1"/>
<path d="M122.166 176.099L147.896 161.722L180.963 220.946L155.233 235.323L122.166 176.099ZM147.432 163.364L123.807 176.556L155.697 233.674L179.322 220.473L147.432 163.364Z" fill="#C5FFA1"/>
<path d="M153.241 202.721C153.54 202.174 153.685 201.555 153.66 200.931C153.622 200.292 153.518 199.659 153.351 199.042L155.675 197.73C155.673 197.785 155.667 197.839 155.659 197.894C155.589 198.332 155.307 198.751 154.812 199.152L156.121 201.254C156.567 201.003 156.953 200.66 157.255 200.247C157.557 199.835 157.766 199.362 157.87 198.862C157.999 198.108 157.918 197.334 157.637 196.623L159.315 195.675L158.157 193.628L156.52 194.545C156.226 194.135 155.876 193.768 155.479 193.457C154.956 193.036 154.317 192.784 153.648 192.734C153.025 192.691 152.403 192.833 151.862 193.143C151.452 193.369 151.096 193.683 150.821 194.063C150.546 194.442 150.358 194.877 150.27 195.337C150.134 195.966 150.202 196.842 150.475 197.965L147.498 199.643C147.452 199.386 147.452 199.123 147.498 198.866C147.61 198.293 147.982 197.747 148.615 197.228L147.228 195.247C146.115 196.066 145.451 197.011 145.235 198.082C145.074 198.888 145.188 199.775 145.575 200.742L143.938 201.667L145.096 203.714L146.749 202.783C147.038 203.171 147.376 203.52 147.754 203.822C148.325 204.282 149.025 204.551 149.757 204.592C150.446 204.622 151.13 204.467 151.739 204.143C152.347 203.819 152.858 203.338 153.218 202.75L153.241 202.721ZM152.713 195.794C152.733 195.651 152.786 195.516 152.866 195.397C152.947 195.278 153.054 195.179 153.179 195.108C153.308 195.032 153.453 194.988 153.603 194.983C153.752 194.977 153.901 195.009 154.035 195.075C154.288 195.197 154.516 195.367 154.706 195.575L152.756 196.676C152.694 196.386 152.679 196.088 152.713 195.794ZM149.235 202.013C149.034 201.935 148.848 201.822 148.685 201.68L151.101 200.317V200.339C151.181 200.681 151.172 201.038 151.074 201.375C150.978 201.626 150.794 201.834 150.557 201.96C150.354 202.069 150.13 202.129 149.9 202.138C149.671 202.146 149.443 202.102 149.233 202.009L149.235 202.013Z" fill="#5D7B2A"/>
<path d="M141.174 166.241L147.688 162.602L151.328 169.119C150.472 169.597 149.531 169.902 148.558 170.016C147.584 170.13 146.598 170.051 145.655 169.784C144.712 169.517 143.831 169.066 143.062 168.458C142.294 167.851 141.652 167.097 141.174 166.241Z" fill="#C5FFA1"/>
<path d="M126.738 182.8L123.101 176.284L129.615 172.645C130.093 173.501 130.397 174.442 130.511 175.416C130.625 176.389 130.547 177.376 130.28 178.319C130.012 179.262 129.562 180.143 128.955 180.912C128.347 181.681 127.594 182.322 126.738 182.8Z" fill="#C5FFA1"/>
<path d="M173.565 224.376C173.086 223.52 172.781 222.578 172.666 221.604C172.551 220.63 172.63 219.643 172.896 218.699C173.163 217.755 173.614 216.873 174.222 216.103C174.83 215.333 175.583 214.691 176.44 214.213L180.079 220.729L173.565 224.376Z" fill="#E0F85C"/>
<path d="M155.492 234.419L151.853 227.903C152.709 227.425 153.651 227.121 154.624 227.008C155.598 226.895 156.584 226.974 157.527 227.242C158.47 227.511 159.351 227.962 160.119 228.571C160.888 229.179 161.529 229.934 162.006 230.79L155.492 234.419Z" fill="#E0F85C"/>
<path d="M143.718 179.393C143.797 177.789 142.56 176.424 140.957 176.346C139.353 176.267 137.989 177.504 137.911 179.108C137.832 180.712 139.068 182.076 140.672 182.155C142.275 182.234 143.639 180.997 143.718 179.393Z" fill="#C5FFA1"/>
<path d="M165.179 217.283C165.078 216.717 164.811 216.193 164.413 215.779C164.014 215.364 163.502 215.077 162.94 214.954C162.378 214.831 161.793 214.877 161.257 215.087C160.722 215.297 160.261 215.66 159.932 216.132C159.603 216.604 159.422 217.163 159.411 217.738C159.4 218.313 159.559 218.879 159.869 219.363C160.179 219.847 160.626 220.229 161.152 220.459C161.679 220.69 162.262 220.759 162.828 220.658C163.587 220.522 164.261 220.09 164.702 219.457C165.143 218.824 165.314 218.042 165.179 217.283Z" fill="#E0F85C"/>
<path d="M143.816 189.814L115.5 213.726L163.782 270.942L192.098 247.03L143.816 189.814Z" fill="#B3ED8E"/>
<path d="M161.73 239.777C166.534 235.72 166.878 228.224 162.498 223.034C158.118 217.844 150.674 216.925 145.87 220.982C141.066 225.039 140.722 232.535 145.102 237.725C149.481 242.915 156.926 243.834 161.73 239.777Z" fill="#C5FFA1"/>
<path d="M120.662 213.984L143.182 194.975L186.922 246.813L164.402 265.83L120.662 213.984ZM143.039 196.668L122.36 214.127L164.545 264.123L185.224 246.661L143.039 196.668Z" fill="#C5FFA1"/>
<path d="M156.237 234.196C156.428 233.6 156.453 232.963 156.309 232.354C156.149 231.735 155.926 231.133 155.644 230.559L157.676 228.83C157.684 228.883 157.69 228.937 157.692 228.992C157.708 229.436 157.51 229.902 157.101 230.391L158.787 232.205C159.176 231.874 159.491 231.463 159.708 231C159.925 230.537 160.041 230.033 160.047 229.522C160.029 228.757 159.803 228.012 159.392 227.367L160.859 226.118L159.331 224.323L157.899 225.535C157.533 225.188 157.119 224.894 156.671 224.663C156.077 224.35 155.403 224.225 154.736 224.303C153.958 224.399 153.242 224.776 152.722 225.363C152.203 225.951 151.916 226.707 151.915 227.491C151.898 228.135 152.134 228.982 152.623 230.031L150.022 232.248C149.928 232.003 149.88 231.743 149.879 231.48C149.879 230.899 150.141 230.289 150.663 229.657L148.924 227.974C147.985 228.987 147.513 230.041 147.506 231.136C147.529 232.047 147.821 232.93 148.345 233.674L146.913 234.902L148.441 236.699L149.885 235.471C150.243 235.798 150.641 236.077 151.07 236.302C151.717 236.645 152.455 236.776 153.181 236.676C153.864 236.575 154.506 236.292 155.043 235.857C155.579 235.422 155.989 234.851 156.229 234.204L156.237 234.196ZM154.396 227.493C154.389 227.35 154.415 227.206 154.472 227.073C154.529 226.941 154.616 226.824 154.726 226.73C154.837 226.631 154.972 226.561 155.117 226.527C155.263 226.494 155.414 226.497 155.558 226.538C155.83 226.608 156.086 226.73 156.311 226.898L154.607 228.351C154.492 228.078 154.421 227.789 154.398 227.493H154.396ZM152.168 234.27C151.952 234.232 151.745 234.158 151.555 234.049L153.666 232.248C153.667 232.255 153.667 232.263 153.666 232.27C153.812 232.59 153.872 232.943 153.84 233.293C153.792 233.558 153.651 233.797 153.443 233.967C153.267 234.11 153.061 234.212 152.84 234.265C152.62 234.317 152.39 234.319 152.168 234.27Z" fill="#9AC845"/>
<path d="M137.446 200.685L143.147 195.87L147.959 201.574C146.447 202.85 144.49 203.474 142.519 203.307C140.547 203.141 138.722 202.198 137.446 200.685Z" fill="#E0F85C"/>
<path d="M126.427 219.692L121.615 213.988L127.317 209.172C127.949 209.922 128.428 210.788 128.725 211.722C129.023 212.656 129.133 213.64 129.051 214.617C128.968 215.593 128.694 216.545 128.244 217.415C127.794 218.286 127.176 219.06 126.427 219.692Z" fill="#C5FFA1"/>
<path d="M180.314 251.584C179.682 250.835 179.203 249.968 178.906 249.034C178.608 248.1 178.497 247.117 178.58 246.14C178.662 245.163 178.936 244.212 179.386 243.341C179.836 242.47 180.453 241.696 181.202 241.064L186.014 246.768L180.314 251.584Z" fill="#C5FFA1"/>
<path d="M164.479 264.886L159.665 259.183C161.178 257.906 163.135 257.282 165.107 257.448C167.079 257.615 168.904 258.558 170.181 260.071L164.479 264.886Z" fill="#C5FFA1"/>
<path d="M142.279 212.473C142.071 211.937 141.709 211.474 141.239 211.143C140.769 210.813 140.211 210.629 139.636 210.615C139.061 210.601 138.495 210.759 138.01 211.067C137.524 211.375 137.141 211.82 136.908 212.346C136.676 212.872 136.604 213.455 136.703 214.022C136.802 214.589 137.066 215.113 137.463 215.529C137.86 215.946 138.371 216.235 138.932 216.361C139.493 216.486 140.079 216.443 140.615 216.235C140.971 216.097 141.297 215.891 141.573 215.627C141.85 215.364 142.071 215.048 142.226 214.699C142.38 214.35 142.464 213.973 142.473 213.591C142.482 213.21 142.416 212.83 142.279 212.473Z" fill="#E0F85C"/>
<path d="M170.729 246.217C170.522 245.681 170.16 245.218 169.69 244.887C169.22 244.557 168.662 244.373 168.087 244.359C167.512 244.345 166.946 244.503 166.461 244.811C165.975 245.119 165.592 245.564 165.359 246.09C165.127 246.616 165.055 247.199 165.154 247.766C165.253 248.332 165.517 248.857 165.914 249.273C166.311 249.69 166.822 249.979 167.383 250.104C167.944 250.23 168.53 250.186 169.066 249.979C169.422 249.841 169.748 249.635 170.024 249.371C170.3 249.108 170.522 248.792 170.677 248.443C170.831 248.094 170.915 247.717 170.924 247.335C170.933 246.954 170.867 246.574 170.729 246.217Z" fill="#C5FFA1"/>
<path d="M207.996 144.406L179.68 168.318L227.962 225.534L256.278 201.622L207.996 144.406Z" fill="#B3ED8E"/>
<path d="M225.909 194.361C230.713 190.304 231.057 182.808 226.677 177.618C222.298 172.429 214.853 171.51 210.049 175.567C205.245 179.623 204.902 187.119 209.281 192.309C213.661 197.499 221.105 198.418 225.909 194.361Z" fill="#E0F85C"/>
<path d="M184.846 168.574L207.366 149.557L251.104 201.395L228.584 220.412L184.846 168.574ZM207.223 151.256L186.544 168.718L228.719 218.716L249.398 201.254L207.223 151.256Z" fill="#C5FFA1"/>
<path d="M220.421 188.788C220.612 188.192 220.636 187.555 220.491 186.946C220.332 186.327 220.11 185.726 219.828 185.152L221.859 183.42C221.868 183.474 221.873 183.529 221.876 183.584C221.89 184.028 221.694 184.495 221.282 184.982L222.968 186.795C223.358 186.465 223.672 186.054 223.89 185.592C224.107 185.129 224.223 184.625 224.228 184.114C224.213 183.349 223.988 182.603 223.576 181.959L225.043 180.708L223.514 178.914L222.082 180.127C221.717 179.779 221.304 179.486 220.855 179.255C220.261 178.942 219.586 178.816 218.919 178.895C218.301 178.968 217.718 179.222 217.244 179.626C216.884 179.926 216.595 180.302 216.397 180.726C216.199 181.15 216.097 181.613 216.098 182.082C216.082 182.724 216.318 183.571 216.806 184.622L214.206 186.836C214.113 186.591 214.064 186.332 214.063 186.071C214.063 185.488 214.324 184.879 214.846 184.245L213.109 182.565C212.171 183.576 211.698 184.63 211.692 185.727C211.692 186.545 211.971 187.391 212.53 188.264L211.098 189.492L212.624 191.287L214.071 190.059C214.428 190.385 214.825 190.665 215.253 190.89C215.902 191.231 216.641 191.362 217.367 191.263C218.061 191.174 218.714 190.884 219.247 190.43C219.785 190.004 220.192 189.435 220.421 188.788ZM218.58 182.084C218.573 181.94 218.598 181.797 218.655 181.665C218.712 181.533 218.798 181.416 218.907 181.322C219.018 181.221 219.152 181.149 219.298 181.113C219.444 181.077 219.597 181.079 219.742 181.118C220.014 181.188 220.269 181.31 220.495 181.478L218.789 182.931C218.675 182.661 218.606 182.374 218.582 182.082L218.58 182.084ZM216.348 188.854C216.132 188.815 215.924 188.74 215.734 188.631L217.847 186.832V186.852C217.992 187.173 218.052 187.525 218.021 187.876C217.971 188.143 217.826 188.383 217.612 188.551C217.438 188.692 217.234 188.793 217.015 188.846C216.797 188.898 216.57 188.901 216.35 188.854H216.348Z" fill="#5D7B2A"/>
<path d="M201.628 155.271L207.33 150.458L212.143 156.162C210.631 157.438 208.673 158.062 206.701 157.895C204.729 157.728 202.904 156.784 201.628 155.271Z" fill="#C5FFA1"/>
<path d="M190.612 174.282L185.8 168.574L191.5 163.761C192.132 164.509 192.611 165.376 192.908 166.309C193.206 167.243 193.316 168.227 193.234 169.203C193.152 170.18 192.878 171.131 192.428 172.002C191.978 172.872 191.361 173.646 190.612 174.278V174.282Z" fill="#C5FFA1"/>
<path d="M244.497 206.174C243.865 205.425 243.386 204.559 243.089 203.625C242.792 202.691 242.681 201.708 242.764 200.731C242.846 199.754 243.121 198.803 243.571 197.933C244.021 197.062 244.638 196.289 245.387 195.657L250.201 201.36L244.497 206.174Z" fill="#C5FFA1"/>
<path d="M228.665 219.477L223.853 213.773C225.365 212.497 227.322 211.873 229.294 212.04C231.265 212.207 233.09 213.151 234.366 214.663L228.665 219.477Z" fill="#E0F85C"/>
<path d="M204.945 170.751C206.41 170.095 207.067 168.375 206.411 166.909C205.755 165.443 204.035 164.786 202.57 165.443C201.104 166.099 200.448 167.819 201.104 169.285C201.76 170.751 203.479 171.408 204.945 170.751Z" fill="#C5FFA1"/>
<path d="M235.1 201.968C235.166 200.363 233.919 199.009 232.315 198.943C230.711 198.877 229.357 200.125 229.291 201.73C229.225 203.334 230.472 204.689 232.076 204.755C233.681 204.82 235.035 203.573 235.1 201.968Z" fill="#E0F85C"/>
<path d="M162.575 196.329L125.665 193.04L119.024 267.621L155.934 270.91L162.575 196.329Z" fill="#B3ED8E"/>
<path d="M152.176 233.001C152.778 226.236 148.19 220.299 141.928 219.741C135.667 219.183 130.102 224.215 129.5 230.98C128.897 237.745 133.485 243.682 139.747 244.24C146.009 244.798 151.573 239.766 152.176 233.001Z" fill="#C5FFA1"/>
<path d="M129.155 196.874L158.509 199.478L152.498 267.056L123.155 264.442L129.155 196.874ZM157.201 200.581L130.248 198.182L124.45 263.347L151.406 265.748L157.201 200.581Z" fill="#C5FFA1"/>
<path d="M139.848 236.377C140.404 236.094 140.873 235.663 141.202 235.133C141.53 234.584 141.801 234.004 142.01 233.4L144.67 233.625C144.638 233.668 144.603 233.71 144.566 233.75C144.263 234.073 143.793 234.261 143.156 234.315L143.056 236.789C143.565 236.832 144.078 236.766 144.56 236.595C145.041 236.424 145.481 236.152 145.848 235.796C146.379 235.246 146.748 234.561 146.916 233.815L148.835 233.977L149.04 231.627L147.178 231.47C147.165 230.965 147.082 230.464 146.931 229.982C146.736 229.336 146.35 228.765 145.824 228.345C145.337 227.956 144.745 227.72 144.124 227.667C143.657 227.623 143.187 227.682 142.746 227.84C142.305 227.999 141.904 228.253 141.573 228.584C141.105 229.026 140.67 229.79 140.269 230.874L136.865 230.588C136.973 230.349 137.124 230.132 137.309 229.947C137.718 229.538 138.332 229.295 139.15 229.218L139.122 226.799C137.743 226.844 136.662 227.254 135.879 228.027C135.29 228.602 134.886 229.396 134.666 230.41L132.792 230.25L132.587 232.599L134.478 232.759C134.497 233.245 134.58 233.727 134.723 234.192C134.937 234.894 135.366 235.512 135.951 235.956C136.503 236.37 137.156 236.628 137.842 236.702C138.528 236.777 139.222 236.666 139.85 236.382L139.848 236.377ZM143.314 230.352C143.41 230.246 143.53 230.163 143.664 230.111C143.798 230.058 143.942 230.037 144.085 230.049C144.234 230.058 144.379 230.105 144.505 230.184C144.632 230.263 144.736 230.373 144.809 230.504C144.951 230.747 145.045 231.015 145.083 231.294L142.851 231.103C142.964 230.83 143.12 230.576 143.314 230.352ZM136.937 233.533C136.815 233.354 136.725 233.156 136.669 232.947L139.435 233.181C139.435 233.181 139.435 233.195 139.425 233.201C139.299 233.529 139.091 233.82 138.821 234.044C138.6 234.197 138.331 234.265 138.064 234.235C137.835 234.212 137.614 234.137 137.419 234.015C137.223 233.894 137.058 233.728 136.937 233.533Z" fill="#B3ED8E"/>
<path d="M150.41 199.435L157.842 200.096L157.182 207.531C155.211 207.355 153.39 206.404 152.12 204.885C150.85 203.367 150.235 201.406 150.41 199.435Z" fill="#C5FFA1"/>
<path d="M129.161 204.987L129.823 197.552L137.254 198.215C137.167 199.191 136.889 200.141 136.435 201.01C135.982 201.879 135.361 202.649 134.61 203.278C133.858 203.907 132.99 204.382 132.055 204.675C131.12 204.968 130.137 205.074 129.161 204.987Z" fill="#C5FFA1"/>
<path d="M144.453 265.723C144.629 263.752 145.58 261.93 147.098 260.66C148.615 259.39 150.575 258.774 152.546 258.949L151.885 266.385L144.453 265.723Z" fill="#C5FFA1"/>
<path d="M123.866 263.841L124.527 256.407C125.503 256.494 126.452 256.772 127.32 257.226C128.188 257.68 128.959 258.3 129.588 259.052C130.216 259.803 130.691 260.672 130.984 261.607C131.277 262.542 131.383 263.526 131.296 264.502L123.866 263.841Z" fill="#C5FFA1"/>
<path d="M145.453 211.168C145.688 210.643 145.763 210.059 145.667 209.492C145.571 208.924 145.309 208.397 144.914 207.979C144.519 207.56 144.008 207.268 143.447 207.14C142.886 207.011 142.3 207.052 141.762 207.257C141.224 207.462 140.759 207.822 140.426 208.292C140.093 208.761 139.907 209.319 139.89 209.895C139.874 210.47 140.029 211.037 140.335 211.525C140.641 212.012 141.085 212.398 141.611 212.633C142.314 212.948 143.114 212.971 143.835 212.696C144.555 212.421 145.137 211.872 145.453 211.168Z" fill="#C5FFA1"/>
<path d="M140.768 256.13C141.987 255.085 142.128 253.249 141.084 252.029C140.039 250.809 138.204 250.668 136.984 251.713C135.765 252.758 135.624 254.594 136.668 255.813C137.713 257.033 139.548 257.175 140.768 256.13Z" fill="#C5FFA1"/>
<path d="M258.231 187.703L241.552 154.6L174.714 188.302L191.392 221.404L258.231 187.703Z" fill="#B3ED8E"/>
<path d="M221.611 198.2C227.673 195.143 230.294 188.112 227.465 182.496C224.635 176.88 217.426 174.806 211.364 177.863C205.301 180.92 202.68 187.95 205.509 193.566C208.339 199.182 215.548 201.257 221.611 198.2Z" fill="#C5FFA1"/>
<path d="M240.136 159.579L253.403 185.905L192.847 216.442L179.58 190.114L240.136 159.579ZM251.783 185.366L239.602 161.206L181.204 190.657L193.385 214.827L251.783 185.366Z" fill="#C5FFA1"/>
<path d="M212.229 189.507C212.764 189.83 213.376 190.001 214.001 190.002C214.64 189.99 215.276 189.914 215.9 189.773L217.111 192.151C217.056 192.146 217.002 192.139 216.949 192.128C216.513 192.04 216.106 191.741 215.722 191.228L213.569 192.456C213.801 192.91 214.127 193.31 214.527 193.628C214.926 193.946 215.388 194.174 215.883 194.298C216.632 194.458 217.41 194.411 218.134 194.161L219.007 195.878L221.108 194.807L220.259 193.141C220.682 192.865 221.063 192.53 221.391 192.147C221.833 191.642 222.112 191.014 222.191 190.348C222.264 189.729 222.152 189.102 221.869 188.547C221.661 188.127 221.362 187.759 220.995 187.468C220.628 187.176 220.202 186.97 219.746 186.862C219.124 186.697 218.245 186.731 217.111 186.963L215.56 183.917C215.819 183.884 216.083 183.897 216.337 183.956C216.903 184.093 217.435 184.488 217.931 185.141L219.977 183.84C219.21 182.694 218.295 181.99 217.231 181.728C216.432 181.523 215.546 181.607 214.572 181.955L213.719 180.279L211.62 181.349L212.481 183.039C212.081 183.312 211.717 183.634 211.399 183.999C210.914 184.549 210.616 185.238 210.546 185.968C210.485 186.656 210.61 187.347 210.908 187.969C211.206 188.592 211.666 189.123 212.24 189.507H212.229ZM219.175 189.273C219.316 189.299 219.45 189.358 219.565 189.444C219.68 189.529 219.774 189.641 219.84 189.769C219.912 189.9 219.95 190.047 219.95 190.196C219.95 190.346 219.912 190.493 219.84 190.624C219.708 190.873 219.53 191.094 219.314 191.275L218.291 189.277C218.584 189.229 218.882 189.228 219.175 189.273ZM213.111 185.532C213.198 185.334 213.318 185.153 213.467 184.996L214.725 187.468H214.705C214.36 187.534 214.003 187.51 213.67 187.399C213.423 187.292 213.223 187.099 213.107 186.856C213.007 186.65 212.955 186.423 212.956 186.194C212.956 185.964 213.01 185.738 213.111 185.532Z" fill="#5D7B2A"/>
<path d="M249.177 178.995L252.537 185.659L245.873 189.02C244.983 187.252 244.831 185.203 245.451 183.323C246.071 181.444 247.411 179.887 249.177 178.995Z" fill="#C5FFA1"/>
<path d="M233.25 163.867L239.911 160.507L243.271 167.172C242.396 167.615 241.442 167.88 240.464 167.953C239.487 168.026 238.504 167.906 237.573 167.599C236.642 167.292 235.781 166.804 235.038 166.164C234.296 165.524 233.687 164.743 233.246 163.867H233.25Z" fill="#C5FFA1"/>
<path d="M189.739 208.902C190.614 208.46 191.568 208.195 192.545 208.122C193.523 208.049 194.505 208.169 195.436 208.476C196.367 208.783 197.229 209.271 197.971 209.911C198.714 210.551 199.323 211.331 199.763 212.207L193.102 215.568L189.739 208.902Z" fill="#E0F85C"/>
<path d="M180.476 190.411L187.139 187.053C187.581 187.928 187.845 188.882 187.918 189.86C187.991 190.838 187.87 191.82 187.563 192.751C187.257 193.683 186.77 194.544 186.13 195.287C185.49 196.03 184.71 196.64 183.835 197.081L180.476 190.411Z" fill="#E0F85C"/>
<path d="M236.591 180.962C237.16 180.885 237.694 180.64 238.125 180.259C238.555 179.878 238.863 179.377 239.009 178.821C239.156 178.265 239.134 177.678 238.947 177.134C238.76 176.59 238.416 176.114 237.958 175.766C237.501 175.418 236.95 175.213 236.376 175.178C235.802 175.143 235.231 175.279 234.734 175.568C234.238 175.858 233.838 176.288 233.586 176.805C233.333 177.322 233.24 177.902 233.317 178.472C233.369 178.85 233.494 179.215 233.686 179.545C233.879 179.875 234.134 180.164 234.438 180.396C234.742 180.627 235.089 180.796 235.458 180.893C235.827 180.99 236.212 181.014 236.591 180.962Z" fill="#C5FFA1"/>
<path d="M199.674 198.177C199.813 196.577 198.629 195.167 197.03 195.028C195.43 194.889 194.021 196.073 193.882 197.673C193.743 199.273 194.927 200.683 196.526 200.823C198.126 200.962 199.535 199.777 199.674 198.177Z" fill="#E0F85C"/>
<path d="M224.02 183.836L190.113 168.883L159.92 237.397L193.827 252.35L224.02 183.836Z" fill="#B3ED8E"/>
<path d="M202.401 215.215C205.14 209.001 202.697 201.906 196.945 199.369C191.192 196.832 184.309 199.814 181.57 206.029C178.831 212.243 181.274 219.338 187.027 221.875C192.779 224.412 199.663 221.43 202.401 215.215Z" fill="#C5FFA1"/>
<path d="M192.175 173.631L219.141 185.524L191.791 247.595L164.823 235.702L192.175 173.631ZM217.544 186.14L192.789 175.221L166.412 235.088L191.167 246.009L217.544 186.14Z" fill="#C5FFA1"/>
<path d="M189.643 214.481C190.261 214.39 190.842 214.132 191.325 213.736C191.811 213.321 192.253 212.858 192.644 212.353L195.099 213.419C195.054 213.45 195.007 213.478 194.96 213.505C194.567 213.714 194.062 213.741 193.444 213.587L192.556 215.897C193.025 216.103 193.531 216.205 194.042 216.197C194.554 216.189 195.057 216.072 195.519 215.852C196.194 215.5 196.76 214.97 197.155 214.319L198.921 215.089L199.862 212.928L198.15 212.181C198.301 211.699 198.383 211.198 198.393 210.693C198.412 210.022 198.228 209.36 197.865 208.796C197.529 208.27 197.044 207.857 196.472 207.609C196.045 207.417 195.58 207.323 195.112 207.331C194.644 207.34 194.183 207.452 193.763 207.66C193.178 207.933 192.522 208.517 191.793 209.412L188.661 208.047C188.84 207.855 189.052 207.698 189.287 207.582C189.811 207.327 190.472 207.294 191.27 207.484L192.016 205.183C190.697 204.784 189.544 204.822 188.555 205.298C187.814 205.654 187.177 206.277 186.644 207.167L184.919 206.416L183.978 208.577L185.717 209.334C185.58 209.8 185.505 210.281 185.492 210.767C185.468 211.499 185.675 212.221 186.083 212.83C186.468 213.414 187.015 213.874 187.657 214.154C188.275 214.447 188.963 214.56 189.643 214.481ZM194.856 209.884C194.98 209.816 195.119 209.777 195.26 209.77C195.402 209.763 195.544 209.788 195.674 209.844C195.813 209.9 195.935 209.991 196.029 210.107C196.123 210.223 196.187 210.361 196.214 210.509C196.268 210.784 196.268 211.068 196.214 211.344L194.169 210.449C194.365 210.225 194.597 210.034 194.856 209.884ZM187.798 210.85C187.739 210.643 187.716 210.427 187.73 210.212L190.275 211.319L190.259 211.335C190.036 211.609 189.747 211.821 189.418 211.949C189.159 212.023 188.882 212.001 188.639 211.886C188.429 211.79 188.244 211.646 188.099 211.466C187.954 211.287 187.852 211.076 187.802 210.85H187.798Z" fill="#B3ED8E"/>
<path d="M211.489 182.876L218.316 185.886L215.307 192.724C214.409 192.329 213.598 191.76 212.921 191.051C212.243 190.342 211.712 189.506 211.357 188.592C211.002 187.677 210.832 186.701 210.854 185.721C210.877 184.74 211.093 183.773 211.489 182.876Z" fill="#C5FFA1"/>
<path d="M189.582 181.318L192.591 174.489L199.418 177.499C199.023 178.396 198.455 179.207 197.747 179.884C197.039 180.562 196.204 181.093 195.291 181.447C194.377 181.802 193.403 181.973 192.424 181.951C191.444 181.929 190.478 181.714 189.582 181.318Z" fill="#C5FFA1"/>
<path d="M184.599 243.753C185.397 241.942 186.882 240.522 188.726 239.806C190.571 239.09 192.624 239.136 194.435 239.934L191.426 246.764L184.599 243.753Z" fill="#E0F85C"/>
<path d="M165.707 235.366L168.71 228.539C170.521 229.338 171.94 230.823 172.656 232.668C173.372 234.514 173.326 236.568 172.528 238.379L165.707 235.366Z" fill="#C5FFA1"/>
<path d="M203.024 192.396C203.414 191.974 203.671 191.446 203.762 190.878C203.852 190.31 203.772 189.728 203.532 189.206C203.292 188.683 202.903 188.244 202.413 187.942C201.923 187.641 201.355 187.492 200.781 187.514C200.206 187.536 199.651 187.727 199.186 188.065C198.72 188.402 198.365 188.87 198.165 189.409C197.965 189.948 197.93 190.534 198.063 191.094C198.196 191.653 198.492 192.161 198.913 192.552C199.479 193.076 200.23 193.354 201.001 193.325C201.771 193.296 202.499 192.962 203.024 192.396Z" fill="#C5FFA1"/>
<path d="M185.77 231.952C186.384 230.468 185.679 228.767 184.195 228.153C182.712 227.539 181.012 228.244 180.398 229.728C179.784 231.212 180.489 232.913 181.972 233.527C183.456 234.141 185.156 233.436 185.77 231.952Z" fill="#C5FFA1"/>
<path d="M259.5 218.054L233.838 191.312L179.842 243.166L205.504 269.908L259.5 218.054Z" fill="#B3ED8E"/>
<path d="M227.554 238.816C232.452 234.112 232.893 226.621 228.539 222.084C224.185 217.548 216.686 217.683 211.788 222.386C206.89 227.09 206.449 234.581 210.802 239.118C215.156 243.654 222.656 243.519 227.554 238.816Z" fill="#C5FFA1"/>
<path d="M233.925 196.486L254.335 217.754L205.415 264.731L185.006 243.463L233.925 196.486ZM252.631 217.721L233.891 198.191L186.71 243.498L205.45 263.026L252.631 217.721Z" fill="#C5FFA1"/>
<path d="M216.035 233.293C216.642 233.445 217.278 233.428 217.876 233.246C218.484 233.048 219.069 232.787 219.624 232.469L221.481 234.386C221.428 234.398 221.374 234.407 221.319 234.413C220.878 234.456 220.399 234.29 219.887 233.911L218.187 235.71C218.542 236.078 218.972 236.365 219.447 236.553C219.923 236.74 220.433 236.824 220.943 236.797C221.704 236.731 222.433 236.458 223.05 236.007L224.39 237.391L226.084 235.753L224.783 234.411C225.107 234.023 225.373 233.591 225.575 233.128C225.848 232.514 225.93 231.832 225.81 231.171C225.699 230.558 225.407 229.991 224.973 229.544C224.651 229.204 224.257 228.939 223.821 228.769C223.385 228.598 222.916 228.526 222.449 228.558C221.806 228.585 220.977 228.875 219.961 229.427L217.584 226.971C217.822 226.863 218.078 226.797 218.339 226.779C218.922 226.742 219.544 226.965 220.211 227.444L221.776 225.602C220.708 224.73 219.626 224.326 218.531 224.389C217.713 224.436 216.887 224.769 216.054 225.387L214.744 224.037L213.052 225.674L214.372 227.037C214.07 227.412 213.817 227.825 213.619 228.265C213.319 228.933 213.235 229.679 213.38 230.397C213.524 231.072 213.847 231.696 214.315 232.204C214.783 232.711 215.378 233.084 216.039 233.283L216.035 233.293ZM222.606 231.03C222.749 231.013 222.894 231.03 223.029 231.078C223.165 231.126 223.287 231.205 223.388 231.308C223.494 231.413 223.573 231.543 223.615 231.686C223.658 231.829 223.665 231.981 223.633 232.127C223.581 232.403 223.475 232.666 223.322 232.902L221.765 231.294C222.029 231.161 222.312 231.072 222.604 231.03H222.606ZM215.712 229.233C215.736 229.019 215.798 228.811 215.894 228.619L217.823 230.612L217.805 230.623C217.495 230.788 217.147 230.869 216.796 230.86C216.528 230.831 216.28 230.705 216.099 230.506C215.94 230.338 215.823 230.136 215.755 229.915C215.688 229.694 215.672 229.461 215.71 229.233H215.712Z" fill="#B3ED8E"/>
<path d="M248.264 212.392L253.432 217.776L248.049 222.946C247.371 222.239 246.838 221.405 246.481 220.492C246.125 219.579 245.952 218.604 245.972 217.624C245.992 216.644 246.204 215.678 246.598 214.78C246.991 213.882 247.557 213.07 248.264 212.392Z" fill="#C5FFA1"/>
<path d="M228.601 202.607L233.983 197.437L239.151 202.822C238.445 203.501 237.612 204.035 236.699 204.393C235.787 204.75 234.813 204.924 233.833 204.905C232.854 204.886 231.887 204.674 230.989 204.282C230.092 203.889 229.28 203.323 228.601 202.617V202.607Z" fill="#C5FFA1"/>
<path d="M200.226 258.44C200.933 257.761 201.766 257.228 202.679 256.871C203.592 256.514 204.566 256.341 205.546 256.361C206.525 256.381 207.491 256.594 208.389 256.987C209.286 257.381 210.098 257.947 210.776 258.654L205.396 263.824L200.226 258.44Z" fill="#C5FFA1"/>
<path d="M185.945 243.479L191.328 238.309C192.006 239.017 192.539 239.85 192.896 240.764C193.252 241.677 193.425 242.651 193.406 243.631C193.386 244.611 193.173 245.578 192.779 246.476C192.386 247.373 191.82 248.185 191.113 248.864L185.945 243.479Z" fill="#C5FFA1"/>
<path d="M238.329 216.318C238.874 214.807 238.091 213.141 236.58 212.596C235.07 212.051 233.404 212.835 232.86 214.346C232.315 215.857 233.098 217.523 234.609 218.068C236.119 218.612 237.785 217.829 238.329 216.318Z" fill="#C5FFA1"/>
<path d="M204.034 248.797C205.631 248.63 206.79 247.199 206.623 245.602C206.456 244.004 205.026 242.845 203.429 243.012C201.832 243.179 200.673 244.609 200.84 246.207C201.007 247.804 202.437 248.964 204.034 248.797Z" fill="#C5FFA1"/>
<path d="M160.231 72.4852L160.206 0.0200303L218.804 0L218.831 72.4852H160.231Z" fill="#B3ED8E"/>
<path d="M218.845 118.406L160.246 118.428L160.235 85.6719H218.836L218.845 118.406Z" fill="#B3ED8E"/>
<path d="M207.528 59.2162C207.56 64.0807 205.84 68.7939 202.683 72.4941H176.366C173.211 68.7932 171.492 64.0801 171.525 59.2162C171.525 48.4777 179.576 39.769 189.519 39.7645C199.461 39.7601 207.524 48.4666 207.528 59.2162Z" fill="#C5FFA1"/>
<path d="M212.829 85.6717H210.92V100.1V110.934H200.005H179.043H168.126V100.029V85.6651H166.222V112.851L212.829 112.835V85.6717ZM168.111 18.3388V7.48903H179.117H200.078H210.904V18.3944L210.922 72.4918H212.829L212.809 5.57947H166.204L166.226 72.4807H168.131L168.111 18.3388Z" fill="#C5FFA1"/>
<path d="M202.406 57.527L199.45 57.5404C199.361 56.7472 199.16 55.9708 198.851 55.2347C198.453 54.2497 197.765 53.4091 196.878 52.8244C196.057 52.2806 195.093 51.9932 194.108 51.9987C193.367 51.9944 192.634 52.1538 191.962 52.4654C191.29 52.777 190.695 53.2332 190.219 53.8014C189.543 54.5625 188.965 55.8237 188.486 57.5849L183.084 57.6116C183.219 57.223 183.422 56.8619 183.685 56.5455C184.278 55.8452 185.213 55.3764 186.49 55.139L186.103 51.3354C183.936 51.5996 182.291 52.3911 181.167 53.7101C180.321 54.7013 179.797 56.0099 179.594 57.6361L176.619 57.6494L176.637 61.3773L179.636 61.3617C179.736 62.1213 179.933 62.8648 180.223 63.574C180.656 64.6492 181.415 65.561 182.395 66.1801C183.323 66.7785 184.405 67.0947 185.509 67.0904C186.59 67.1224 187.657 66.8502 188.591 66.3047C189.426 65.7779 190.103 65.0341 190.548 64.1526C190.988 63.2417 191.333 62.2878 191.576 61.3061L195.803 61.2883C195.759 61.3657 195.71 61.44 195.656 61.5108C195.225 62.0628 194.511 62.4248 193.516 62.5969L193.708 66.5095C195.487 66.4383 196.906 65.7862 197.964 64.5532C198.671 63.7297 199.139 62.6392 199.367 61.2816L202.415 61.2682L202.406 57.527ZM187.5 61.3595C187.267 62.0272 186.989 62.499 186.671 62.7705C186.343 63.0424 185.928 63.1877 185.503 63.18C185.138 63.1758 184.78 63.0879 184.455 62.9232C184.131 62.7584 183.848 62.5211 183.629 62.2297C183.411 61.9644 183.24 61.6632 183.124 61.3395L187.514 61.3194L187.5 61.3595ZM192.604 57.576C192.743 57.1287 192.953 56.7065 193.225 56.3252C193.362 56.1444 193.54 55.9976 193.743 55.8961C193.946 55.7946 194.17 55.7412 194.397 55.7399C194.634 55.7325 194.868 55.785 195.079 55.8924C195.29 55.9997 195.47 56.1586 195.603 56.3541C195.861 56.7172 196.045 57.1269 196.146 57.5604L192.604 57.576Z" fill="#B3ED8E"/>
<path d="M200.048 6.62561H211.839V18.4212C208.712 18.4212 205.713 17.1785 203.501 14.9664C201.29 12.7543 200.048 9.754 200.048 6.62561Z" fill="#C5FFA1"/>
<path d="M167.357 18.3634V6.56775H179.149C179.15 8.11771 178.846 9.65275 178.254 11.0851C177.662 12.5175 176.794 13.8192 175.699 14.9157C174.604 16.0122 173.304 16.8821 171.872 17.4755C170.441 18.069 168.907 18.3745 167.357 18.3745V18.3634Z" fill="#C5FFA1"/>
<path d="M199.988 111.876C199.987 110.326 200.291 108.791 200.883 107.358C201.475 105.926 202.343 104.624 203.438 103.528C204.533 102.431 205.833 101.562 207.265 100.968C208.696 100.375 210.23 100.069 211.78 100.069V111.865L199.988 111.876Z" fill="#C5FFA1"/>
<path d="M167.293 111.809V100.013C168.842 100.012 170.377 100.316 171.809 100.908C173.241 101.5 174.542 102.369 175.638 103.464C176.734 104.56 177.603 105.861 178.197 107.292C178.79 108.724 179.095 110.259 179.095 111.809H167.304H167.293Z" fill="#C5FFA1"/>
<path d="M190.947 28.6984C193.361 27.9112 194.681 25.3147 193.894 22.8991C193.107 20.4835 190.512 19.1634 188.097 19.9506C185.682 20.7378 184.363 23.3342 185.149 25.7499C185.936 28.1655 188.532 29.4856 190.947 28.6984Z" fill="#C5FFA1"/>
<path d="M190.39 98.6357C192.885 98.1592 194.521 95.7498 194.045 93.2542C193.569 90.7587 191.16 89.1219 188.665 89.5984C186.171 90.0749 184.535 92.4843 185.011 94.9798C185.487 97.4754 187.896 99.1122 190.39 98.6357Z" fill="#C5FFA1"/>
<path opacity="0.49" d="M218.845 65.3855H160.231V72.4851H218.845V65.3855Z" fill="#2E333B"/>
<path opacity="0.58" d="M237.5 86L109.5 213V153.067L177.095 86H237.5Z" fill="white"/>
<path opacity="0.58" d="M266.5 93.163L109.5 250V234.749L258.404 86C260.221 86.4768 261.9 87.3734 263.307 88.6177C264.713 89.8619 265.807 91.4188 266.5 93.163Z" fill="white"/>
<path d="M244.604 164H130.396C127.692 164 125.5 166.162 125.5 168.829V195.171C125.5 197.838 127.692 200 130.396 200H244.604C247.308 200 249.5 197.838 249.5 195.171V168.829C249.5 166.162 247.308 164 244.604 164Z" fill="#89B4FA"/>
<path d="M158.876 187L158.151 184.621H154.508L153.783 187H151.5L155.027 176.965H157.618L161.159 187H158.876ZM157.646 182.844C156.976 180.688 156.597 179.469 156.511 179.187C156.429 178.904 156.369 178.681 156.333 178.517C156.183 179.1 155.752 180.542 155.041 182.844H157.646ZM170.613 187H168.501V182.687H164.543V187H162.424V177.006H164.543V180.923H168.501V177.006H170.613V187ZM182.214 181.989C182.214 183.644 181.804 184.915 180.983 185.804C180.163 186.692 178.987 187.137 177.456 187.137C175.925 187.137 174.749 186.692 173.929 185.804C173.108 184.915 172.698 183.639 172.698 181.976C172.698 180.312 173.108 179.043 173.929 178.168C174.754 177.288 175.934 176.849 177.47 176.849C179.006 176.849 180.179 177.291 180.99 178.175C181.806 179.059 182.214 180.33 182.214 181.989ZM174.92 181.989C174.92 183.106 175.132 183.947 175.556 184.512C175.979 185.077 176.613 185.359 177.456 185.359C179.147 185.359 179.992 184.236 179.992 181.989C179.992 179.738 179.151 178.612 177.47 178.612C176.627 178.612 175.991 178.897 175.562 179.467C175.134 180.032 174.92 180.873 174.92 181.989ZM186.404 181.442H187.088C187.758 181.442 188.252 181.331 188.571 181.107C188.89 180.884 189.05 180.533 189.05 180.055C189.05 179.581 188.886 179.243 188.558 179.043C188.234 178.842 187.73 178.742 187.047 178.742H186.404V181.442ZM186.404 183.165V187H184.285V177.006H187.197C188.555 177.006 189.56 177.254 190.212 177.751C190.864 178.243 191.189 178.993 191.189 180C191.189 180.588 191.028 181.112 190.704 181.572C190.381 182.028 189.923 182.386 189.33 182.646C190.834 184.892 191.814 186.344 192.27 187H189.918L187.532 183.165H186.404ZM195.646 181.442H196.33C197 181.442 197.494 181.331 197.813 181.107C198.132 180.884 198.292 180.533 198.292 180.055C198.292 179.581 198.128 179.243 197.8 179.043C197.476 178.842 196.973 178.742 196.289 178.742H195.646V181.442ZM195.646 183.165V187H193.527V177.006H196.439C197.798 177.006 198.802 177.254 199.454 177.751C200.106 178.243 200.432 178.993 200.432 180C200.432 180.588 200.27 181.112 199.946 181.572C199.623 182.028 199.165 182.386 198.572 182.646C200.076 184.892 201.056 186.344 201.512 187H199.16L196.774 183.165H195.646ZM211.841 181.989C211.841 183.644 211.431 184.915 210.61 185.804C209.79 186.692 208.614 187.137 207.083 187.137C205.552 187.137 204.376 186.692 203.556 185.804C202.735 184.915 202.325 183.639 202.325 181.976C202.325 180.312 202.735 179.043 203.556 178.168C204.381 177.288 205.561 176.849 207.097 176.849C208.632 176.849 209.806 177.291 210.617 178.175C211.433 179.059 211.841 180.33 211.841 181.989ZM204.547 181.989C204.547 183.106 204.759 183.947 205.183 184.512C205.606 185.077 206.24 185.359 207.083 185.359C208.774 185.359 209.619 184.236 209.619 181.989C209.619 179.738 208.778 178.612 207.097 178.612C206.254 178.612 205.618 178.897 205.189 179.467C204.761 180.032 204.547 180.873 204.547 181.989ZM219.812 184.225C219.812 185.127 219.486 185.838 218.834 186.357C218.187 186.877 217.285 187.137 216.127 187.137C215.061 187.137 214.117 186.936 213.297 186.535V184.566C213.971 184.867 214.541 185.079 215.006 185.202C215.475 185.325 215.904 185.387 216.291 185.387C216.756 185.387 217.111 185.298 217.357 185.12C217.608 184.942 217.733 184.678 217.733 184.327C217.733 184.131 217.679 183.958 217.569 183.808C217.46 183.653 217.298 183.505 217.084 183.363C216.874 183.222 216.444 182.996 215.792 182.687C215.181 182.399 214.723 182.124 214.418 181.859C214.113 181.595 213.869 181.287 213.687 180.937C213.504 180.586 213.413 180.175 213.413 179.706C213.413 178.822 213.712 178.127 214.309 177.621C214.91 177.115 215.74 176.862 216.797 176.862C217.316 176.862 217.811 176.924 218.28 177.047C218.754 177.17 219.249 177.343 219.764 177.566L219.08 179.214C218.547 178.995 218.105 178.842 217.754 178.756C217.408 178.669 217.066 178.626 216.729 178.626C216.327 178.626 216.02 178.719 215.806 178.906C215.591 179.093 215.484 179.337 215.484 179.638C215.484 179.825 215.528 179.989 215.614 180.13C215.701 180.267 215.838 180.401 216.024 180.533C216.216 180.661 216.665 180.893 217.371 181.23C218.305 181.677 218.946 182.126 219.292 182.577C219.638 183.024 219.812 183.573 219.812 184.225Z" fill="#FFEEFF"/>
</svg>
