<svg width="475" height="308" viewBox="0 0 475 308" fill="none" xmlns="http://www.w3.org/2000/svg">
<path d="M305.5 60.4643C380.7 -0.335732 428.5 159.464 443 246.964L338.5 288.964L185.5 237.464C194.167 203.798 230.3 121.264 305.5 60.4643Z" fill="#E8F7FC"/>
<path d="M116.787 304.133C-30.1933 316.145 -7.24303 232.398 22.6047 189.023C41.597 149.485 133.49 140.476 203.547 166.501C273.604 192.526 305.756 83.3773 445.268 189.023C515.325 242.074 445.268 327.155 383.562 304.133C246.532 253.008 300.514 289.119 116.787 304.133Z" fill="#D9F9C5"/>
<path d="M104.002 172.171C104.296 175.774 104.009 179.4 103.149 182.911C101.51 188.831 101.04 195.014 101.767 201.114C102.1 205.833 102.786 210.521 103.817 215.138C104.863 216.955 106.095 218.657 107.493 220.219C108.332 221.014 111.621 223.471 111.017 224.667C110.412 225.864 98.6927 225.764 97.65 224.111C96.6073 222.458 97.5148 218.983 96.5748 217.782C95.6348 216.58 92.2788 215.034 93.2533 212.374C93.9513 205.382 93.6583 198.326 92.3831 191.415C91.7113 185.757 91.4246 180.059 91.5249 174.362L93.4091 164.866L103.093 168.698L104.002 172.171Z" fill="#F9F9F9"/>
<path d="M97.1497 220.673C99.8688 219.393 102.722 218.419 105.657 217.77C106.215 218.581 106.827 219.353 107.489 220.083C108.327 220.878 111.616 223.335 111.012 224.532C110.408 225.728 98.6882 225.628 97.6455 223.976C97.1952 222.953 97.0245 221.829 97.1509 220.719L97.1497 220.673Z" fill="#3C1F52"/>
<path d="M93.4016 164.684L103.085 168.516L103.999 172.17C103.999 172.17 104.058 174.394 104.119 176.709C99.5695 176.42 95.4335 174.576 95.0419 176.948C94.6503 179.32 94.917 189.44 94.621 195.443C94.694 198.211 94.1292 200.906 93.8641 202.911C93.7154 198.871 93.2907 194.846 92.5929 190.864C91.9211 185.206 91.6344 179.508 91.7347 173.811L93.4016 164.684Z" fill="#F9F9F9"/>
<path d="M132.054 161.123C132.054 161.123 128.571 170.297 112.214 173.453C95.8574 176.609 90.4277 167.034 90.4277 167.034L97.3742 146.278L118.333 143.682L127.272 152.03L132.054 161.123Z" fill="#DC7CB3"/>
<path d="M64.9479 91.4569C66.7508 78.8749 87.0247 67.5319 109.716 66.9338C132.408 66.3358 145.664 71.3 170.677 69.1876C195.69 67.0751 197.496 63.2127 216.838 61.2951C236.179 59.3775 257.649 58.9479 257.649 58.9479C256.514 58.9778 244.314 49.2627 243.545 40.745C246.329 39.8971 249.318 40.0161 252.026 41.0827C254.734 42.1492 257.001 44.1005 258.459 46.6192C258.459 46.6192 258.685 36.2132 275.113 35.7803C283.146 35.5686 288.226 40.4759 291.73 47.6499C293.199 43.0697 297.751 45.175 302.409 41.0103C302.975 42.4069 303.205 43.9168 303.08 45.4185C302.956 46.9201 302.48 48.3715 301.692 49.6559C300.904 50.9402 299.826 52.0216 298.544 52.813C297.262 53.6044 295.811 54.0838 294.31 54.2124C294.855 55.2047 295.09 56.3373 294.986 57.4645C294.976 58.4299 294.801 59.3866 294.47 60.2937C294.294 61.4079 294.202 62.5337 294.196 63.6616C294.017 66.9377 294.21 70.2235 294.772 73.4561C295.818 73.9865 296.708 74.7798 297.354 75.758C298.001 76.7361 298.383 77.8656 298.461 79.0357C299.125 83.5597 299.256 88.5064 297.494 88.8708C297.494 88.8708 296.661 93.4343 284.666 93.2508C281.365 95.7035 277.666 97.5678 273.73 98.7617C256.258 104.399 277.369 171.329 237.979 167.326C237.979 167.326 237.053 183.882 236.143 188.992C235.059 195.268 234.694 201.646 235.055 208.004C235.745 211.801 237.528 219.111 239.935 220.864C242.343 222.618 248.163 228.05 247.753 229.741C247.344 231.432 238.709 231.206 238.709 231.206C238.709 231.206 243.367 235.625 237.97 237.629C232.573 239.633 223.507 235.103 223.507 235.103C223.843 232.873 223.675 230.596 223.014 228.44C221.524 225.136 221.078 221.456 221.737 217.892C222.335 209.162 221.396 200.394 218.965 191.988C216.228 187.226 214.297 182.044 213.247 176.652C212.054 171.296 210.272 166.089 207.933 161.124C198.321 160.781 188.707 161.738 179.351 163.967C166.821 167.567 160.923 169.539 149.869 168.831C143.527 168.514 137.361 166.632 131.922 163.355C131.922 163.355 115.92 148.971 107.071 149.204C98.2208 149.438 94.0237 171.12 94.0237 171.12C94.0237 171.12 90.4809 188.335 88.7159 193.74C87.4536 201.249 87.1969 208.892 87.9524 216.468C88.2497 219.239 89.1085 221.921 90.4763 224.349C91.3768 225.779 95.4042 230.396 93.1793 232.135C91.1098 233.126 88.7963 233.492 86.5218 233.189C84.2474 232.886 82.1105 231.927 80.3727 230.428C79.4734 229.044 80.8706 225.193 80.6543 223.881C79.1532 220.898 78.773 217.476 79.5827 214.236C81.1611 206.065 81.2171 197.672 79.7478 189.481C77.968 182.261 75.5039 174.924 76.4747 170.402C77.4455 165.88 71.473 140.878 70.337 133.959C69.2009 127.041 62.6401 112.454 65.5367 91.396L64.9479 91.4569Z" fill="#F4F4F4"/>
<path d="M166.15 66.0796C179.287 64.8251 169.314 77.577 176.717 82.7862C186.432 89.5241 196.053 115.112 174.604 106.003C150.998 95.9985 168.033 118.575 165.17 123.691C158.103 136.412 143.479 113.999 133.17 115.724C124.988 117.166 117.637 122.582 111.208 118.165C107.647 115.716 78.4394 131.018 86.4155 114.867C92.7137 102.258 116.335 90.4177 91.4796 89.892C80.7118 89.7216 81.0292 81.0845 92.2947 74.2933C102.581 68.2545 99.8783 70.8235 107.938 63.0268C115.069 56.1629 127.819 79.8513 137.842 75.8632C147.864 71.875 139.236 66.7435 157.993 68.4745C160.794 67.9467 163.54 67.1597 166.196 66.1239L166.15 66.0796Z" fill="#3C1F52"/>
<path d="M258.899 76.9412L267.701 83.5215C268.087 85.4213 269.043 87.1584 270.442 88.5009C271.84 89.8434 273.615 90.7277 275.529 91.0358L284.644 92.2488L285.489 93.3165L284.082 93.3535C281.683 96.8143 278.179 99.3568 274.145 100.564C257.559 119.167 269.768 143.006 256.849 161.149C251.112 169.202 241.049 169.922 227.483 165.238C232.414 164.518 251.853 164.596 252.623 152.45C253.96 129.071 269.808 101.45 263.22 92.7225C262.25 91.2963 261.001 90.0817 259.548 89.1521C258.095 88.2224 256.469 87.5971 254.767 87.3139L258.899 76.9412Z" fill="#F9F9F9"/>
<path d="M190.681 66.4769C199.18 64.0826 207.848 62.336 216.611 61.252L253.303 57.6964C253.303 57.6964 241.083 48.9354 242.689 39.2198C245.489 38.36 248.496 38.4619 251.231 39.5091C253.967 40.5563 256.273 42.4887 257.783 44.9985C257.783 44.9985 258.191 36.3589 274.343 35.7516C272.295 54.5618 279.106 44.164 277.05 59.205C276.238 66.3112 278.37 67.9353 271.881 69.8775C267.394 70.7495 262.793 70.8708 258.266 70.2363C257.095 70.5851 266.581 77.2835 265.034 84.0457C263.486 90.8078 251.516 88.0806 253.178 96.0297C254.841 103.979 260.798 106.002 254.28 113.712C247.762 121.423 240.325 116.669 231.826 111.261C223.327 105.854 206.135 132.466 196.111 124.328C186.087 116.191 206.739 96.7995 201.623 88.7597C197.106 81.7172 193.375 74.201 190.496 66.3455L190.681 66.4769Z" fill="#3C1F52"/>
<path d="M109.166 144.105C120.149 140.364 133.167 148.378 162.939 151.09C192.712 153.802 204.687 144.631 204.687 144.631L210.112 162.654L209.144 165.54C208.6 164.008 207.969 162.509 207.254 161.049C197.643 160.706 188.028 161.662 178.672 163.891C166.142 167.491 160.245 169.463 149.19 168.755C142.848 168.438 136.682 166.557 131.243 163.279C131.243 163.279 115.242 148.895 106.392 149.129C99.5843 149.308 95.6066 162.084 94.127 167.981C95.9181 158.397 98.8545 147.465 109.161 143.924L109.166 144.105Z" fill="#F9F9F9"/>
<path d="M223.447 194.955C224.91 205.634 221.199 209.592 226.43 227.121C227.603 231.034 229.436 234.717 231.849 238.014C228.686 237.488 225.607 236.546 222.692 235.212C223.028 232.982 222.859 230.705 222.198 228.549C220.708 225.245 220.263 221.565 220.921 218.001C221.519 209.271 220.581 200.503 218.149 192.097C215.413 187.334 213.481 182.153 212.432 176.761C211.238 171.405 209.456 166.198 207.118 161.233C205.434 155.86 204.567 150.265 204.546 144.634C207.615 150.82 226.111 192.614 223.311 194.958L223.447 194.955Z" fill="#F9F9F9"/>
<path d="M84.8125 233.124C83.8488 233.054 82.9087 232.793 82.0472 232.356C81.1857 231.919 80.4201 231.314 79.7952 230.577C78.8958 229.193 80.293 225.341 80.0768 224.03C78.5757 221.047 78.1954 217.624 79.0052 214.384C80.5836 206.213 80.6395 197.821 79.1702 189.629C77.3904 182.41 74.9263 175.072 75.8971 170.55C76.8679 166.029 70.8954 141.026 69.7594 134.108C67.1157 125.003 65.3489 115.667 64.4831 106.226C66.9291 108.858 69.0493 111.776 70.7978 114.915C72.8234 119.403 76.1022 130.08 79.4502 139.938C82.7982 149.796 82.5193 166.788 82.8851 173.772C83.1314 183.121 85.7848 204.532 83.8837 211.667C82.1806 217.501 82.4405 223.733 84.6237 229.405L84.8125 233.124Z" fill="#F9F9F9"/>
<path d="M294.533 74.6395C290.225 73.8382 285.781 74.2062 281.663 75.7053C280.772 76.7633 280.182 78.0412 279.955 79.4054C279.727 80.7696 279.87 82.1699 280.369 83.4599C281.29 85.6609 282.264 88.1785 283.581 88.1438C286.068 88.1443 288.456 87.1681 290.23 85.4254C292.532 86.5909 296.028 88.27 296.855 86.9311C297.683 85.5923 298.705 76.1191 294.533 74.6395Z" fill="#E06E88"/>
<path d="M275.534 91.0363C280.647 90.4982 285.606 88.9635 290.129 86.5189C292.224 87.8435 294.59 88.6812 297.051 88.9704C297.051 88.9704 296.218 93.5339 284.224 93.3505C281.138 93.7124 278.031 92.8849 275.534 91.0363Z" fill="#F4F4F4"/>
<path d="M249.028 164.216C250.465 163.788 251.851 163.203 253.16 162.472C248.801 166.107 243.189 167.886 237.532 167.425C232.222 167.565 228.808 167.292 226.809 167.254L226.778 166.074L226.697 162.988C233.909 165.06 241.495 165.481 248.892 164.219L249.028 164.216Z" fill="#F9F9F9"/>
<path d="M238.037 231.311C236.131 229.494 234.419 227.485 232.928 225.315C235.72 224.216 238.623 223.424 241.586 222.952C244.19 225.291 247.412 228.612 247.126 229.846C246.841 231.079 238.082 231.31 238.082 231.31L238.037 231.311Z" fill="#3C1F52"/>
<path d="M236.264 229.724L238.031 231.312C238.031 231.312 242.689 235.731 237.292 237.735C231.896 239.739 222.829 235.21 222.829 235.21C224.389 233.183 226.459 231.607 228.827 230.643C231.196 229.679 233.778 229.361 236.309 229.722L236.264 229.724Z" fill="#3C1F52"/>
<path d="M79.7813 230.576C79.722 230.323 79.7151 230.06 79.761 229.805C82.8634 227.395 86.3659 225.55 90.1082 224.355C91.0087 225.784 95.0361 230.401 92.8112 232.14C90.7417 233.131 88.4283 233.498 86.1538 233.195C83.8793 232.892 81.7425 231.932 80.0047 230.434L79.7813 230.576Z" fill="#3C1F52"/>
<path d="M124.247 173.59C124.753 173.577 125.232 173.363 125.58 172.996C125.928 172.63 126.116 172.14 126.103 171.634L125.969 166.551C125.956 166.058 125.748 165.589 125.39 165.25C125.031 164.91 124.553 164.726 124.059 164.739C123.566 164.752 123.098 164.961 122.758 165.319C122.418 165.677 122.235 166.156 122.248 166.649L122.381 171.687C122.381 171.931 122.43 172.173 122.524 172.399C122.618 172.625 122.755 172.83 122.928 173.002C123.102 173.175 123.307 173.312 123.533 173.405C123.759 173.498 124.002 173.546 124.246 173.545L124.247 173.59Z" fill="#DC7CB3"/>
<path d="M115.648 176.406C116.161 176.369 116.64 176.135 116.985 175.754C117.33 175.373 117.515 174.873 117.501 174.359L117.367 169.276C117.354 168.766 117.142 168.281 116.776 167.926C116.41 167.571 115.92 167.373 115.41 167.374C114.904 167.411 114.432 167.637 114.087 168.009C113.743 168.381 113.553 168.869 113.555 169.376L113.689 174.459C113.713 174.97 113.927 175.453 114.29 175.813C114.652 176.174 115.137 176.385 115.648 176.406Z" fill="#DC7CB3"/>
<path d="M112.16 178.495C112.666 178.459 113.139 178.232 113.483 177.86C113.827 177.489 114.017 177 114.015 176.493L113.88 171.365C113.856 170.859 113.64 170.381 113.276 170.028C112.913 169.675 112.429 169.473 111.922 169.464C111.668 169.47 111.418 169.528 111.186 169.633C110.955 169.737 110.746 169.888 110.573 170.074C110.401 170.261 110.267 170.48 110.18 170.719C110.093 170.958 110.055 171.212 110.068 171.466L110.202 176.548C110.202 176.803 110.254 177.054 110.353 177.288C110.452 177.522 110.598 177.734 110.78 177.911C110.962 178.089 111.178 178.227 111.415 178.32C111.652 178.412 111.905 178.456 112.159 178.45L112.16 178.495Z" fill="#DC7CB3"/>
<path d="M105.44 178.537C105.941 178.512 106.414 178.295 106.76 177.931C107.105 177.567 107.297 177.083 107.295 176.581L107.161 171.498C107.148 170.992 106.935 170.513 106.568 170.165C106.201 169.817 105.711 169.629 105.205 169.642C104.7 169.655 104.22 169.869 103.872 170.236C103.524 170.603 103.336 171.093 103.349 171.598L103.484 176.727C103.509 177.228 103.726 177.701 104.091 178.047C104.455 178.392 104.939 178.584 105.441 178.583L105.44 178.537Z" fill="#DC7CB3"/>
<path d="M69.5226 84.1129C66.4386 86.1507 63.8082 88.8028 61.7957 91.9033C59.7832 95.0039 58.4319 98.4864 57.8264 102.133C55.4825 114.865 58.1212 130.555 57.5518 136.519C57.6485 142.686 56.8154 148.832 55.0803 154.75C52.7946 159.352 44.356 170.02 43.4225 179.4C43.0726 181.996 43.3351 184.639 44.1889 187.116C45.0428 189.594 46.4643 191.837 48.3399 193.667C46.8552 189.267 46.7302 184.523 47.9811 180.052C50.188 174.18 58.7833 172.909 59.5556 164.306C60.5457 152.912 60.8356 141.469 60.4238 130.04C60.0482 115.79 58.3662 101.937 66.6043 99.1766C74.8425 96.4163 69.617 84.2466 69.617 84.2466L69.5226 84.1129Z" fill="#F4F4F4"/>
<path d="M55.0832 154.613C55.6855 153.251 56.1205 151.821 56.3788 150.355L60.2568 151.025C60.386 155.926 59.8212 160.346 59.4679 164.17C58.6955 172.774 50.1001 174.045 47.8933 179.916C46.6423 184.388 46.7674 189.132 48.2521 193.531C46.3764 191.702 44.9549 189.458 44.1011 186.981C43.2472 184.504 42.9847 181.861 43.3346 179.264C44.2682 169.884 52.7127 159.444 54.9924 154.615L55.0832 154.613Z" fill="#3C1F52"/>
<path d="M230.652 166.653C229.707 169.871 229.486 173.258 230.005 176.571C230.771 181.065 231.254 185.603 231.453 190.157C229.717 201.928 230.249 213.923 233.02 225.494C229.284 214.43 228.029 202.679 229.343 191.076C229.898 186.847 229.363 182.546 227.787 178.582C227.078 174.513 226.771 170.383 226.872 166.254L226.846 165.255L228.354 165.624L230.652 166.653Z" fill="#F9F9F9"/>
<path d="M417.15 145.816C416.321 142.361 415.69 138.862 415.26 135.336C415.365 131.924 415.295 128.51 415.05 125.106C414.48 114.626 413.79 103.706 408.61 94.5757L397.84 98.9957C403.52 109.706 406.46 123.416 408.44 135.916C408.619 137.796 408.273 139.69 407.44 141.386C406.606 142.99 406.055 144.725 405.81 146.516C405.75 147.029 405.848 147.549 406.09 148.006C406.215 148.233 406.41 148.414 406.646 148.522C406.882 148.63 407.146 148.659 407.4 148.606C407.523 148.549 407.655 148.515 407.79 148.506C408.11 148.506 408.28 148.856 408.46 149.126C408.656 149.374 408.91 149.57 409.199 149.698C409.489 149.825 409.805 149.88 410.121 149.857C410.436 149.835 410.741 149.735 411.01 149.568C411.278 149.4 411.501 149.169 411.66 148.896C411.853 149.227 412.134 149.497 412.473 149.676C412.812 149.855 413.194 149.935 413.576 149.908C413.958 149.881 414.325 149.748 414.635 149.523C414.945 149.298 415.186 148.99 415.33 148.636V149.176C415.518 149.251 415.72 149.286 415.923 149.279C416.126 149.271 416.325 149.222 416.507 149.133C416.69 149.045 416.852 148.919 416.983 148.765C417.114 148.61 417.212 148.43 417.27 148.236C417.455 147.433 417.413 146.596 417.15 145.816Z" fill="#FF8A64"/>
<path d="M435.39 164.146C410.88 158.626 397.09 168.356 397.09 168.356C412.88 170.536 430.89 166.996 435.39 164.146Z" fill="#999DC4"/>
<path d="M397.71 168.566C397.6 168.106 395.06 157.206 400.38 149.636C403.08 145.796 407.38 143.526 413.04 142.906C419.16 142.236 424.11 143.586 427.76 146.906C434.66 153.246 434.49 164.336 434.48 164.806H433.72C433.72 164.696 433.9 153.586 427.25 147.486C423.77 144.286 419.02 142.996 413.13 143.636C407.65 144.236 403.56 146.396 400.99 150.056C395.87 157.346 398.42 168.276 398.45 168.386L397.71 168.566Z" fill="#3D4970"/>
<path d="M397.09 168.356C397.09 168.356 398.96 189.856 406.35 205.906C414.55 208.026 429.2 205.696 433.41 202.546C434.06 199.546 436.41 174.796 435.41 164.146C430.89 166.996 412.88 170.536 397.09 168.356Z" fill="#BDBFE2"/>
<path d="M431.24 165.876C422.013 164.72 412.642 165.772 403.9 168.946C414.53 169.406 425.14 167.766 431.24 165.876Z" fill="white"/>
<path d="M406.35 205.876C414.55 207.996 429.2 205.666 433.41 202.516C433.54 201.926 433.74 200.516 433.96 198.516H433.83C424.452 201.693 414.505 202.838 404.65 201.876C405.18 203.236 405.74 204.586 406.35 205.876Z" fill="#999DC4"/>
<g style="mix-blend-mode:multiply" opacity="0.19">
<g style="mix-blend-mode:multiply" opacity="0.19">
<path d="M411.41 100.876C410.669 98.7082 409.732 96.6129 408.61 94.6157L397.84 99.0357C398.78 100.806 399.63 102.666 400.43 104.576C404.117 103.817 407.702 102.625 411.11 101.026L411.41 100.876Z" fill="#F06361"/>
</g>
</g>
<path d="M362.5 234.616L362.66 237.616L352.16 238.186L352.11 237.186C347.76 239.186 338.21 239.076 335.88 238.856C335.08 238.136 335.79 237.096 335.79 237.096C335.79 237.096 345.52 237.446 352.67 235.446C359.82 233.446 362.5 234.616 362.5 234.616Z" fill="#C17F1F"/>
<path d="M396.85 234.616L397.01 237.616L386.51 238.186L386.46 237.186C382.11 239.186 372.56 239.076 370.23 238.856C369.43 238.136 370.14 237.096 370.14 237.096C370.14 237.096 379.87 237.406 387.02 235.396C394.17 233.386 396.85 234.616 396.85 234.616Z" fill="#C17F1F"/>
<path d="M369.301 59.0757C369.301 59.0757 355.891 59.9357 353.031 65.6157C350.171 71.2957 340.561 88.2757 340.561 88.2757C341.553 90.6585 343.021 92.814 344.875 94.6106C346.728 96.4073 348.928 97.8075 351.341 98.7257C359.341 101.546 358.591 112.876 358.591 112.876L393.871 98.4857C393.871 98.4857 400.431 101.816 410.461 93.1257C406.231 82.4457 395.531 62.0557 387.881 60.3557C380.231 58.6557 379.001 58.3557 379.001 58.3557" fill="#BDBFE2"/>
<path d="M361.94 60.0856L358.04 61.3956C358.04 61.3956 361.96 85.5956 351.36 98.7256C350.83 103.856 349.6 127.466 348.85 129.366C348.1 131.266 342.85 175.236 348.64 208.016C360.34 208.656 360.92 210.276 360.92 210.276C360.92 210.276 359.92 148.276 367.92 134.396L373.45 134.486L384.11 215.746L395.42 214.966L395.15 128.206C395.15 128.206 392.04 104.406 393.85 98.4856C387.564 86.8897 385.92 73.3383 389.25 60.5756C389.25 60.5756 386.58 59.0556 384.95 59.7056C382.58 65.1256 381.76 83.3756 381.76 83.3756L364.12 82.4456C364.12 82.4456 363.73 64.8756 361.94 60.0856Z" fill="#34394D"/>
<path d="M362.661 86.8167L382.493 87.6514L382.004 99.2711C381.893 101.905 380.741 104.387 378.8 106.171C376.859 107.955 374.289 108.895 371.655 108.784C369.021 108.673 366.539 107.521 364.755 105.58C362.971 103.639 362.031 101.069 362.142 98.4351L362.631 86.8154L362.661 86.8167Z" fill="#232838"/>
<path d="M382.321 91.8755H381.841V91.6455H382.331L382.321 91.8755ZM381.321 91.8155H380.751V91.5855H381.321V91.8155ZM380.181 91.7555H379.611V91.5255H380.171L380.181 91.7555ZM379.041 91.6955H378.471V91.4755H379.041V91.6955ZM377.901 91.6255H377.341V91.3955H377.911L377.901 91.6255ZM376.771 91.5655H376.201V91.3355H376.771V91.5655ZM375.631 91.5055H375.061V91.2755H375.631V91.5055ZM374.491 91.4355H373.921V91.2155H374.491V91.4355ZM373.351 91.3755H372.781V91.1455H373.351V91.3755ZM372.211 91.3155H371.641V91.0855H372.211V91.3155ZM371.071 91.2555H370.501V91.0355H371.071V91.2555ZM369.931 91.1855H369.361V90.9555H369.931V91.1855ZM368.791 91.1255H368.221V90.8955H368.791V91.1255ZM367.661 91.0655H367.091V90.8355H367.661V91.0655ZM366.521 91.0055H365.951V90.7855H366.521V91.0055ZM365.381 90.9355H364.811V90.7055H365.381V90.9355ZM364.241 90.8755H363.671V90.6455H364.241V90.8755ZM363.041 90.8755H362.471V90.6455H363.041V90.8755Z" fill="#BDBFE2"/>
<path d="M340.33 93.5557C339.061 101.144 338.94 108.881 339.97 116.506C341.08 124.816 343.85 133.386 350.2 138.846C351.93 136.686 353.63 134.046 353.01 131.346C352.775 130.495 352.439 129.676 352.01 128.906C347.589 119.965 346.871 109.642 350.01 100.176" fill="#FF8A64"/>
<path d="M393.041 94.4956C396.041 93.4956 403.571 90.9156 407.481 87.9756C407.628 87.8639 407.797 87.7853 407.977 87.7453C408.158 87.7053 408.344 87.7047 408.525 87.7436C408.705 87.7826 408.875 87.8601 409.023 87.9709C409.171 88.0817 409.293 88.2232 409.381 88.3856C410.431 90.3856 411.271 91.9256 411.771 92.8156C411.907 93.0682 411.955 93.3594 411.906 93.6424C411.857 93.9253 411.714 94.1835 411.501 94.3756C409.241 96.3756 402.131 101.886 394.181 100.376C393.935 100.324 393.709 100.202 393.531 100.025C393.354 99.8472 393.232 99.6215 393.181 99.3756C392.926 98.2772 392.615 97.1925 392.251 96.1256C392.192 95.9669 392.167 95.7981 392.175 95.6293C392.184 95.4605 392.226 95.2952 392.3 95.1431C392.374 94.991 392.477 94.8553 392.604 94.7441C392.732 94.6329 392.88 94.5483 393.041 94.4956Z" fill="#999DC4"/>
<path d="M359.59 206.736V206.506H359.85V206.736H359.59ZM359.45 205.436C359.45 205.076 359.38 204.726 359.34 204.366H359.61C359.61 204.716 359.68 205.076 359.72 205.426L359.45 205.436ZM359.24 203.296C359.24 202.936 359.17 202.586 359.14 202.226H359.41C359.41 202.576 359.47 202.936 359.51 203.296H359.24ZM359.05 201.156L358.96 200.086H359.23L359.32 201.156H359.05ZM358.88 199.016C358.88 198.656 358.83 198.296 358.81 197.946H359.08C359.08 198.306 359.08 198.656 359.15 199.016H358.88ZM358.74 196.876L358.68 195.796H358.94C358.94 196.146 358.94 196.506 359.01 196.866L358.74 196.876ZM358.62 194.726C358.62 194.366 358.62 194.006 358.57 193.656H358.83L358.89 194.726H358.62ZM358.52 192.576C358.52 192.226 358.52 191.866 358.52 191.506H358.79C358.79 191.866 358.79 192.226 358.79 192.576H358.52ZM358.44 190.436V189.356H358.71V190.426L358.44 190.436ZM358.39 188.286C358.39 187.926 358.39 187.566 358.39 187.216H358.66C358.66 187.576 358.66 187.936 358.66 188.286H358.39ZM358.39 186.136C358.39 185.776 358.39 185.416 358.39 185.066H358.66C358.66 185.416 358.66 185.776 358.66 186.136H358.39ZM358.64 183.986H358.38V182.876H358.65C358.65 183.216 358.65 183.556 358.65 183.876L358.64 183.986ZM358.64 181.846H358.38C358.38 181.486 358.38 181.136 358.38 180.776H358.65C358.63 181.126 358.63 181.486 358.62 181.876L358.64 181.846ZM358.64 179.696H358.37C358.37 179.336 358.37 178.976 358.37 178.626H358.64C358.67 178.976 358.66 179.336 358.66 179.696H358.64ZM358.64 177.546H358.37V176.476H358.64V177.546ZM358.71 175.396H358.44C358.44 175.036 358.44 174.686 358.44 174.326H358.71C358.81 174.686 358.79 175.036 358.78 175.396H358.71ZM358.8 173.256H358.53L358.59 172.176H358.86L358.8 173.256ZM358.92 171.106H358.65L358.71 170.026H358.98L358.92 171.106ZM359.05 168.966H358.78C358.78 168.606 358.83 168.246 358.85 167.896H359.12C359.17 168.246 359.14 168.606 359.12 168.966H359.05ZM359.2 166.826H358.93L359.02 165.746H359.28C359.33 166.106 359.3 166.466 359.27 166.876L359.2 166.826ZM359.37 164.686H359.11L359.2 163.616H359.47C359.51 163.966 359.47 164.326 359.44 164.686H359.37ZM359.57 162.546H359.3C359.3 162.186 359.37 161.836 359.4 161.476H359.67C359.71 161.876 359.67 162.186 359.64 162.546H359.57ZM359.78 160.406H359.51L359.63 159.336H359.89C359.93 159.686 359.89 160.046 359.85 160.406H359.78ZM360.01 158.266H359.75L359.87 157.206H360.14C360.16 157.556 360.12 157.876 360.04 158.266H360.01ZM360.26 156.136H360C360 155.776 360.09 155.416 360.13 155.066H360.4C360.42 155.426 360.38 155.776 360.33 156.136H360.26ZM360.54 154.006H360.27C360.27 153.656 360.37 153.296 360.41 152.946H360.68C360.7 153.296 360.65 153.646 360.61 154.006H360.54ZM360.83 151.876H360.56C360.56 151.516 360.67 151.166 360.72 150.816H360.98L360.83 151.876ZM361.14 149.756H360.88C360.93 149.396 360.99 149.036 361.04 148.686H361.31C361.32 149.036 361.27 149.396 361.21 149.756H361.14ZM361.48 147.626H361.21L361.39 146.566H361.65C361.66 146.876 361.6 147.266 361.55 147.626H361.48ZM361.83 145.506H361.57L361.75 144.446L362.02 144.496C362.04 144.796 361.96 145.146 361.9 145.506H361.83ZM362.21 143.396L361.94 143.346C362.01 142.986 362.08 142.636 362.14 142.286L362.41 142.336C362.41 142.686 362.34 143.036 362.28 143.396H362.21ZM362.61 141.286H362.34C362.42 140.916 362.49 140.566 362.55 140.226L362.82 140.286C362.82 140.566 362.75 140.926 362.68 141.286H362.61ZM363.03 139.176L362.77 139.126C362.85 138.756 362.92 138.406 362.99 138.066L363.26 138.126C363.26 138.456 363.18 138.806 363.1 139.176H363.03ZM363.49 137.076L363.22 137.016C363.307 136.636 363.387 136.302 363.46 136.016L363.73 136.076C363.697 136.362 363.64 136.696 363.56 137.076H363.49ZM363.97 134.986L363.71 134.926C363.88 134.236 363.98 133.876 363.98 133.876L364.24 133.946C364.24 133.946 364.21 134.296 364.04 134.986H363.97Z" fill="#414A68"/>
<path d="M384.85 210.516H384.58C384.58 210.196 384.58 209.836 384.65 209.446H384.92C384.9 209.876 384.88 210.196 384.85 210.516ZM384.94 208.356H384.67V207.286H384.94V208.366V208.356ZM384.65 206.206C384.65 205.866 384.65 205.506 384.65 205.136H384.92C384.92 205.506 384.92 205.866 384.92 206.216L384.65 206.206ZM384.56 204.066C384.56 203.716 384.56 203.356 384.56 202.986H384.83C384.83 203.356 384.83 203.706 384.88 204.056L384.56 204.066ZM384.44 201.876C384.44 201.526 384.44 201.166 384.37 200.806H384.64C384.64 201.166 384.64 201.526 384.71 201.876H384.44ZM384.3 199.726C384.3 199.376 384.25 199.016 384.22 198.656H384.48L384.57 199.726H384.3ZM384.13 197.586L384.04 196.516H384.31L384.4 197.586H384.13ZM383.95 195.446C383.95 195.086 383.88 194.736 383.85 194.376H384.12C384.12 194.736 384.18 195.096 384.22 195.446H383.95ZM383.75 193.306L383.65 192.236H383.92L384.02 193.306H383.75ZM383.55 191.166L383.44 190.096H383.71L383.81 191.166H383.55ZM383.33 189.026C383.33 188.666 383.26 188.306 383.22 187.956H383.49C383.49 188.316 383.56 188.666 383.6 189.026H383.33ZM383.11 186.886L383.04 185.876H383.31C383.31 186.236 383.39 186.586 383.42 186.946L383.11 186.886ZM382.88 184.746L382.76 183.676H383.02L383.14 184.746H382.88ZM382.64 182.606L382.52 181.536H382.78L382.91 182.606H382.64ZM382.4 180.476L382.27 179.406H382.54L382.66 180.466L382.4 180.476ZM382.15 178.336L382.02 177.266H382.29L382.41 178.336H382.15ZM381.89 176.196L381.77 175.136H382.03L382.16 176.206L381.89 176.196ZM381.64 174.066L381.51 172.996H381.77L381.9 174.076L381.64 174.066ZM381.38 171.926L381.24 170.876H381.51L381.64 171.936L381.38 171.926ZM381.11 169.786L380.98 168.726H381.24L381.38 169.796L381.11 169.786ZM380.84 167.666L380.71 166.596H380.97L381.11 167.656L380.84 167.666ZM380.57 165.526L380.43 164.466H380.7L380.84 165.536L380.57 165.526ZM380.3 163.396L380.16 162.326H380.42L380.56 163.396H380.3ZM380.02 161.266L379.88 160.196H380.14L380.28 161.256L380.02 161.266ZM379.74 159.136L379.6 158.066H379.86L380 159.136H379.74ZM379.45 156.996L379.31 155.936H379.58L379.72 157.006L379.45 156.996ZM379.17 154.866L379.04 153.876H379.31L379.46 154.936L379.17 154.866ZM378.88 152.736L378.73 151.666H379L379.15 152.726L378.88 152.736ZM378.59 150.606L378.44 149.536H378.71L378.86 150.596L378.59 150.606ZM378.3 148.476L378.15 147.406H378.41L378.56 148.476H378.3ZM378 146.346L377.85 145.276H378.12L378.27 146.346H378ZM377.7 144.206L377.55 143.146H377.82L377.97 144.216L377.7 144.206ZM377.4 142.076L377.25 141.016H377.52L377.67 142.086L377.4 142.076ZM377.1 139.946L376.95 138.876H377.21L377.37 139.936L377.1 139.946ZM376.79 137.816L376.64 136.746H376.91L377.06 137.816H376.79ZM376.49 135.676L376.33 134.596H376.59L376.75 135.676H376.49Z" fill="#414A68"/>
<path d="M396.04 204.876L381.57 205.656C381.57 205.656 383.57 224.436 382.92 226.656C382.27 228.876 369.56 227.496 370.15 237.236C386.32 238.186 385.6 234.856 396.86 234.676C397.14 225.576 396.04 204.876 396.04 204.876Z" fill="#F6A821"/>
<path d="M361.68 204.876L347.21 205.656C347.21 205.656 349.21 224.436 348.56 226.656C347.91 228.876 335.2 227.496 335.79 237.236C351.96 238.186 351.24 234.856 362.5 234.676C362.79 225.576 361.68 204.876 361.68 204.876Z" fill="#F6A821"/>
<path d="M369.44 45.7656H378.96V60.7656C378.96 61.3907 378.837 62.0097 378.598 62.5872C378.359 63.1647 378.008 63.6894 377.566 64.1315C377.124 64.5735 376.6 64.9241 376.022 65.1633C375.444 65.4025 374.826 65.5256 374.2 65.5256C373.575 65.5256 372.956 65.4025 372.379 65.1633C371.801 64.9241 371.277 64.5735 370.835 64.1315C370.393 63.6894 370.042 63.1647 369.803 62.5872C369.564 62.0097 369.44 61.3907 369.44 60.7656V45.7656Z" fill="#FF8A64"/>
<path d="M396.13 206.876C391.35 207.169 386.564 207.446 381.771 207.706C381.771 208.036 381.84 208.386 381.88 208.776C386.654 208.516 391.424 208.239 396.19 207.946C396.17 207.546 396.15 207.176 396.13 206.876Z" fill="#C17F1F"/>
<path d="M361.771 206.666C356.991 206.946 352.211 207.302 347.431 207.736C347.431 208.056 347.501 208.416 347.531 208.796C352.291 208.376 357.057 208.022 361.831 207.736C361.811 207.336 361.791 206.986 361.771 206.666Z" fill="#C17F1F"/>
<path d="M361.27 133.536C368.054 135.208 375.136 135.273 381.95 133.726C382.31 133.646 382.16 133.096 381.8 133.176C375.085 134.703 368.105 134.638 361.42 132.986C361.353 132.98 361.285 132.999 361.23 133.037C361.175 133.076 361.134 133.133 361.117 133.199C361.099 133.264 361.104 133.333 361.132 133.395C361.16 133.456 361.209 133.506 361.27 133.536Z" fill="#232838"/>
<path d="M368.24 121.936C367.799 126.054 367.582 130.193 367.59 134.336C367.603 134.402 367.638 134.462 367.69 134.505C367.742 134.548 367.807 134.572 367.875 134.572C367.943 134.572 368.008 134.548 368.06 134.505C368.112 134.462 368.148 134.402 368.16 134.336C368.152 130.197 368.369 126.061 368.81 121.946L368.24 121.936Z" fill="#232838"/>
<path d="M373.731 122.126H373.161C372.749 126.138 372.592 130.173 372.69 134.206C372.703 134.272 372.738 134.332 372.79 134.375C372.842 134.418 372.908 134.442 372.976 134.442C373.043 134.442 373.109 134.418 373.161 134.375C373.213 134.332 373.248 134.272 373.261 134.206C373.162 130.173 373.319 126.138 373.731 122.126Z" fill="#232838"/>
<path d="M394.211 119.656H394.041C379.434 122.332 364.474 122.44 349.831 119.976L349.771 120.556C364.504 123.012 379.551 122.91 394.251 120.256L394.211 119.656Z" fill="#232838"/>
<path d="M395.251 144.786C392.531 141.886 391.421 137.206 390.991 133.436C390.624 129.228 390.597 124.998 390.911 120.786C390.911 120.416 390.36 120.416 390.34 120.786C390.012 125.346 390.079 129.927 390.541 134.476C391.031 138.236 392.351 142.826 395.191 145.546H395.251V144.786Z" fill="#232838"/>
<path d="M353.8 120.706C353.72 120.346 353.17 120.506 353.25 120.866C354.14 124.926 353.39 129.256 352.37 133.236C351.583 136.707 349.8 139.873 347.24 142.346L347.17 143.206C349.937 140.704 351.896 137.435 352.8 133.816C354.04 129.676 354.73 124.966 353.8 120.706Z" fill="#232838"/>
<g style="mix-blend-mode:multiply" opacity="0.19">
<g style="mix-blend-mode:multiply" opacity="0.19">
<path d="M369.44 59.5257C372.576 60.0959 375.767 60.3073 378.95 60.1557V51.6657C375.771 51.7595 372.59 51.5822 369.44 51.1357V59.5257Z" fill="#F06361"/>
</g>
</g>
<path d="M364.721 7.01569C364.721 7.01569 365.981 2.74569 368.231 1.15569C370.481 -0.434306 383.231 -0.684306 389.141 2.34569C390.741 4.74569 391.291 9.03569 391.291 9.03569" fill="#FFD347"/>
<path d="M412.345 21.6277C412.967 13.9264 397.482 6.39111 377.758 4.79722C358.034 3.20333 341.54 8.1544 340.918 15.8558C340.296 23.5571 355.781 31.0924 375.505 32.6863C395.229 34.2802 411.723 29.3291 412.345 21.6277Z" fill="#F6A821"/>
<path d="M359.028 19.4919L357.854 37.5437C357.391 44.6642 362.788 50.8118 369.908 51.2748L378.171 51.812C385.291 52.2749 391.439 46.878 391.902 39.7575L393.076 21.7056C393.539 14.5851 388.142 8.4375 381.021 7.97454L372.759 7.43733C365.638 6.97438 359.491 12.3714 359.028 19.4919Z" fill="#FF8A64"/>
<path d="M396.847 33.5608C398.683 31.0309 398.867 28.0333 397.258 26.8655C395.649 25.6977 392.856 26.8019 391.02 29.3318C389.184 31.8617 389 34.8593 390.609 36.0271C392.218 37.1949 395.011 36.0907 396.847 33.5608Z" fill="#FF8A64"/>
<path d="M360.028 34.2358C361.802 33.3382 362.096 30.3494 360.685 27.5602C359.274 24.771 356.691 23.2377 354.917 24.1353C353.143 25.033 352.849 28.0218 354.261 30.811C355.672 33.6002 358.254 35.1335 360.028 34.2358Z" fill="#FF8A64"/>
<g style="mix-blend-mode:multiply" opacity="0.16">
<g style="mix-blend-mode:multiply" opacity="0.16">
<path d="M366.041 19.0658C372.786 19.232 379.514 19.8366 386.181 20.8758C388.494 21.2425 390.791 21.6525 393.071 22.1058V21.7458C393.245 19.0579 392.574 16.3828 391.151 14.0958C381.311 12.4058 371.261 11.5158 361.501 12.7158C360.176 14.5242 359.349 16.6481 359.101 18.8758C361.471 18.9258 363.821 19.0158 366.041 19.0658Z" fill="#993952"/>
</g>
</g>
<path d="M392.63 34.8757C393.11 32.3057 394.03 29.4757 396.78 28.5857C397.11 28.4857 396.97 27.9657 396.64 28.0757C393.7 29.0157 392.64 31.9457 392.11 34.7357C392.04 35.0757 392.56 35.2157 392.63 34.8757Z" fill="#EF7554"/>
<path d="M393.37 31.8757C394.159 31.9549 394.913 32.2375 395.56 32.6957C395.84 32.8857 396.11 32.4257 395.83 32.2257C395.099 31.7242 394.253 31.4179 393.37 31.3357C393.03 31.3357 393.03 31.8357 393.37 31.8757Z" fill="#EF7554"/>
<path d="M355.321 25.2857C356.751 26.8757 357.041 28.8757 357.111 30.8757C357.111 31.2257 357.671 31.2257 357.651 30.8757C357.521 28.7157 357.231 26.5557 355.651 24.8757C355.411 24.6157 355.041 24.9957 355.271 25.2557L355.321 25.2857Z" fill="#EF7554"/>
<path d="M355.15 29.0657C355.945 29.0065 356.738 29.1952 357.42 29.6057C357.451 29.6241 357.485 29.6362 357.521 29.6414C357.556 29.6465 357.593 29.6447 357.627 29.6358C357.662 29.627 357.695 29.6114 357.724 29.5899C357.753 29.5685 357.777 29.5415 357.795 29.5107C357.814 29.4798 357.826 29.4456 357.831 29.4101C357.836 29.3745 357.834 29.3383 357.825 29.3035C357.817 29.2687 357.801 29.2359 357.779 29.2071C357.758 29.1783 357.731 29.1541 357.7 29.1357C356.93 28.682 356.042 28.4695 355.15 28.5257C354.8 28.5257 354.8 29.0857 355.15 29.0657Z" fill="#EF7554"/>
<path d="M359.041 19.8757C359.631 26.4257 359.561 33.5057 359.561 33.5057C361.146 33.3781 362.712 33.0763 364.231 32.6057C366.411 31.8657 373.041 29.1257 380.911 32.3757C388.241 35.3757 389.661 35.6057 389.661 35.6057C389.661 35.6057 392.451 25.2857 392.851 20.4957C392.741 31.1357 400.141 58.1257 373.621 56.0357C347.871 53.5357 356.631 33.6157 359.041 19.8757Z" fill="#993952"/>
<path d="M375.12 30.7656C375.395 29.9159 375.59 29.042 375.7 28.1556C375.96 26.4356 376.03 24.6556 376.15 22.9456C376.21 22.0956 376.52 20.5956 375.93 19.8456C375.66 19.5056 375.13 19.5656 374.7 19.6656C374.525 19.6881 374.363 19.7691 374.24 19.8956C374.161 20.0147 374.116 20.153 374.11 20.2956C373.97 21.5856 373.91 22.8456 373.72 24.1256C373.53 25.4056 373.36 26.9356 373.06 28.3056C372.71 29.9356 371.45 27.6656 370.71 28.4656C370.613 28.5933 370.554 28.7458 370.54 28.9056C370.334 30.1298 370.606 31.3864 371.3 32.4156C371.526 32.8071 371.879 33.1103 372.3 33.2756C372.638 33.349 372.99 33.324 373.314 33.2035C373.639 33.083 373.922 32.872 374.13 32.5956C374.571 32.0523 374.906 31.4317 375.12 30.7656Z" fill="#F06361"/>
<path d="M370.622 26.8482C370.684 25.6111 370.071 24.575 369.254 24.5342C368.436 24.4933 367.724 25.4631 367.662 26.7002C367.6 27.9373 368.212 28.9733 369.03 29.0142C369.847 29.0551 370.56 28.0853 370.622 26.8482Z" fill="#993952"/>
<path d="M381.483 28.1603C381.729 26.9479 381.278 25.8333 380.477 25.6709C379.676 25.5085 378.828 26.3598 378.582 27.5722C378.336 28.7847 378.786 29.8992 379.587 30.0616C380.388 30.224 381.237 29.3728 381.483 28.1603Z" fill="#993952"/>
<path d="M364.8 21.1555C365.264 20.3576 365.989 19.7445 366.853 19.4201C367.717 19.0957 368.666 19.08 369.54 19.3755C369.683 19.397 369.829 19.3654 369.95 19.2867C370.071 19.2079 370.159 19.0875 370.197 18.9482C370.235 18.8089 370.221 18.6605 370.157 18.531C370.093 18.4015 369.984 18.2999 369.85 18.2455C368.726 17.8953 367.517 17.9338 366.418 18.3547C365.319 18.7755 364.393 19.5543 363.79 20.5655C363.39 21.2055 364.4 21.7955 364.79 21.1555H364.8Z" fill="#993952"/>
<path d="M379.911 20.1458C380.736 19.9808 381.592 20.0862 382.352 20.4465C383.112 20.8068 383.736 21.4028 384.131 22.1458C384.491 22.8158 385.501 22.2258 385.131 21.5558C384.607 20.5887 383.784 19.817 382.786 19.3556C381.788 18.8943 380.667 18.7681 379.591 18.9958C378.851 19.1458 379.171 20.2758 379.901 20.1258L379.911 20.1458Z" fill="#993952"/>
<path d="M350.651 16.6057C350.651 16.6057 371.851 11.1557 399.151 19.7057C404.791 13.6157 399.151 10.2357 399.151 10.2357C399.151 10.2357 363.611 -0.184316 354.691 8.74568C345.771 17.6757 350.651 16.6057 350.651 16.6057Z" fill="#F6A821"/>
<path d="M371.65 35.1756C372.117 35.6011 372.696 35.8829 373.319 35.9872C373.942 36.0916 374.581 36.0139 375.161 35.7637C375.74 35.5135 376.236 35.1012 376.587 34.5765C376.938 34.0518 377.13 33.4369 377.14 32.8056C377.14 32.7287 377.11 32.6549 377.055 32.6006C377.001 32.5462 376.927 32.5156 376.85 32.5156C376.773 32.5156 376.7 32.5462 376.645 32.6006C376.591 32.6549 376.56 32.7287 376.56 32.8056C376.562 33.3277 376.412 33.839 376.129 34.2773C375.845 34.7155 375.44 35.0618 374.963 35.2738C374.486 35.4858 373.957 35.5545 373.442 35.4713C372.927 35.3882 372.447 35.1569 372.06 34.8056C371.78 34.5656 371.37 34.9756 371.65 35.2256V35.1756Z" fill="#FF8A64"/>
<g style="mix-blend-mode:multiply" opacity="0.19">
<g style="mix-blend-mode:multiply" opacity="0.19">
<path d="M339.67 98.6057C342.297 101.064 345.537 102.77 349.05 103.546C349.32 102.406 349.63 101.286 350.05 100.176L340.37 93.5557C340.04 95.2257 339.83 96.8757 339.67 98.6057Z" fill="#F06361"/>
</g>
</g>
<path d="M353.51 97.2255C353.651 96.9276 353.703 96.5951 353.659 96.2684C353.614 95.9417 353.476 95.635 353.26 95.3855C350.99 92.7055 343.26 84.1355 341.88 84.7855C339.83 86.0455 337.99 88.7855 338.7 90.7855C339.41 92.7855 343.64 99.2755 350.9 100.256C352.067 99.5449 352.98 98.4847 353.51 97.2255Z" fill="#999DC4"/>
</svg>
