<svg width="339" height="295" viewBox="0 0 339 295" fill="none" xmlns="http://www.w3.org/2000/svg">
<path d="M54.5 179L30.8403 181.213L39.5484 189.938L19.3999 210.114C19.1226 210.372 18.9 210.683 18.7454 211.029C18.5909 211.375 18.5076 211.749 18.5005 212.128C18.4934 212.507 18.5627 212.884 18.7042 213.235C18.8457 213.587 19.0565 213.906 19.3241 214.174C19.5916 214.442 19.9103 214.654 20.2612 214.795C20.6121 214.937 20.988 215.007 21.3663 215C21.7445 214.992 22.1175 214.909 22.4628 214.754C22.8082 214.599 23.1188 214.376 23.3761 214.098L43.5131 193.887L52.291 202.682L54.5 179Z" fill="#89D757"/>
<path d="M248.5 288C278.323 288 302.5 285.09 302.5 281.5C302.5 277.91 278.323 275 248.5 275C218.677 275 194.5 277.91 194.5 281.5C194.5 285.09 218.677 288 248.5 288Z" fill="#BDE0CE"/>
<path d="M25.5 290C38.7548 290 49.5 288.881 49.5 287.5C49.5 286.119 38.7548 285 25.5 285C12.2452 285 1.5 286.119 1.5 287.5C1.5 288.881 12.2452 290 25.5 290Z" fill="#BDE0CE"/>
<path d="M160.98 143.995C159.662 144.018 158.367 143.661 157.26 142.969C156.153 142.277 155.285 141.281 154.765 140.11C154.246 138.939 154.1 137.644 154.345 136.392C154.59 135.139 155.216 133.986 156.142 133.079C157.068 132.172 158.252 131.553 159.544 131.3C160.836 131.047 162.177 131.172 163.395 131.659C164.613 132.146 165.653 132.973 166.383 134.034C167.112 135.096 167.498 136.343 167.491 137.618C167.537 138.46 167.4 139.302 167.09 140.09C166.78 140.879 166.304 141.596 165.691 142.196C165.078 142.796 164.343 143.266 163.531 143.576C162.72 143.886 161.851 144.029 160.98 143.995ZM160.98 134.389C159.238 134.389 158.248 135.542 158.248 137.583C158.248 139.624 159.238 140.778 160.98 140.778C162.721 140.778 163.663 139.624 163.663 137.583C163.663 135.542 162.721 134.389 160.98 134.389ZM142.446 143.557L160.157 114.391H164.689L147.026 143.557H142.446ZM146.203 126.777C144.893 126.796 143.607 126.437 142.509 125.747C141.41 125.057 140.549 124.068 140.033 122.903C139.518 121.739 139.372 120.453 139.614 119.208C139.856 117.963 140.475 116.816 141.393 115.912C142.311 115.009 143.486 114.389 144.768 114.133C146.051 113.876 147.383 113.994 148.597 114.471C149.81 114.948 150.849 115.763 151.582 116.813C152.316 117.862 152.71 119.099 152.715 120.365C152.765 121.21 152.632 122.056 152.325 122.849C152.017 123.641 151.541 124.362 150.928 124.966C150.314 125.57 149.577 126.043 148.763 126.355C147.95 126.667 147.077 126.811 146.203 126.777ZM146.203 117.171C144.497 117.171 143.519 118.324 143.519 120.365C143.519 122.407 144.497 123.594 146.203 123.594C147.908 123.594 148.934 122.383 148.934 120.365C148.934 118.347 147.944 117.171 146.203 117.171Z" fill="#FFBF5F"/>
<path d="M292.5 85H182.898L204.597 106.737L104.5 209.816L157.9 270L263.476 165.719L292.5 194.805V85Z" fill="#B3ED8E"/>
<path d="M158.321 261L112.5 208.892L212.361 105.163L196.384 89H286.5V180.105L263.188 156.54L158.321 261ZM118.549 209.031L158.505 254.491L263.153 150.216L282.001 169.268V93.4903H207.036L218.514 105.093L118.549 209.031Z" fill="#C5FFA1"/>
<path d="M186.5 194.142L152.697 160L104.5 210.05L157.256 270L159.421 267.836L186.5 194.142Z" fill="#89D757"/>
<path d="M187.49 193.427L128.401 134.338L27.7173 235.022L86.8062 294.111L187.49 193.427Z" fill="#BFF39E"/>
<path d="M131 212C142.874 212 152.5 202.374 152.5 190.5C152.5 178.626 142.874 169 131 169C119.126 169 109.5 178.626 109.5 190.5C109.5 202.374 119.126 212 131 212Z" fill="#89D757"/>
<path d="M87.5 265C90.8137 265 93.5 262.09 93.5 258.5C93.5 254.91 90.8137 252 87.5 252C84.1863 252 81.5 254.91 81.5 258.5C81.5 262.09 84.1863 265 87.5 265Z" fill="#89D757"/>
<path d="M62 243C65.5899 243 68.5 239.642 68.5 235.5C68.5 231.358 65.5899 228 62 228C58.4102 228 55.5 231.358 55.5 235.5C55.5 239.642 58.4102 243 62 243Z" fill="#89D757"/>
<path d="M181.311 186.474L86.9511 280.618L41.8659 235.346L136.238 141.203L133.06 138L35.5 235.335L86.9395 287L184.5 189.666L181.311 186.474Z" fill="#C5FFA1"/>
<path d="M231.09 238.165C228.868 237.931 226.728 237.16 224.841 235.912L223.5 234.944L225.959 227.336L228.284 228.888C229.897 229.928 231.754 230.481 233.65 230.487H233.817C235.371 230.487 237.171 229.763 237.171 227.919C237.171 226.939 236.824 225.761 233.191 224.314C228.72 222.564 224.092 219.973 223.992 213.987C223.964 211.809 224.618 209.681 225.855 207.927C227.092 206.172 228.844 204.887 230.844 204.267L230.743 201.152L237.953 201L238.032 203.66C239.79 203.888 241.49 204.467 243.04 205.364L244.638 206.298L242.067 213.812L239.831 212.54C238.426 211.702 236.833 211.267 235.215 211.28H235.025C233.27 211.28 232.275 212.039 232.286 213.252C232.286 214.151 232.633 214.909 236.757 216.613C240.882 218.316 245.387 220.918 245.499 227.418C245.534 229.697 244.852 231.925 243.558 233.76C242.263 235.596 240.428 236.938 238.334 237.581L238.434 240.848L231.179 241L231.09 238.165Z" fill="#FFCD00"/>
<path d="M338.5 139L314.781 141.207L323.507 149.953L303.329 170.189C302.934 170.583 302.664 171.085 302.555 171.633C302.445 172.181 302.501 172.749 302.714 173.265C302.928 173.781 303.29 174.221 303.754 174.53C304.219 174.839 304.764 175.003 305.321 175C306.067 175 306.782 174.706 307.313 174.183L327.491 153.958L336.287 162.774L338.5 139Z" fill="#FFBF5F"/>
<path d="M327.5 193L303.789 195.146L312.516 203.648L292.324 223.321C292.062 223.575 291.855 223.877 291.714 224.209C291.573 224.541 291.5 224.897 291.5 225.256C291.5 225.616 291.573 225.972 291.714 226.304C291.855 226.636 292.062 226.938 292.324 227.192C292.585 227.448 292.895 227.651 293.237 227.79C293.579 227.929 293.946 228 294.316 228C294.686 228 295.053 227.929 295.395 227.79C295.737 227.651 296.047 227.448 296.308 227.192L316.489 207.53L325.286 216.101L327.5 193Z" fill="#B3ED8E"/>
<path d="M259.5 36L235.789 38.2069L244.516 46.9529L224.313 67.189C223.923 67.5848 223.658 68.0871 223.552 68.6329C223.446 69.1787 223.503 69.7438 223.715 70.2574C223.928 70.771 224.287 71.2103 224.748 71.5203C225.209 71.8303 225.75 71.9971 226.305 71.9999C226.676 72.0028 227.043 71.9309 227.386 71.7885C227.728 71.646 228.038 71.436 228.298 71.1709L248.489 50.9465L257.286 59.7625L259.5 36Z" fill="#FFBF5F"/>
<path d="M170.504 24.4284C170.417 19.6829 171.769 15.0187 174.388 11.0257C177.008 7.03273 180.777 3.89016 185.219 1.99538C189.662 0.100596 194.578 -0.461324 199.346 0.380688C204.115 1.2227 208.521 3.43083 212.009 6.72587C215.496 10.0209 217.908 14.2549 218.939 18.8925C219.97 23.53 219.574 28.363 217.801 32.7802C216.028 37.1974 212.958 41.0005 208.979 43.7086C205 46.4167 200.291 47.9083 195.446 47.9947C192.226 48.0611 189.024 47.5033 186.025 46.3532C183.026 45.2031 180.289 43.4835 177.971 41.2933C175.653 39.1031 173.8 36.4856 172.518 33.5912C171.237 30.6969 170.552 27.5829 170.504 24.4284Z" fill="#FEE488"/>
<path d="M174.503 24.3254C174.437 20.3736 175.573 16.4913 177.766 13.1687C179.96 9.84615 183.114 7.23226 186.83 5.65706C190.545 4.08187 194.656 3.61599 198.642 4.31826C202.629 5.02052 206.313 6.85943 209.229 9.60282C212.146 12.3462 214.163 15.8711 215.028 19.7324C215.892 23.5937 215.565 27.6183 214.086 31.2981C212.608 34.9779 210.045 38.1479 206.722 40.4079C203.398 42.6678 199.463 43.9164 195.413 43.9959C192.714 44.049 190.032 43.5817 187.519 42.6209C185.007 41.6601 182.713 40.2248 180.771 38.3972C178.828 36.5696 177.274 34.3858 176.198 31.971C175.123 29.5562 174.547 26.958 174.503 24.3254Z" fill="#FFBF5F"/>
<path d="M194.988 45.9883C189.094 45.9862 183.436 43.7223 179.231 39.6835C175.026 35.6447 172.611 30.1537 172.504 24.3917C172.448 21.5029 172.976 18.6317 174.057 15.9423C175.137 13.253 176.749 10.7983 178.801 8.71865C180.852 6.63898 183.303 4.97514 186.013 3.82229C188.723 2.66944 191.639 2.05021 194.594 2H195C200.894 2.00806 206.55 4.27357 210.755 8.31077C214.96 12.348 217.381 17.8355 217.496 23.5966C217.605 29.4292 215.341 35.0654 211.201 39.2664C207.061 43.4674 201.384 45.8894 195.419 46L194.988 45.9883ZM194.988 2.78342H194.594C191.745 2.83513 188.935 3.43519 186.323 4.54934C183.712 5.66349 181.351 7.26988 179.375 9.27665C177.399 11.2834 175.847 13.6513 174.808 16.2448C173.768 18.8383 173.262 21.6067 173.317 24.3917C173.397 28.5667 174.737 32.6255 177.167 36.059C179.598 39.4925 183.012 42.1476 186.98 43.6913C190.949 45.2351 195.295 45.5986 199.474 44.7362C203.653 43.8739 207.478 41.8242 210.47 38.8442C213.462 35.8643 215.487 32.0868 216.291 27.9858C217.096 23.8849 216.643 19.643 214.991 15.7925C213.338 11.9419 210.56 8.65431 207.003 6.34203C203.447 4.02976 199.271 2.79584 195 2.7951L194.988 2.78342Z" fill="#FFBF5F"/>
<path d="M192.022 35.9148C190.405 35.7388 188.848 35.1779 187.472 34.2756L186.5 33.5765L188.294 28.0561L189.985 29.177C191.149 29.9468 192.495 30.3641 193.874 30.3824H194.002C195.159 30.3824 196.444 29.852 196.421 28.5141C196.421 27.803 196.178 26.9472 193.539 25.8986C190.274 24.6933 186.917 22.7527 186.836 18.4135C186.812 16.8318 187.288 15.2857 188.189 14.0122C189.09 12.7386 190.367 11.8078 191.825 11.3624L191.756 9.09643L196.988 9L197.058 10.9285C198.333 11.0843 199.567 11.4935 200.693 12.1338L201.851 12.8209L199.975 18.2568L198.366 17.3408C197.346 16.7274 196.187 16.411 195.009 16.4248H194.87C193.597 16.4248 192.867 16.9672 192.879 17.8591C192.879 18.51 193.133 19.0644 196.155 20.2697C199.176 21.4751 202.418 23.3915 202.499 28.1043C202.526 29.758 202.03 31.375 201.089 32.7075C200.148 34.04 198.813 35.0142 197.289 35.4809L197.371 37.8915L192.092 38L192.022 35.9148Z" fill="#FEE488"/>
<path d="M0.503917 238.428C0.417293 233.683 1.76909 229.019 4.38838 225.026C7.00767 221.033 10.7768 217.89 15.2192 215.995C19.6617 214.101 24.578 213.539 29.3464 214.381C34.1149 215.223 38.5214 217.431 42.0088 220.726C45.4962 224.021 47.9078 228.255 48.9389 232.892C49.9699 237.53 49.574 242.363 47.8012 246.78C46.0285 251.197 42.9584 255 38.9792 257.709C35.0001 260.417 30.2905 261.908 25.446 261.995C22.2261 262.061 19.0245 261.503 16.0254 260.353C13.0264 259.203 10.2891 257.484 7.97107 255.293C5.65301 253.103 3.7999 250.486 2.5184 247.591C1.23689 244.697 0.552279 241.583 0.503917 238.428Z" fill="#FEE488"/>
<path d="M4.50271 238.325C4.43681 234.374 5.57253 230.491 7.76648 227.169C9.96044 223.846 13.1143 221.232 16.8298 219.657C20.5453 218.082 24.6558 217.616 28.6425 218.318C32.6291 219.021 36.3132 220.859 39.2295 223.603C42.1457 226.346 44.1634 229.871 45.0279 233.732C45.8923 237.594 45.5647 241.618 44.0864 245.298C42.6081 248.978 40.0454 252.148 36.7219 254.408C33.3984 256.668 29.463 257.916 25.4127 257.996C22.7145 258.049 20.0321 257.582 17.5195 256.621C15.0068 255.66 12.7133 254.225 10.7706 252.397C8.82782 250.57 7.27407 248.386 6.19849 245.971C5.1229 243.556 4.54662 240.958 4.50271 238.325Z" fill="#FFBF5F"/>
<path d="M24.9881 259.988C19.0936 259.986 13.4355 257.722 9.23073 253.683C5.02596 249.645 2.61051 244.154 2.50396 238.392C2.4485 235.503 2.97609 232.632 4.05655 229.942C5.13701 227.253 6.74914 224.798 8.80075 222.719C10.8524 220.639 13.3031 218.975 16.013 217.822C18.7229 216.669 21.6387 216.05 24.5935 216H25.0001C30.8939 216.008 36.5498 218.274 40.7551 222.311C44.9605 226.348 47.3805 231.835 47.4963 237.597C47.6051 243.429 45.3407 249.065 41.2009 253.266C37.061 257.467 31.3844 259.889 25.4187 260L24.9881 259.988ZM24.9881 216.783H24.5935C21.7449 216.835 18.9346 217.435 16.3233 218.549C13.712 219.663 11.351 221.27 9.37504 223.277C7.39911 225.283 5.84704 227.651 4.80761 230.245C3.76817 232.838 3.26172 235.607 3.31721 238.392C3.39731 242.567 4.73675 246.626 7.16746 250.059C9.59817 253.492 13.0119 256.148 16.9803 257.691C20.9487 259.235 25.2951 259.599 29.474 258.736C33.653 257.874 37.4783 255.824 40.4702 252.844C43.462 249.864 45.4871 246.087 46.2913 241.986C47.0955 237.885 46.6431 233.643 44.9907 229.792C43.3383 225.942 40.5595 222.654 37.0031 220.342C33.4467 218.03 29.2711 216.796 25.0001 216.795L24.9881 216.783Z" fill="#FFBF5F"/>
<path d="M22.0221 249.915C20.4049 249.739 18.8482 249.178 17.4724 248.276L16.5 247.576L18.2944 242.056L19.9846 243.177C21.1487 243.947 22.4954 244.364 23.8743 244.382H24.0017C25.1594 244.382 26.4444 243.852 26.4212 242.514C26.4212 241.803 26.1781 240.947 23.5386 239.899C20.274 238.693 16.9167 236.753 16.8357 232.414C16.8122 230.832 17.2875 229.286 18.1887 228.012C19.09 226.739 20.3674 225.808 21.8253 225.362L21.7558 223.096L26.9885 223L27.0579 224.929C28.3325 225.084 29.5666 225.494 30.693 226.134L31.8507 226.821L29.9753 232.257L28.3661 231.341C27.3462 230.727 26.1866 230.411 25.0089 230.425H24.87C23.5965 230.425 22.8672 230.967 22.8787 231.859C22.8787 232.51 23.1335 233.064 26.155 234.27C29.1765 235.475 32.4179 237.392 32.499 242.104C32.5255 243.758 32.0304 245.375 31.0893 246.708C30.1483 248.04 28.8134 249.014 27.2895 249.481L27.3705 251.892L22.0915 252L22.0221 249.915Z" fill="#FEE488"/>
<path d="M246.503 245.359C246.431 241.388 247.562 237.485 249.754 234.144C251.945 230.803 255.099 228.173 258.816 226.588C262.533 225.003 266.647 224.532 270.637 225.237C274.627 225.942 278.314 227.789 281.232 230.546C284.15 233.303 286.168 236.846 287.03 240.726C287.893 244.607 287.562 248.651 286.079 252.347C284.595 256.043 282.026 259.225 278.697 261.491C275.367 263.757 271.427 265.005 267.373 265.077C264.679 265.133 262 264.666 259.491 263.704C256.981 262.741 254.691 261.303 252.751 259.47C250.812 257.637 249.261 255.447 248.189 253.025C247.117 250.604 246.544 247.998 246.503 245.359Z" fill="#FEE488"/>
<path d="M249.849 245.272C249.794 241.966 250.744 238.717 252.58 235.937C254.416 233.157 257.055 230.97 260.164 229.652C263.273 228.334 266.712 227.944 270.048 228.532C273.384 229.119 276.466 230.658 278.906 232.953C281.346 235.249 283.035 238.198 283.758 241.429C284.481 244.66 284.207 248.028 282.97 251.107C281.733 254.186 279.589 256.838 276.808 258.729C274.027 260.62 270.734 261.665 267.345 261.731C265.088 261.776 262.843 261.385 260.741 260.581C258.638 259.777 256.719 258.576 255.094 257.047C253.468 255.517 252.168 253.69 251.268 251.67C250.368 249.649 249.886 247.475 249.849 245.272Z" fill="#FFBF5F"/>
<path d="M266.99 263.399C262.058 263.397 257.324 261.502 253.805 258.123C250.287 254.744 248.266 250.149 248.177 245.328C248.13 242.911 248.572 240.508 249.476 238.258C250.38 236.008 251.729 233.954 253.446 232.214C255.162 230.474 257.213 229.081 259.48 228.117C261.748 227.152 264.187 226.634 266.66 226.592H267C271.932 226.599 276.664 228.494 280.183 231.872C283.702 235.251 285.727 239.842 285.823 244.663C285.914 249.543 284.02 254.259 280.556 257.774C277.092 261.289 272.342 263.316 267.35 263.408L266.99 263.399ZM266.99 227.248H266.66C264.276 227.291 261.925 227.793 259.74 228.725C257.555 229.657 255.579 231.002 253.926 232.681C252.273 234.36 250.974 236.341 250.104 238.511C249.235 240.681 248.811 242.998 248.857 245.328C248.924 248.821 250.045 252.217 252.079 255.09C254.113 257.963 256.969 260.185 260.29 261.477C263.61 262.768 267.247 263.072 270.744 262.351C274.24 261.629 277.441 259.914 279.944 257.421C282.448 254.927 284.142 251.767 284.815 248.335C285.488 244.904 285.109 241.355 283.727 238.133C282.344 234.911 280.019 232.16 277.043 230.225C274.068 228.29 270.574 227.258 267 227.257L266.99 227.248Z" fill="#FFBF5F"/>
<path d="M264.508 254.97C263.155 254.822 261.853 254.353 260.701 253.598L259.888 253.013L261.389 248.394L262.803 249.332C263.777 249.976 264.904 250.325 266.058 250.34H266.165C267.133 250.34 268.209 249.897 268.189 248.777C268.189 248.182 267.986 247.466 265.777 246.589C263.046 245.58 260.236 243.956 260.169 240.326C260.149 239.002 260.547 237.708 261.301 236.643C262.055 235.577 263.124 234.798 264.344 234.426L264.285 232.53L268.664 232.449L268.722 234.063C269.788 234.193 270.821 234.535 271.764 235.071L272.732 235.646L271.163 240.195L269.817 239.428C268.963 238.915 267.993 238.65 267.007 238.662H266.891C265.826 238.662 265.215 239.115 265.225 239.862C265.225 240.406 265.438 240.87 267.966 241.879C270.495 242.887 273.207 244.491 273.275 248.434C273.297 249.818 272.883 251.171 272.095 252.286C271.308 253.401 270.191 254.216 268.916 254.606L268.983 256.624L264.566 256.714L264.508 254.97Z" fill="#FEE488"/>
<path d="M200.318 222.146C200.194 215.33 202.135 208.632 205.897 202.897C209.659 197.162 215.072 192.648 221.453 189.927C227.833 187.206 234.894 186.399 241.742 187.608C248.591 188.817 254.92 191.989 259.928 196.721C264.937 201.454 268.401 207.534 269.882 214.195C271.362 220.856 270.794 227.797 268.248 234.141C265.702 240.485 261.292 245.947 255.577 249.837C249.862 253.726 243.098 255.868 236.141 255.992C231.516 256.088 226.918 255.287 222.61 253.635C218.303 251.983 214.372 249.513 211.043 246.368C207.713 243.222 205.052 239.463 203.211 235.306C201.371 231.149 200.388 226.676 200.318 222.146Z" fill="#FEE488"/>
<path d="M206.062 221.998C205.967 216.322 207.599 210.746 210.75 205.974C213.901 201.203 218.43 197.448 223.766 195.186C229.103 192.924 235.006 192.255 240.732 193.263C246.458 194.272 251.749 196.913 255.937 200.853C260.126 204.793 263.024 209.856 264.265 215.401C265.507 220.947 265.036 226.727 262.913 232.012C260.79 237.297 257.109 241.85 252.336 245.096C247.563 248.342 241.911 250.135 236.093 250.249C232.218 250.325 228.366 249.654 224.757 248.274C221.148 246.894 217.854 244.833 215.064 242.208C212.274 239.583 210.042 236.447 208.498 232.979C206.953 229.511 206.125 225.779 206.062 221.998Z" fill="#FFBF5F"/>
<path d="M235.483 253.111C227.017 253.108 218.891 249.856 212.852 244.056C206.813 238.255 203.344 230.369 203.191 222.093C203.111 217.944 203.869 213.821 205.42 209.958C206.972 206.096 209.288 202.57 212.234 199.583C215.181 196.596 218.701 194.207 222.593 192.551C226.484 190.895 230.672 190.006 234.916 189.934H235.5C243.965 189.945 252.088 193.199 258.128 198.998C264.168 204.796 267.643 212.677 267.809 220.951C267.966 229.328 264.714 237.423 258.768 243.457C252.822 249.49 244.669 252.969 236.101 253.128L235.483 253.111ZM235.483 191.059H234.916C230.825 191.133 226.789 191.995 223.038 193.595C219.288 195.195 215.897 197.503 213.059 200.385C210.221 203.267 207.992 206.668 206.499 210.393C205.006 214.117 204.279 218.093 204.359 222.093C204.474 228.09 206.397 233.919 209.888 238.85C213.379 243.781 218.282 247.595 223.982 249.812C229.681 252.029 235.924 252.551 241.926 251.313C247.927 250.074 253.421 247.13 257.718 242.85C262.015 238.571 264.924 233.145 266.079 227.255C267.234 221.365 266.584 215.273 264.211 209.743C261.838 204.213 257.847 199.491 252.739 196.17C247.631 192.849 241.634 191.077 235.5 191.076L235.483 191.059Z" fill="#FFBF5F"/>
<path d="M231.223 238.643C228.9 238.39 226.665 237.585 224.689 236.289L223.292 235.285L225.869 227.356L228.297 228.966C229.969 230.072 231.903 230.671 233.883 230.697H234.066C235.729 230.697 237.574 229.935 237.541 228.014C237.541 226.993 237.192 225.763 233.401 224.257C228.712 222.526 223.891 219.739 223.774 213.507C223.741 211.236 224.423 209.015 225.718 207.186C227.012 205.357 228.847 204.02 230.94 203.38L230.841 200.126L238.356 199.987L238.456 202.757C240.286 202.981 242.059 203.569 243.676 204.488L245.339 205.475L242.646 213.282L240.334 211.967C238.87 211.086 237.204 210.631 235.513 210.651H235.313C233.484 210.651 232.437 211.43 232.453 212.711C232.453 213.646 232.819 214.442 237.159 216.173C241.498 217.904 246.154 220.657 246.27 227.425C246.308 229.8 245.597 232.123 244.246 234.037C242.894 235.95 240.977 237.35 238.788 238.02L238.905 241.482L231.323 241.638L231.223 238.643Z" fill="#FEE488"/>
</svg>
