<svg width="288" height="256" viewBox="0 0 288 256" fill="none" xmlns="http://www.w3.org/2000/svg">
<path d="M134.356 252.951C152.772 241.957 167.086 217.897 164.975 196.142C164.608 192.274 163.592 188.22 160.153 185.996C157.16 184.058 153.246 185.274 150.394 186.797C140.755 191.934 134.577 204.945 135.592 215.519C135.719 216.788 137.676 216.822 137.596 215.519C137.081 207.942 133.915 200.789 128.652 195.313C124.724 191.152 117.871 187.091 112.24 190.297C107.358 193.076 107.431 200.263 108.46 204.992C109.622 210.336 112.795 215.426 116.108 219.687C130.135 237.795 156.726 245.864 178.748 241.062C191.139 238.356 201.759 230.655 207.577 219.326C208.165 218.177 206.435 217.169 205.847 218.318C193.857 241.696 164.528 244.368 142.205 235.892C130.849 231.583 120.476 223.902 114.204 213.402C110.864 207.838 107.852 200.043 111.419 193.944C113.717 189.99 118.566 191.065 121.946 192.708C126.241 194.799 129.5 198.934 131.845 202.968C134.053 206.814 135.338 211.119 135.599 215.546H137.602C136.614 205.273 142.458 193.804 151.416 188.527C154.568 186.664 158.576 186.216 160.967 189.449C163.639 193.083 163.345 198.994 163.078 203.275C161.916 221.978 149.338 241.676 133.348 251.221C133.118 251.356 132.952 251.576 132.885 251.833C132.818 252.091 132.856 252.364 132.99 252.594C133.125 252.823 133.345 252.99 133.603 253.057C133.86 253.124 134.133 253.086 134.363 252.951H134.356Z" fill="white"/>
<path d="M27.551 66.399C27.551 66.399 14.5193 58.4236 3.93891 62.9122C-6.64145 67.4009 6.02292 76.2112 19.1615 70.9277C19.1615 70.9277 10.0306 84.4671 15.4744 88.5149C20.9183 92.5626 28.406 79.6578 27.551 66.399ZM3.61829 67.8818C-1.19096 64.8359 17.7188 61.7968 23.9975 66.9934C23.9975 66.9934 11.5602 72.9115 3.61829 67.8818V67.8818ZM16.0355 83.1044C17.1042 73.3123 26.3888 67.0736 26.3888 67.0736C26.7695 76.5986 14.9935 92.9033 16.0355 83.1044Z" fill="#EE366C"/>
<path d="M118.607 255.416C117.997 255.416 117.401 255.242 116.886 254.916C116.372 254.589 115.961 254.123 115.701 253.572L21.5197 53.5407C21.319 53.1574 21.1979 52.7374 21.1637 52.3061C21.1295 51.8748 21.183 51.441 21.321 51.0309C21.4589 50.6208 21.6784 50.2429 21.9663 49.9199C22.2541 49.5968 22.6044 49.3354 22.996 49.1514C23.3875 48.9673 23.8123 48.8644 24.2447 48.8489C24.6771 48.8333 25.1082 48.9055 25.5119 49.0609C25.9157 49.2164 26.2839 49.452 26.5942 49.7535C26.9045 50.0551 27.1505 50.4163 27.3176 50.8154L121.499 250.84C121.728 251.329 121.83 251.868 121.796 252.406C121.761 252.945 121.592 253.467 121.303 253.923C121.014 254.378 120.615 254.754 120.143 255.015C119.67 255.276 119.14 255.414 118.6 255.416H118.607Z" fill="#0E448A"/>
<g style="mix-blend-mode:multiply" opacity="0.5">
<path d="M71.5283 159.718L115.7 253.572C116.062 254.342 116.715 254.936 117.516 255.224C118.316 255.513 119.198 255.471 119.968 255.109C120.738 254.746 121.332 254.093 121.62 253.293C121.908 252.492 121.867 251.61 121.504 250.84L71.5283 144.669V159.718Z" fill="#0E448A"/>
</g>
<path d="M22.8819 56.5866C26.4823 56.5866 29.4011 53.6679 29.4011 50.0674C29.4011 46.467 26.4823 43.5482 22.8819 43.5482C19.2814 43.5482 16.3627 46.467 16.3627 50.0674C16.3627 53.6679 19.2814 56.5866 22.8819 56.5866Z" fill="#15314F"/>
<path d="M21.379 43.7352C20.0669 44.0483 18.8846 44.7615 17.9957 45.776C17.1068 46.7906 16.5552 48.0564 16.4173 49.3982C16.2794 50.74 16.5619 52.0915 17.2259 53.2657C17.8898 54.4399 18.9023 55.3786 20.1232 55.9521C24.0775 55.4511 27.2837 51.9444 26.3018 47.7029C25.6939 45.0845 23.5231 44.0091 21.379 43.7352Z" fill="#0E448A"/>
<path d="M19.9298 50.7086C21.0439 50.7086 21.947 49.8055 21.947 48.6914C21.947 47.5773 21.0439 46.6742 19.9298 46.6742C18.8157 46.6742 17.9126 47.5773 17.9126 48.6914C17.9126 49.8055 18.8157 50.7086 19.9298 50.7086Z" fill="#366599"/>
<path d="M87.847 188.574C87.847 188.574 79.6179 185.234 70.6473 186.196C61.6767 187.158 57.5287 200.176 80.9137 193.503C80.9137 193.503 75.6168 201.579 77.6942 210.717C79.7715 219.854 89.3432 209.581 87.847 188.574ZM67.4812 189.082C74.2609 186.036 83.4653 189.082 83.4653 189.082C73.0519 197.251 60.7081 192.128 67.4678 189.082H67.4812ZM78.9766 205.573C78.9766 197.718 86.0102 190.21 86.0102 190.21C85.1886 213.589 78.9699 213.442 78.9766 205.573Z" fill="#498FEB"/>
<path d="M192.409 131.431C179.437 123.255 136.18 157.013 110.331 181.12C92.5298 197.718 87.8875 194.966 86.7854 192.622C86.7854 192.622 26.0552 66.833 24.6658 63.1994C23.2765 59.5657 24.6658 60.2136 24.6658 60.2136C25.7679 62.5581 29.1344 63.8206 48.2111 48.7115C67.2879 33.6024 123.209 1.18001 136.18 9.37579L192.409 131.431Z" fill="#FFBF5F"/>
<path d="M34.0701 83.131C51.4769 119.481 86.7782 192.602 86.7782 192.602C87.8803 194.946 92.5226 197.698 110.323 181.1C136.173 156.993 179.43 123.235 192.401 131.411L144.663 27.7912H144.369C144.369 27.7912 108.213 25.2263 68.3627 60.6277C47.7764 78.8562 39.0263 82.8572 34.0701 83.131Z" fill="#FFBF5F"/>
<path d="M44.9307 105.748C63.0722 143.487 86.7845 192.582 86.7845 192.582C87.8867 194.926 92.5289 197.678 110.33 181.079C136.18 156.973 179.436 123.215 192.408 131.39L154.208 48.5043C146.666 48.1302 115.006 48.8316 81.3341 82.6099C59.0979 104.926 49.8802 106.609 44.9307 105.748Z" fill="#FFBF5F"/>
<path d="M86.7854 192.602C87.8876 194.946 92.5298 197.698 110.331 181.1C136.18 156.993 179.437 123.235 192.409 131.411L164.241 70.2864C157.021 69.2644 126.749 67.6813 92.5565 104.626C72.705 126.087 61.0893 128.492 55.552 127.81C71.142 160.199 86.7854 192.602 86.7854 192.602Z" fill="#498FEB"/>
<path d="M110.331 181.1C136.18 156.993 179.437 123.235 192.409 131.411L173.586 90.552C170.373 90.0845 140.402 86.9985 101.814 127.47C83.6392 146.533 72.3241 149.993 66.199 149.92C77.5542 173.472 86.7853 192.602 86.7853 192.602C87.8874 194.946 92.5296 197.698 110.331 181.1Z" fill="#498FEB"/>
<path d="M192.408 131.431L184.192 113.603C175.154 113.376 148.603 115.781 115.68 146.754C90.0105 170.9 81.5209 173.338 76.9387 172.269L86.7576 192.622C87.8597 194.966 92.502 197.718 110.303 181.12C136.179 156.993 179.436 123.235 192.408 131.431Z" fill="#E94A47"/>
<g style="mix-blend-mode:multiply" opacity="0.2">
<path d="M156.807 143.748C165.049 138.304 172.838 134.002 179.25 131.791C177.914 121.492 175.95 106.823 173.906 91.2334L136.18 9.37583C127.958 4.1992 102.469 15.3073 80.0725 27.9783C117.277 70.0393 145.525 121.679 156.807 143.748Z" fill="#6964E4"/>
</g>
<path d="M191.553 129.066C194.118 132.593 191.226 138.524 180.325 145.578C170.092 152.197 164.294 157.113 165.844 159.358L162.504 155.257L110.484 39.7008C108.934 37.4565 114.732 32.5403 124.965 25.9209C135.859 18.8673 138.758 12.9359 136.193 9.40914C136.193 9.40914 137.943 9.27555 139.867 14.3921C141.791 19.5086 191.553 129.066 191.553 129.066Z" fill="#E94A47"/>
<path d="M287.952 131.03C264.447 122.908 229.666 125.907 197.11 147.061C180.759 157.695 172.056 162.784 167.64 160.593C165.583 159.571 163.927 158.59 161.682 153.433C159.438 148.276 110.497 39.634 110.497 39.634C115.173 41.1302 122.467 37.4765 138.818 26.8427C171.401 5.65526 219.914 -5.45278 243.42 2.66283L287.952 131.03Z" fill="#FFBF5F"/>
<path d="M167.614 160.627C172.029 162.818 180.732 157.728 197.084 147.094C229.666 125.907 264.447 122.908 287.925 131.063L250.086 21.9666L249.044 21.6126C228.624 16.1688 204.077 17.6583 169.45 36.2541C149.859 46.7744 128.204 62.8119 120.69 62.3043C135.164 94.4461 160.099 149.806 161.675 153.44C163.9 158.596 165.556 159.605 167.614 160.627Z" fill="#FFBF5F"/>
<path d="M197.084 147.094C229.666 125.907 264.447 122.908 287.925 131.063L256.972 41.7982L255.917 41.3974C235.491 35.9536 210.944 37.4431 176.324 56.0389C157.862 65.9513 137.643 79.9316 129.08 80.9936C143.173 112.314 160.346 150.461 161.656 153.466C163.9 158.596 165.556 159.605 167.614 160.627C172.029 162.824 180.732 157.728 197.084 147.094Z" fill="#FFBF5F"/>
<path d="M197.084 147.094C229.667 125.907 264.447 122.908 287.925 131.063L265.128 65.3034L263.532 64.936C243.113 59.4855 218.565 60.9817 183.945 79.5775C167.026 88.655 149.038 101.5 139.647 104.499C150.594 128.819 160.661 151.209 161.649 153.473C163.893 158.603 165.55 159.612 167.607 160.634C172.029 162.824 180.732 157.728 197.084 147.094Z" fill="#498FEB"/>
<path d="M197.084 147.094C229.666 125.907 264.447 122.908 287.925 131.063L272.088 85.342C251.916 80.2856 227.669 82.089 193.757 100.304C176.063 109.802 158.008 123.682 149.305 125.96C155.951 140.735 160.981 151.903 161.649 153.473C163.893 158.603 165.55 159.612 167.607 160.634C172.029 162.824 180.732 157.728 197.084 147.094Z" fill="#498FEB"/>
<path d="M197.083 147.094C229.666 125.907 264.446 122.908 287.925 131.063L279.749 107.511C260.178 102.836 236.199 101.132 204.217 118.305C185.187 128.525 165.569 144.356 157.761 144.857C159.892 149.606 161.288 152.732 161.628 153.5C163.873 158.63 165.529 159.638 167.587 160.66C172.028 162.824 180.732 157.728 197.083 147.094Z" fill="#E94A47"/>
<path d="M211.619 58.9779C211.619 58.9779 213.115 40.4823 222.974 35.5394C232.833 30.5966 242.906 36.5681 243.547 53.6677C244.188 70.7672 227.57 93.2104 227.57 93.2104C227.57 93.2104 199.516 89.2762 187.766 72.564C176.017 55.8519 193.778 40.5892 211.619 58.9779Z" fill="white"/>
</svg>
