<svg width="385" height="225" viewBox="0 0 385 225" fill="none" xmlns="http://www.w3.org/2000/svg">
<path d="M26.4998 78C58.8998 51.2 144.666 76.8333 183.5 93C154.833 111.667 127.9 139.5 249.5 101.5C401.5 54 425.5 208 319 221.5C212.5 235 214 191 97.4998 199.5C-19.0002 208 -14.0002 111.5 26.4998 78Z" fill="#E8F7FC"/>
<path d="M338.428 0H118.573C117.316 -2.16782e-08 116.071 0.246059 114.909 0.724123C113.748 1.20219 112.692 1.90289 111.803 2.78622C110.914 3.66955 110.209 4.7182 109.728 5.87228C109.247 7.02637 109 8.26328 109 9.51238V132.49C109 135.013 110.009 137.431 111.804 139.215C113.6 140.998 116.035 142 118.573 142H338.428C340.966 142 343.401 140.998 345.196 139.215C346.991 137.431 348 135.012 348 132.49V9.51238C348 8.26332 347.753 7.02643 347.272 5.87235C346.791 4.71827 346.086 3.66961 345.197 2.78627C344.308 1.90293 343.253 1.20221 342.091 0.724139C340.93 0.246065 339.685 -4.87834e-08 338.428 0V0ZM250.97 15.3384C250.97 15.9427 250.85 16.5411 250.617 17.0994C250.384 17.6578 250.043 18.1651 249.613 18.5924C249.183 19.0197 248.672 19.3587 248.11 19.5899C247.548 19.8211 246.946 19.9401 246.338 19.9399H209.572C208.344 19.9388 207.167 19.4534 206.299 18.5906C205.432 17.7278 204.944 16.558 204.944 15.3384V13.0349C204.945 11.8148 205.434 10.6449 206.302 9.78206C207.171 8.9192 208.348 8.43382 209.576 8.43241H246.342C246.95 8.43241 247.553 8.55147 248.115 8.78277C248.677 9.01408 249.188 9.35311 249.618 9.78051C250.048 10.2079 250.389 10.7153 250.622 11.2737C250.854 11.8321 250.974 12.4305 250.974 13.0349L250.97 15.3384Z" fill="#E7E5E4"/>
<path d="M336.049 3H120.948C119.105 3.00071 117.338 3.73759 116.035 5.0486C114.732 6.35962 114 8.13743 114 9.99113V131.009C114 132.863 114.732 134.641 116.036 135.952C117.339 137.263 119.107 138 120.951 138H336.049C337.893 138 339.661 137.263 340.964 135.952C342.268 134.641 343 132.863 343 131.009V9.99113C343 9.07304 342.82 8.16394 342.471 7.31574C342.122 6.46754 341.61 5.69684 340.964 5.04766C340.319 4.39847 339.553 3.88351 338.709 3.53217C337.866 3.18083 336.962 3 336.049 3V3ZM242.717 16.0072H214.28C213.565 15.9943 212.883 15.6994 212.382 15.1861C211.881 14.6728 211.6 13.982 211.6 13.2625C211.6 12.5431 211.881 11.8523 212.382 11.339C212.883 10.8257 213.565 10.5308 214.28 10.5179H242.717C243.433 10.5308 244.114 10.8257 244.615 11.339C245.117 11.8523 245.397 12.5431 245.397 13.2625C245.397 13.982 245.117 14.6728 244.615 15.1861C244.114 15.6994 243.433 15.9943 242.717 16.0072V16.0072Z" fill="#F5F5F5"/>
<path d="M218.814 91.001H217.97C217.434 91.001 217 91.4352 217 91.9708V115.989C217 116.525 217.434 116.959 217.97 116.959H218.814C219.35 116.959 219.784 116.525 219.784 115.989V91.9708C219.784 91.4352 219.35 91.001 218.814 91.001Z" fill="#1B2E34"/>
<path d="M233.981 91.001H230.325C229.497 91.001 228.825 91.6726 228.825 92.5011V115.459C228.825 116.287 229.497 116.959 230.325 116.959H233.981C234.81 116.959 235.481 116.287 235.481 115.459V92.5011C235.481 91.6726 234.81 91.001 233.981 91.001Z" fill="#1B2E34"/>
<path d="M225.509 116.959C225.394 116.959 225.283 116.913 225.202 116.832C225.121 116.75 225.075 116.64 225.075 116.525V91.4341C225.075 91.3194 225.121 91.2094 225.202 91.1283C225.284 91.0472 225.394 91.0017 225.509 91.0017V91.0017C225.623 91.0017 225.733 91.0472 225.815 91.1283C225.896 91.2094 225.942 91.3194 225.942 91.4341V116.525C225.942 116.64 225.896 116.75 225.815 116.832C225.734 116.913 225.623 116.959 225.509 116.959Z" fill="#1B2E34"/>
<path d="M243.232 91H242.244C241.842 91 241.517 91.3259 241.517 91.7278V116.23C241.517 116.632 241.842 116.958 242.244 116.958H243.232C243.634 116.958 243.96 116.632 243.96 116.23V91.7278C243.96 91.3259 243.634 91 243.232 91Z" fill="#1B2E34"/>
<path d="M239.292 91.001H238.448C237.912 91.001 237.478 91.4352 237.478 91.9708V115.989C237.478 116.525 237.912 116.959 238.448 116.959H239.292C239.828 116.959 240.262 116.525 240.262 115.989V91.9708C240.262 91.4352 239.828 91.001 239.292 91.001Z" fill="#1B2E34"/>
<path d="M251.94 91.001H250.432C249.809 91.001 249.304 91.5061 249.304 92.1292V115.831C249.304 116.454 249.809 116.959 250.432 116.959H251.94C252.563 116.959 253.068 116.454 253.068 115.831V92.1292C253.068 91.5061 252.563 91.001 251.94 91.001Z" fill="#1B2E34"/>
<path d="M245.988 116.959C245.874 116.958 245.764 116.913 245.683 116.831C245.601 116.75 245.556 116.64 245.556 116.525V91.4341C245.556 91.3195 245.602 91.2097 245.683 91.1286C245.764 91.0476 245.874 91.0019 245.988 91.0017C246.103 91.0017 246.213 91.0472 246.294 91.1283C246.376 91.2094 246.421 91.3194 246.422 91.4341V116.525C246.422 116.64 246.376 116.75 246.295 116.832C246.213 116.913 246.103 116.959 245.988 116.959Z" fill="#1B2E34"/>
<path d="M271.596 91.001H270.751C270.216 91.001 269.781 91.4352 269.781 91.9708V115.989C269.781 116.525 270.216 116.959 270.751 116.959H271.596C272.131 116.959 272.566 116.525 272.566 115.989V91.9708C272.566 91.4352 272.131 91.001 271.596 91.001Z" fill="#1B2E34"/>
<path d="M284.605 91.001H282.796C282.139 91.001 281.606 91.5336 281.606 92.1906V115.769C281.606 116.426 282.139 116.959 282.796 116.959H284.605C285.262 116.959 285.795 116.426 285.795 115.769V92.1906C285.795 91.5336 285.262 91.001 284.605 91.001Z" fill="#1B2E34"/>
<path d="M278.287 116.959C278.172 116.959 278.061 116.913 277.98 116.832C277.899 116.75 277.853 116.64 277.853 116.525V91.4341C277.854 91.3194 277.899 91.2094 277.981 91.1283C278.062 91.0472 278.172 91.0017 278.287 91.0017C278.401 91.0017 278.511 91.0472 278.593 91.1283C278.674 91.2094 278.72 91.3194 278.72 91.4341V116.525C278.72 116.64 278.674 116.75 278.593 116.832C278.512 116.913 278.402 116.959 278.287 116.959Z" fill="#1B2E34"/>
<path d="M296.013 91H295.025C294.623 91 294.297 91.3259 294.297 91.7278V116.23C294.297 116.632 294.623 116.958 295.025 116.958H296.013C296.415 116.958 296.741 116.632 296.741 116.23V91.7278C296.741 91.3259 296.415 91 296.013 91Z" fill="#1B2E34"/>
<path d="M292.073 91.001H291.229C290.693 91.001 290.259 91.4352 290.259 91.9708V115.989C290.259 116.525 290.693 116.959 291.229 116.959H292.073C292.609 116.959 293.043 116.525 293.043 115.989V91.9708C293.043 91.4352 292.609 91.001 292.073 91.001Z" fill="#1B2E34"/>
<path d="M304.72 91.001H303.212C302.589 91.001 302.084 91.5061 302.084 92.1292V115.831C302.084 116.454 302.589 116.959 303.212 116.959H304.72C305.343 116.959 305.848 116.454 305.848 115.831V92.1292C305.848 91.5061 305.343 91.001 304.72 91.001Z" fill="#1B2E34"/>
<path d="M298.768 116.959C298.653 116.959 298.543 116.913 298.461 116.832C298.38 116.75 298.334 116.64 298.334 116.525V91.4341C298.335 91.3194 298.38 91.2094 298.462 91.1283C298.543 91.0472 298.653 91.0017 298.768 91.0017C298.883 91.0017 298.993 91.0472 299.074 91.1283C299.155 91.2094 299.201 91.3194 299.201 91.4341V116.525C299.201 116.64 299.155 116.75 299.074 116.832C298.993 116.913 298.883 116.959 298.768 116.959Z" fill="#1B2E34"/>
<path d="M256.858 91.001H255.806C255.241 91.001 254.783 91.4591 254.783 92.0242V115.936C254.783 116.501 255.241 116.959 255.806 116.959H256.858C257.423 116.959 257.881 116.501 257.881 115.936V92.0242C257.881 91.4591 257.423 91.001 256.858 91.001Z" fill="#1B2E34"/>
<path d="M276.4 91H275.412C275.01 91 274.685 91.3259 274.685 91.7278V116.23C274.685 116.632 275.01 116.958 275.412 116.958H276.4C276.802 116.958 277.128 116.632 277.128 116.23V91.7278C277.128 91.3259 276.802 91 276.4 91Z" fill="#1B2E34"/>
<path d="M265.25 91.001H264.405C263.87 91.001 263.436 91.4352 263.436 91.9708V115.989C263.436 116.525 263.87 116.959 264.405 116.959H265.25C265.785 116.959 266.22 116.525 266.22 115.989V91.9708C266.22 91.4352 265.785 91.001 265.25 91.001Z" fill="#1B2E34"/>
<path d="M271.945 116.959C271.83 116.959 271.72 116.913 271.639 116.832C271.558 116.75 271.512 116.64 271.512 116.525V91.4341C271.512 91.3194 271.558 91.2094 271.639 91.1283C271.72 91.0472 271.83 91.0017 271.945 91.0017V91.0017C272.002 91.0017 272.058 91.0129 272.111 91.0346C272.163 91.0563 272.211 91.0882 272.251 91.1284C272.291 91.1685 272.323 91.2162 272.345 91.2686C272.366 91.3211 272.378 91.3773 272.378 91.4341V116.525C272.378 116.582 272.367 116.638 272.345 116.691C272.323 116.744 272.292 116.791 272.251 116.832C272.211 116.872 272.163 116.904 272.111 116.926C272.058 116.947 272.002 116.959 271.945 116.959V116.959Z" fill="#1B2E34"/>
<path d="M202 29H129V116H202V29Z" fill="white"/>
<path d="M219 51H293" stroke="#D1D3D4" stroke-width="4" stroke-linecap="round" stroke-linejoin="round"/>
<path d="M247 61H309" stroke="#D1D3D4" stroke-width="4" stroke-linecap="round" stroke-linejoin="round"/>
<path d="M219 61H238" stroke="#D1D3D4" stroke-width="4" stroke-linecap="round" stroke-linejoin="round"/>
<path d="M219 71H302" stroke="#D1D3D4" stroke-width="4" stroke-linecap="round" stroke-linejoin="round"/>
<path d="M219 82H293" stroke="#D1D3D4" stroke-width="4" stroke-linecap="round" stroke-linejoin="round"/>
<path d="M273.279 32H222.721C220.666 32 219 33.567 219 35.5C219 37.433 220.666 39 222.721 39H273.279C275.334 39 277 37.433 277 35.5C277 33.567 275.334 32 273.279 32Z" fill="#395A63"/>
<path d="M316.291 32H287.709C285.661 32 284 33.567 284 35.5C284 37.433 285.661 39 287.709 39H316.291C318.339 39 320 37.433 320 35.5C320 33.567 318.339 32 316.291 32Z" fill="#395A63"/>
<path d="M129 24H143" stroke="#D1D3D4" stroke-width="2" stroke-linecap="round" stroke-linejoin="round"/>
<path d="M147 24H151" stroke="#D1D3D4" stroke-width="2" stroke-linecap="round" stroke-linejoin="round"/>
<path d="M147.876 61.288C147.876 61.288 145.087 52.5468 152.188 49.0938C159.289 45.6408 177.876 48.9153 177.876 48.9153C177.876 48.9153 180.046 61.2154 177.748 62.822C175.449 64.4285 147.876 61.288 147.876 61.288Z" fill="#373C44"/>
<path d="M152.135 66.1618C152.69 63.8176 151.24 61.4668 148.896 60.9114C146.552 60.3559 144.201 61.806 143.645 64.1503C143.09 66.4946 144.54 68.8453 146.884 69.4008C149.229 69.9562 151.579 68.5061 152.135 66.1618Z" fill="#CE8282"/>
<path d="M181.932 69.1649C184.159 68.2472 185.221 65.6975 184.304 63.4699C183.386 61.2423 180.836 60.1805 178.609 61.0982C176.381 62.0158 175.319 64.5656 176.237 66.7931C177.154 69.0207 179.704 70.0826 181.932 69.1649Z" fill="#CE8282"/>
<path d="M169.71 80.9849L168.973 71.2954L161.409 72.333L160.171 86.5018C162.057 86.2963 163.88 85.6995 165.522 84.7496C167.165 83.7996 168.591 82.5174 169.71 80.9849V80.9849Z" fill="#D19582"/>
<path d="M175.74 69.7894C175.316 70.7098 175.098 71.7139 174.624 72.5785C173.971 73.7411 172.905 74.6158 171.637 75.0291C170.369 75.4424 168.992 75.3641 167.779 74.8098C167.102 74.3851 166.373 74.0495 165.609 73.8113C165.246 73.7458 164.872 73.7619 164.515 73.8584C164.158 73.9548 163.827 74.1293 163.545 74.3691C163.077 74.7764 162.759 75.3621 162.223 75.6633C161.828 75.8557 161.391 75.9476 160.951 75.9311C159.863 75.9479 158.788 75.6942 157.822 75.1927C156.856 74.6913 156.03 73.9579 155.418 73.0582C154.23 71.3848 153.482 69.41 152.032 67.9318C151.218 67.1547 150.302 66.4922 149.31 65.9626C149.31 66.0742 149.337 66.1858 149.349 66.3029C149.856 70.8827 152.043 74.8712 156.199 77.0858C160.355 79.3004 166.039 80.0925 170.474 78.2684C172.149 77.6178 173.673 76.6322 174.953 75.3718C176.234 74.1114 177.244 72.6028 177.921 70.9385C178.435 69.6115 178.796 68.2304 178.997 66.8217C178.276 67.0601 177.614 67.4476 177.053 67.9589C176.491 68.4702 176.044 69.0938 175.74 69.7894V69.7894Z" fill="#373C44"/>
<path d="M179.248 57.9466C178.478 42.4613 165.86 42.69 165.86 42.69C165.86 42.69 149.031 41.3958 149.126 60.9924C149.001 62.6562 149.061 64.3287 149.304 65.9793C150.297 66.5089 151.213 67.1714 152.026 67.9485C154.101 70.0627 154.815 73.3985 157.342 74.9883C158.374 75.6072 159.553 75.9368 160.756 75.9422C161.341 76.0036 161.929 75.8702 162.43 75.5628C162.754 75.2574 163.053 74.9252 163.322 74.5699C163.627 74.2572 164.005 74.0267 164.423 73.8999C164.84 73.7731 165.283 73.7541 165.71 73.8447C166.427 74.088 167.114 74.4138 167.757 74.8154C168.969 75.3909 170.356 75.4803 171.632 75.0654C172.908 74.6504 173.977 73.7625 174.618 72.584C175.104 71.6971 175.321 70.693 175.734 69.7949C176.039 69.1036 176.486 68.4839 177.045 67.9756C177.604 67.4674 178.263 67.0819 178.981 66.844C179.369 63.8947 179.458 60.9139 179.248 57.9466V57.9466Z" fill="#E5B5A3"/>
<path d="M135.961 115.615C135.961 115.615 141.422 88.7944 164.94 88.7944C188.458 88.7944 191.526 115.615 191.526 115.615H135.961Z" fill="#BFD6D8"/>
<path d="M160.171 86.5019L159.613 92.7384C159.613 92.7384 159.886 92.599 164.929 93.1958C169.972 93.7927 170.335 89.291 170.335 89.291L169.699 80.9626C168.583 82.498 167.16 83.7837 165.519 84.7375C163.879 85.6913 162.057 86.2922 160.171 86.5019V86.5019Z" fill="#E5B5A3"/>
<path d="M158.029 64.1106C158.029 64.9641 157.683 65.6613 157.259 65.6613C156.835 65.6613 156.483 64.9641 156.483 64.1106C156.483 63.2571 156.829 62.5598 157.259 62.5598C157.688 62.5598 158.029 63.2571 158.029 64.1106Z" fill="#373C44"/>
<path d="M171.59 65.9236C172.018 65.9236 172.365 65.2293 172.365 64.3728C172.365 63.5163 172.018 62.822 171.59 62.822C171.161 62.822 170.814 63.5163 170.814 64.3728C170.814 65.2293 171.161 65.9236 171.59 65.9236Z" fill="#373C44"/>
<path d="M165.793 65.1482C165.487 65.3434 165.18 65.5331 164.895 65.706C164.611 65.879 164.337 66.1467 164.304 66.3308C164.304 66.4089 164.337 66.4981 164.466 66.6097C164.573 66.7152 164.703 66.7953 164.845 66.844C165.006 66.8818 165.173 66.8865 165.336 66.8577C165.499 66.8289 165.655 66.7673 165.793 66.6767C165.683 66.8413 165.531 66.9735 165.352 67.0598C165.174 67.1461 164.976 67.1833 164.778 67.1675C164.574 67.1332 164.382 67.0468 164.22 66.9165C164.118 66.8479 164.034 66.7549 163.977 66.6458C163.919 66.5367 163.89 66.415 163.891 66.2917C163.934 66.0667 164.062 65.8668 164.248 65.7339C164.398 65.6137 164.563 65.5143 164.739 65.4383C165.072 65.2832 165.428 65.1851 165.793 65.1482V65.1482Z" fill="#373C44"/>
<path d="M162.804 70.258C163.142 70.474 163.499 70.6606 163.869 70.8158C164.222 70.9708 164.6 71.0615 164.985 71.0836C165.369 71.1086 165.753 71.0356 166.1 70.8716C166.462 70.703 166.802 70.4933 167.116 70.2468C167.003 70.4231 166.88 70.5926 166.748 70.7545C166.6 70.9109 166.433 71.0477 166.251 71.1617C165.877 71.4051 165.436 71.5224 164.99 71.4964C164.556 71.4704 164.133 71.3452 163.754 71.1306C163.375 70.916 163.05 70.6175 162.804 70.258V70.258Z" fill="#373C44"/>
<path d="M156.483 70.0402C157.383 70.0402 158.112 69.3109 158.112 68.4113C158.112 67.5117 157.383 66.7825 156.483 66.7825C155.584 66.7825 154.854 67.5117 154.854 68.4113C154.854 69.3109 155.584 70.0402 156.483 70.0402Z" fill="#CE8282"/>
<path d="M172.164 70.4083C173.064 70.4083 173.793 69.6791 173.793 68.7795C173.793 67.8799 173.064 67.1506 172.164 67.1506C171.265 67.1506 170.535 67.8799 170.535 68.7795C170.535 69.6791 171.265 70.4083 172.164 70.4083Z" fill="#CE8282"/>
<path d="M169.297 61.288C169.495 60.7585 169.842 60.2974 170.295 59.9603C170.763 59.6012 171.321 59.3774 171.907 59.3132C172.507 59.2402 173.114 59.3635 173.637 59.6647C173.888 59.8024 174.118 59.9773 174.317 60.1835C174.505 60.3934 174.666 60.6257 174.797 60.8752C174.239 60.7357 173.787 60.5516 173.324 60.4847C172.897 60.3925 172.458 60.3718 172.025 60.4233C171.077 60.5737 170.158 60.8652 169.297 61.288V61.288Z" fill="#373C44"/>
<path d="M159.763 60.8751C158.985 60.2216 157.989 59.885 156.974 59.9324C156.472 59.9591 155.972 60.0243 155.479 60.1276C155.228 60.2001 154.955 60.2392 154.687 60.3061C154.407 60.3792 154.122 60.4333 153.834 60.4679C154.018 60.2359 154.22 60.0177 154.436 59.8152C154.67 59.6302 154.916 59.4607 155.173 59.3076C155.716 59.0093 156.321 58.8413 156.941 58.8167C157.593 58.7863 158.238 58.9705 158.776 59.3411C159.038 59.5149 159.26 59.7408 159.43 60.0048C159.6 60.2688 159.714 60.5651 159.763 60.8751V60.8751Z" fill="#373C44"/>
<path d="M169.235 68.4782C167.885 68.997 166.954 65.7839 165.33 67.039C165.33 67.039 165.275 67.0892 165.051 67.039V66.9944H164.962H164.873V67.039C164.655 67.0781 164.594 67.039 164.594 67.039C162.921 65.7839 162.017 68.997 160.689 68.4782C161.9 69.4321 162.703 69.7055 164.979 68.5117C167.216 69.7055 168.019 69.4321 169.235 68.4782Z" fill="#373C44"/>
<path d="M178.774 60.5907C176.677 60.0329 175.076 49.1329 171.589 48.9544C168.103 48.7759 156.734 59.8042 150.453 54.8005C144.172 49.7968 145.433 43.5044 146.621 43.0303C147.809 42.5561 148.294 45.6019 148.294 45.6019C148.294 45.6019 147.932 42.2549 149.282 42.0095C150.632 41.764 150.81 44.9436 150.81 44.9436C150.81 44.9436 150.024 41.0388 152.244 40.9942C154.464 40.9496 153.265 44.7651 153.265 44.7651C153.265 44.7651 167.93 35.6391 172.393 42.6733C181.641 44.6034 180.866 61.1486 178.774 60.5907Z" fill="#373C44"/>
<path d="M172.164 43.1863C172.164 43.1863 172.722 40.0904 173.497 40.0067C174.272 39.923 172.828 42.7958 172.828 42.7958C172.828 42.7958 174.133 41.1223 174.501 41.6076C174.869 42.093 172.822 43.6103 172.164 43.1863Z" fill="#373C44"/>
<path d="M159.976 88.7385L164.94 93.2011L162.151 98.6567C162.151 98.6567 157.343 94.8579 157.577 89.7705C160.282 85.3079 160.148 86.7973 160.148 86.7973L159.976 88.7385Z" fill="#A9B7B7"/>
<path d="M170.217 88.7385L164.94 93.2011L168.047 98.6567C168.047 98.6567 172.855 94.8579 172.621 89.7705C169.916 85.3079 170.049 86.7973 170.049 86.7973L170.217 88.7385Z" fill="#A9B7B7"/>
<path d="M165.565 98.6514C165.565 98.8053 165.504 98.9529 165.395 99.0616C165.286 99.1704 165.139 99.2316 164.985 99.2316C164.831 99.2316 164.683 99.1704 164.574 99.0616C164.466 98.9529 164.405 98.8053 164.405 98.6514C164.405 98.4976 164.466 98.35 164.574 98.2412C164.683 98.1324 164.831 98.0713 164.985 98.0713C165.139 98.0713 165.286 98.1324 165.395 98.2412C165.504 98.35 165.565 98.4976 165.565 98.6514V98.6514Z" fill="white"/>
<path d="M165.565 108.185C165.565 108.295 165.532 108.403 165.471 108.494C165.41 108.586 165.322 108.658 165.221 108.7C165.119 108.742 165.006 108.753 164.898 108.732C164.79 108.71 164.691 108.657 164.613 108.579C164.535 108.501 164.481 108.402 164.46 108.293C164.438 108.185 164.449 108.073 164.492 107.971C164.534 107.869 164.605 107.782 164.697 107.721C164.789 107.659 164.897 107.627 165.007 107.627C165.155 107.627 165.297 107.685 165.401 107.79C165.506 107.895 165.565 108.037 165.565 108.185Z" fill="white"/>
<path d="M286.428 32H66.5734C65.316 32 64.071 32.2461 62.9094 32.7241C61.7478 33.2022 60.6923 33.9029 59.8033 34.7862C58.9144 35.6695 58.2092 36.7182 57.7282 37.8723C57.2472 39.0264 56.9998 40.2633 57 41.5124V164.49C57.0002 167.013 58.009 169.431 59.8043 171.215C61.5996 172.998 64.0345 174 66.5734 174H286.428C288.966 174 291.401 172.998 293.196 171.215C294.991 169.431 296 167.012 296 164.49V41.5124C296 40.2633 295.753 39.0264 295.272 37.8724C294.791 36.7183 294.086 35.6696 293.197 34.7863C292.308 33.9029 291.253 33.2022 290.091 32.7241C288.93 32.2461 287.685 32 286.428 32V32ZM198.97 47.3384C198.97 47.9427 198.85 48.5411 198.617 49.0994C198.384 49.6578 198.043 50.1651 197.613 50.5924C197.183 51.0197 196.672 51.3587 196.11 51.5899C195.548 51.8211 194.946 51.9401 194.338 51.9399H157.572C156.344 51.9388 155.167 51.4534 154.299 50.5906C153.432 49.7278 152.944 48.558 152.944 47.3384V45.0349C152.945 43.8148 153.434 42.6449 154.302 41.7821C155.171 40.9192 156.348 40.4338 157.576 40.4324H194.342C194.95 40.4324 195.553 40.5515 196.115 40.7828C196.677 41.0141 197.188 41.3531 197.618 41.7805C198.048 42.2079 198.389 42.7153 198.622 43.2737C198.854 43.8321 198.974 44.4305 198.974 45.0349L198.97 47.3384Z" fill="#E7E5E4"/>
<path d="M284.049 35H68.948C67.1051 35.0007 65.3378 35.7376 64.0349 37.0486C62.7319 38.3596 62 40.1374 62 41.9911V163.009C62 164.863 62.7323 166.641 64.0358 167.952C65.3393 169.263 67.1073 170 68.9507 170H284.049C285.893 170 287.661 169.263 288.964 167.952C290.268 166.641 291 164.863 291 163.009V41.9911C291 41.073 290.82 40.1639 290.471 39.3157C290.122 38.4675 289.61 37.6968 288.964 37.0477C288.319 36.3985 287.553 35.8835 286.709 35.5322C285.866 35.1808 284.962 35 284.049 35V35ZM190.717 48.0072H162.28C161.565 47.9943 160.883 47.6994 160.382 47.1861C159.881 46.6728 159.6 45.982 159.6 45.2625C159.6 44.5431 159.881 43.8523 160.382 43.339C160.883 42.8257 161.565 42.5308 162.28 42.5179H190.717C191.433 42.5308 192.114 42.8257 192.615 43.339C193.117 43.8523 193.397 44.5431 193.397 45.2625C193.397 45.982 193.117 46.6728 192.615 47.1861C192.114 47.6994 191.433 47.9943 190.717 48.0072V48.0072Z" fill="#F5F5F5"/>
<path d="M166.814 123.001H165.97C165.434 123.001 165 123.435 165 123.971V147.989C165 148.525 165.434 148.959 165.97 148.959H166.814C167.35 148.959 167.784 148.525 167.784 147.989V123.971C167.784 123.435 167.35 123.001 166.814 123.001Z" fill="#1B2E34"/>
<path d="M181.981 123.001H178.325C177.497 123.001 176.825 123.673 176.825 124.501V147.459C176.825 148.287 177.497 148.959 178.325 148.959H181.981C182.81 148.959 183.481 148.287 183.481 147.459V124.501C183.481 123.673 182.81 123.001 181.981 123.001Z" fill="#1B2E34"/>
<path d="M173.509 148.959C173.394 148.959 173.283 148.913 173.202 148.832C173.121 148.75 173.075 148.64 173.075 148.525V123.434C173.075 123.319 173.121 123.209 173.202 123.128C173.284 123.047 173.394 123.002 173.509 123.002V123.002C173.623 123.002 173.733 123.047 173.815 123.128C173.896 123.209 173.942 123.319 173.942 123.434V148.525C173.942 148.64 173.896 148.75 173.815 148.832C173.734 148.913 173.623 148.959 173.509 148.959Z" fill="#1B2E34"/>
<path d="M191.232 123H190.244C189.842 123 189.517 123.326 189.517 123.728V148.23C189.517 148.632 189.842 148.958 190.244 148.958H191.232C191.634 148.958 191.96 148.632 191.96 148.23V123.728C191.96 123.326 191.634 123 191.232 123Z" fill="#1B2E34"/>
<path d="M187.292 123.001H186.448C185.912 123.001 185.478 123.435 185.478 123.971V147.989C185.478 148.525 185.912 148.959 186.448 148.959H187.292C187.828 148.959 188.262 148.525 188.262 147.989V123.971C188.262 123.435 187.828 123.001 187.292 123.001Z" fill="#1B2E34"/>
<path d="M199.94 123.001H198.432C197.809 123.001 197.304 123.506 197.304 124.129V147.831C197.304 148.454 197.809 148.959 198.432 148.959H199.94C200.563 148.959 201.068 148.454 201.068 147.831V124.129C201.068 123.506 200.563 123.001 199.94 123.001Z" fill="#1B2E34"/>
<path d="M193.988 148.959C193.874 148.958 193.764 148.913 193.683 148.831C193.601 148.75 193.556 148.64 193.556 148.525V123.434C193.556 123.32 193.602 123.21 193.683 123.129C193.764 123.048 193.874 123.002 193.988 123.002C194.103 123.002 194.213 123.047 194.294 123.128C194.376 123.209 194.421 123.319 194.422 123.434V148.525C194.422 148.64 194.376 148.75 194.295 148.832C194.213 148.913 194.103 148.959 193.988 148.959Z" fill="#1B2E34"/>
<path d="M219.596 123.001H218.751C218.216 123.001 217.781 123.435 217.781 123.971V147.989C217.781 148.525 218.216 148.959 218.751 148.959H219.596C220.131 148.959 220.566 148.525 220.566 147.989V123.971C220.566 123.435 220.131 123.001 219.596 123.001Z" fill="#1B2E34"/>
<path d="M232.605 123.001H230.796C230.139 123.001 229.606 123.534 229.606 124.191V147.769C229.606 148.426 230.139 148.959 230.796 148.959H232.605C233.262 148.959 233.795 148.426 233.795 147.769V124.191C233.795 123.534 233.262 123.001 232.605 123.001Z" fill="#1B2E34"/>
<path d="M226.287 148.959C226.172 148.959 226.061 148.913 225.98 148.832C225.899 148.75 225.853 148.64 225.853 148.525V123.434C225.854 123.319 225.899 123.209 225.981 123.128C226.062 123.047 226.172 123.002 226.287 123.002C226.401 123.002 226.511 123.047 226.593 123.128C226.674 123.209 226.72 123.319 226.72 123.434V148.525C226.72 148.64 226.674 148.75 226.593 148.832C226.512 148.913 226.402 148.959 226.287 148.959Z" fill="#1B2E34"/>
<path d="M244.013 123H243.025C242.623 123 242.297 123.326 242.297 123.728V148.23C242.297 148.632 242.623 148.958 243.025 148.958H244.013C244.415 148.958 244.741 148.632 244.741 148.23V123.728C244.741 123.326 244.415 123 244.013 123Z" fill="#1B2E34"/>
<path d="M240.073 123.001H239.229C238.693 123.001 238.259 123.435 238.259 123.971V147.989C238.259 148.525 238.693 148.959 239.229 148.959H240.073C240.609 148.959 241.043 148.525 241.043 147.989V123.971C241.043 123.435 240.609 123.001 240.073 123.001Z" fill="#1B2E34"/>
<path d="M252.72 123.001H251.212C250.589 123.001 250.084 123.506 250.084 124.129V147.831C250.084 148.454 250.589 148.959 251.212 148.959H252.72C253.343 148.959 253.848 148.454 253.848 147.831V124.129C253.848 123.506 253.343 123.001 252.72 123.001Z" fill="#1B2E34"/>
<path d="M246.768 148.959C246.653 148.959 246.543 148.913 246.461 148.832C246.38 148.75 246.334 148.64 246.334 148.525V123.434C246.335 123.319 246.38 123.209 246.462 123.128C246.543 123.047 246.653 123.002 246.768 123.002C246.883 123.002 246.993 123.047 247.074 123.128C247.155 123.209 247.201 123.319 247.201 123.434V148.525C247.201 148.64 247.155 148.75 247.074 148.832C246.993 148.913 246.883 148.959 246.768 148.959Z" fill="#1B2E34"/>
<path d="M204.858 123.001H203.806C203.241 123.001 202.783 123.459 202.783 124.024V147.936C202.783 148.501 203.241 148.959 203.806 148.959H204.858C205.423 148.959 205.881 148.501 205.881 147.936V124.024C205.881 123.459 205.423 123.001 204.858 123.001Z" fill="#1B2E34"/>
<path d="M224.4 123H223.412C223.01 123 222.685 123.326 222.685 123.728V148.23C222.685 148.632 223.01 148.958 223.412 148.958H224.4C224.802 148.958 225.128 148.632 225.128 148.23V123.728C225.128 123.326 224.802 123 224.4 123Z" fill="#1B2E34"/>
<path d="M213.25 123.001H212.405C211.87 123.001 211.436 123.435 211.436 123.971V147.989C211.436 148.525 211.87 148.959 212.405 148.959H213.25C213.785 148.959 214.22 148.525 214.22 147.989V123.971C214.22 123.435 213.785 123.001 213.25 123.001Z" fill="#1B2E34"/>
<path d="M219.945 148.959C219.83 148.959 219.72 148.913 219.639 148.832C219.558 148.75 219.512 148.64 219.512 148.525V123.434C219.512 123.319 219.558 123.209 219.639 123.128C219.72 123.047 219.83 123.002 219.945 123.002V123.002C220.002 123.002 220.058 123.013 220.111 123.035C220.163 123.056 220.211 123.088 220.251 123.128C220.291 123.169 220.323 123.216 220.345 123.269C220.366 123.321 220.378 123.377 220.378 123.434V148.525C220.378 148.582 220.367 148.638 220.345 148.691C220.323 148.744 220.292 148.791 220.251 148.832C220.211 148.872 220.163 148.904 220.111 148.926C220.058 148.947 220.002 148.959 219.945 148.959V148.959Z" fill="#1B2E34"/>
<path d="M150 61H77V148H150V61Z" fill="white"/>
<path d="M167 83H241" stroke="#D1D3D4" stroke-width="4" stroke-linecap="round" stroke-linejoin="round"/>
<path d="M195 93H257" stroke="#D1D3D4" stroke-width="4" stroke-linecap="round" stroke-linejoin="round"/>
<path d="M167 93H186" stroke="#D1D3D4" stroke-width="4" stroke-linecap="round" stroke-linejoin="round"/>
<path d="M167 103H250" stroke="#D1D3D4" stroke-width="4" stroke-linecap="round" stroke-linejoin="round"/>
<path d="M167 114H241" stroke="#D1D3D4" stroke-width="4" stroke-linecap="round" stroke-linejoin="round"/>
<path d="M221.279 64H170.721C168.666 64 167 65.567 167 67.5C167 69.433 168.666 71 170.721 71H221.279C223.334 71 225 69.433 225 67.5C225 65.567 223.334 64 221.279 64Z" fill="#395A63"/>
<path d="M264.291 64H235.709C233.661 64 232 65.567 232 67.5C232 69.433 233.661 71 235.709 71H264.291C266.339 71 268 69.433 268 67.5C268 65.567 266.339 64 264.291 64Z" fill="#395A63"/>
<path d="M77 56H91" stroke="#D1D3D4" stroke-width="2" stroke-linecap="round" stroke-linejoin="round"/>
<path d="M95 56H99" stroke="#D1D3D4" stroke-width="2" stroke-linecap="round" stroke-linejoin="round"/>
<path d="M95.8768 93.288C95.8768 93.288 93.0876 84.5468 100.189 81.0938C107.29 77.6408 125.877 80.9153 125.877 80.9153C125.877 80.9153 128.047 93.2154 125.748 94.822C123.45 96.4285 95.8768 93.288 95.8768 93.288Z" fill="#373C44"/>
<path d="M100.136 98.1618C100.691 95.8176 99.241 93.4668 96.8967 92.9114C94.5524 92.3559 92.2017 93.806 91.6463 96.1503C91.0908 98.4946 92.5409 100.845 94.8852 101.401C97.2295 101.956 99.5802 100.506 100.136 98.1618Z" fill="#FCAF89"/>
<path d="M129.933 101.165C132.16 100.247 133.222 97.6975 132.305 95.4699C131.387 93.2423 128.837 92.1805 126.61 93.0982C124.382 94.0158 123.32 96.5656 124.238 98.7931C125.155 101.021 127.705 102.083 129.933 101.165Z" fill="#FCAF89"/>
<path d="M117.711 112.985L116.974 103.295L109.41 104.333L108.172 118.502C110.058 118.296 111.881 117.7 113.523 116.75C115.166 115.8 116.592 114.517 117.711 112.985V112.985Z" fill="#FCAF89"/>
<path d="M123.741 101.789C123.317 102.71 123.099 103.714 122.625 104.579C121.972 105.741 120.906 106.616 119.638 107.029C118.37 107.442 116.993 107.364 115.78 106.81C115.103 106.385 114.374 106.049 113.61 105.811C113.246 105.746 112.873 105.762 112.516 105.858C112.159 105.955 111.828 106.129 111.546 106.369C111.078 106.776 110.76 107.362 110.224 107.663C109.829 107.856 109.392 107.948 108.952 107.931C107.864 107.948 106.789 107.694 105.823 107.193C104.857 106.691 104.031 105.958 103.419 105.058C102.231 103.385 101.483 101.41 100.033 99.9318C99.2191 99.1547 98.3033 98.4922 97.3105 97.9626C97.3105 98.0742 97.3384 98.1858 97.3496 98.3029C97.8572 102.883 100.044 106.871 104.2 109.086C108.356 111.3 114.04 112.092 118.475 110.268C120.149 109.618 121.674 108.632 122.954 107.372C124.235 106.111 125.245 104.603 125.922 102.938C126.436 101.612 126.797 100.23 126.998 98.8217C126.277 99.0601 125.615 99.4476 125.054 99.9589C124.492 100.47 124.045 101.094 123.741 101.789V101.789Z" fill="#373C44"/>
<path d="M127.249 89.9466C126.479 74.4613 113.861 74.69 113.861 74.69C113.861 74.69 97.0317 73.3958 97.1265 92.9924C97.0018 94.6562 97.0616 96.3287 97.305 97.9793C98.2977 98.5089 99.2135 99.1714 100.027 99.9485C102.102 102.063 102.816 105.398 105.343 106.988C106.375 107.607 107.554 107.937 108.757 107.942C109.342 108.004 109.93 107.87 110.431 107.563C110.755 107.257 111.054 106.925 111.323 106.57C111.628 106.257 112.006 106.027 112.424 105.9C112.841 105.773 113.284 105.754 113.711 105.845C114.428 106.088 115.115 106.414 115.758 106.815C116.97 107.391 118.357 107.48 119.633 107.065C120.909 106.65 121.978 105.762 122.619 104.584C123.105 103.697 123.322 102.693 123.735 101.795C124.04 101.104 124.487 100.484 125.046 99.9756C125.605 99.4674 126.264 99.0819 126.982 98.844C127.37 95.8947 127.459 92.9139 127.249 89.9466V89.9466Z" fill="#FFBE9E"/>
<path d="M83.9619 147.615C83.9619 147.615 89.4231 120.794 112.941 120.794C136.459 120.794 139.527 147.615 139.527 147.615H83.9619Z" fill="#E94A47"/>
<path d="M108.172 118.502L107.614 124.738C107.614 124.738 107.887 124.599 112.93 125.196C117.973 125.793 118.335 121.291 118.335 121.291L117.7 112.963C116.584 114.498 115.161 115.784 113.52 116.737C111.88 117.691 110.058 118.292 108.172 118.502V118.502Z" fill="#FFBE9E"/>
<path d="M106.03 96.1106C106.03 96.9641 105.684 97.6613 105.26 97.6613C104.836 97.6613 104.484 96.9641 104.484 96.1106C104.484 95.2571 104.83 94.5598 105.26 94.5598C105.689 94.5598 106.03 95.2571 106.03 96.1106Z" fill="#373C44"/>
<path d="M119.591 97.9236C120.019 97.9236 120.366 97.2293 120.366 96.3728C120.366 95.5163 120.019 94.822 119.591 94.822C119.162 94.822 118.815 95.5163 118.815 96.3728C118.815 97.2293 119.162 97.9236 119.591 97.9236Z" fill="#373C44"/>
<path d="M113.794 97.1482C113.488 97.3434 113.181 97.5331 112.896 97.706C112.612 97.879 112.338 98.1467 112.305 98.3308C112.305 98.4089 112.338 98.4981 112.467 98.6097C112.574 98.7152 112.704 98.7953 112.846 98.844C113.007 98.8818 113.174 98.8865 113.337 98.8577C113.5 98.8289 113.656 98.7673 113.794 98.6767C113.684 98.8413 113.532 98.9735 113.353 99.0598C113.175 99.1461 112.977 99.1833 112.779 99.1675C112.575 99.1332 112.382 99.0468 112.221 98.9165C112.119 98.8479 112.035 98.7549 111.978 98.6458C111.92 98.5367 111.891 98.415 111.892 98.2917C111.935 98.0667 112.063 97.8668 112.249 97.7339C112.399 97.6137 112.564 97.5143 112.74 97.4383C113.073 97.2832 113.429 97.1851 113.794 97.1482V97.1482Z" fill="#373C44"/>
<path d="M110.805 102.258C111.143 102.474 111.5 102.661 111.87 102.816C112.223 102.971 112.601 103.061 112.986 103.084C113.37 103.109 113.754 103.036 114.101 102.872C114.463 102.703 114.803 102.493 115.117 102.247C115.004 102.423 114.881 102.593 114.749 102.754C114.601 102.911 114.434 103.048 114.252 103.162C113.878 103.405 113.437 103.522 112.991 103.496C112.557 103.47 112.133 103.345 111.754 103.131C111.375 102.916 111.051 102.617 110.805 102.258V102.258Z" fill="#373C44"/>
<path d="M117.298 93.288C117.496 92.7585 117.843 92.2974 118.296 91.9603C118.764 91.6012 119.322 91.3774 119.908 91.3132C120.508 91.2402 121.115 91.3635 121.638 91.6647C121.889 91.8024 122.119 91.9773 122.318 92.1835C122.506 92.3934 122.667 92.6257 122.798 92.8752C122.24 92.7357 121.788 92.5516 121.325 92.4847C120.898 92.3925 120.459 92.3718 120.026 92.4233C119.078 92.5737 118.159 92.8652 117.298 93.288V93.288Z" fill="#373C44"/>
<path d="M107.764 92.8751C106.986 92.2216 105.99 91.885 104.975 91.9324C104.473 91.9591 103.973 92.0243 103.48 92.1276C103.229 92.2001 102.956 92.2392 102.688 92.3061C102.408 92.3792 102.123 92.4333 101.835 92.4679C102.019 92.2359 102.221 92.0177 102.437 91.8152C102.671 91.6302 102.917 91.4607 103.174 91.3076C103.717 91.0093 104.322 90.8413 104.942 90.8167C105.594 90.7863 106.239 90.9705 106.777 91.3411C107.039 91.5149 107.261 91.7408 107.431 92.0048C107.601 92.2688 107.715 92.5651 107.764 92.8751V92.8751Z" fill="#373C44"/>
<path d="M117.236 100.478C115.886 100.997 114.955 97.7839 113.331 99.039C113.331 99.039 113.276 99.0892 113.052 99.039V98.9944H112.963H112.874V99.039C112.656 99.0781 112.595 99.039 112.595 99.039C110.922 97.7839 110.018 100.997 108.69 100.478C109.901 101.432 110.704 101.705 112.98 100.512C115.217 101.705 116.02 101.432 117.236 100.478Z" fill="#373C44"/>
<path d="M126.775 92.5907C124.678 92.0329 123.077 81.1329 119.59 80.9544C116.104 80.7759 104.735 91.8042 98.4542 86.8005C92.1731 81.7968 93.4338 75.5044 94.6219 75.0303C95.8101 74.5561 96.2954 77.6019 96.2954 77.6019C96.2954 77.6019 95.9328 74.2549 97.2828 74.0095C98.6327 73.764 98.8112 76.9436 98.8112 76.9436C98.8112 76.9436 98.0247 73.0388 100.245 72.9942C102.465 72.9496 101.266 76.7651 101.266 76.7651C101.266 76.7651 115.931 67.6391 120.394 74.6733C129.642 76.6034 128.867 93.1486 126.775 92.5907Z" fill="#373C44"/>
<path d="M120.165 75.1863C120.165 75.1863 120.723 72.0904 121.498 72.0067C122.273 71.923 120.829 74.7958 120.829 74.7958C120.829 74.7958 122.134 73.1223 122.502 73.6076C122.87 74.093 120.823 75.6103 120.165 75.1863Z" fill="#373C44"/>
<path d="M107.977 120.739L112.941 125.201L110.152 130.657C110.152 130.657 105.344 126.858 105.578 121.77C108.283 117.308 108.149 118.797 108.149 118.797L107.977 120.739Z" fill="#E63330"/>
<path d="M118.218 120.739L112.941 125.201L116.048 130.657C116.048 130.657 120.856 126.858 120.622 121.77C117.917 117.308 118.05 118.797 118.05 118.797L118.218 120.739Z" fill="#E63330"/>
<path d="M113.566 130.651C113.566 130.805 113.505 130.953 113.396 131.062C113.287 131.17 113.139 131.232 112.986 131.232C112.832 131.232 112.684 131.17 112.575 131.062C112.467 130.953 112.406 130.805 112.406 130.651C112.406 130.498 112.467 130.35 112.575 130.241C112.684 130.132 112.832 130.071 112.986 130.071C113.139 130.071 113.287 130.132 113.396 130.241C113.505 130.35 113.566 130.498 113.566 130.651V130.651Z" fill="white"/>
<path d="M113.566 140.185C113.566 140.295 113.533 140.403 113.472 140.494C113.411 140.586 113.323 140.658 113.221 140.7C113.12 140.742 113.007 140.753 112.899 140.732C112.791 140.71 112.692 140.657 112.614 140.579C112.536 140.501 112.482 140.402 112.461 140.293C112.439 140.185 112.45 140.073 112.493 139.971C112.535 139.869 112.606 139.782 112.698 139.721C112.79 139.659 112.898 139.627 113.008 139.627C113.156 139.627 113.298 139.685 113.402 139.79C113.507 139.895 113.566 140.037 113.566 140.185Z" fill="white"/>
<circle cx="295.5" cy="101.5" r="45.5" fill="#FAFAFA" stroke="#5598FA" stroke-width="4"/>
<path d="M301.878 101.154C305.649 96.1838 302.099 88.9741 295.824 88.9741C291.635 88.9741 288.227 92.382 288.227 96.5709C288.227 98.291 288.802 99.8787 289.77 101.154C282.995 106.82 287.042 117.855 295.824 117.855C304.625 117.855 308.64 106.809 301.878 101.154V101.154ZM293.442 96.5709C293.442 95.2575 294.51 94.189 295.824 94.189C297.137 94.189 298.206 95.2575 298.206 96.5709C298.206 97.8846 297.137 98.9531 295.824 98.9531C294.51 98.9531 293.442 97.8844 293.442 96.5709ZM295.824 112.64C293.488 112.64 291.587 110.74 291.587 108.404C291.587 106.068 293.488 104.168 295.824 104.168C298.16 104.168 300.06 106.068 300.06 108.404C300.06 110.74 298.16 112.64 295.824 112.64Z" fill="#5598FA"/>
<path d="M278.518 89.1448H273.46C272.02 89.1448 270.853 90.3122 270.853 91.7522C270.853 93.1922 272.02 94.3596 273.46 94.3596H275.911V115.419C275.911 116.859 277.078 118.026 278.518 118.026C279.958 118.026 281.126 116.859 281.126 115.419V91.7522C281.126 90.3122 279.958 89.1448 278.518 89.1448Z" fill="#5598FA"/>
<path d="M323.54 95.0542H320.063V91.5813C320.063 90.1413 318.896 88.9739 317.456 88.9739C316.016 88.9739 314.849 90.1413 314.849 91.5813V95.0542H311.372C309.932 95.0542 308.765 96.2216 308.765 97.6616C308.765 99.1016 309.932 100.269 311.372 100.269H314.849V103.753C314.849 105.193 316.016 106.361 317.456 106.361C318.896 106.361 320.063 105.193 320.063 103.753V100.269H323.54C324.98 100.269 326.147 99.1016 326.147 97.6616C326.147 96.2216 324.98 95.0542 323.54 95.0542Z" fill="#5598FA"/>
</svg>
