<svg width="451" height="342" viewBox="0 0 451 342" fill="none" xmlns="http://www.w3.org/2000/svg">
<path d="M63.9839 199.243C37.8169 257.536 97.1423 283.128 130.076 288.638L163.459 301.795C210.78 304.606 290.248 279.665 229.551 157.413C153.68 4.59779 96.6927 126.378 63.9839 199.243Z" fill="#E8F7FC"/>
<path d="M165.5 134.124C74.7 82.9241 25.6667 169.124 12.5 218.624C47.3333 198.957 108.3 179.424 73.5 258.624C30 357.624 229 301.624 315.5 328.124C402 354.624 513.5 253.624 406.5 61.1241C299.5 -131.376 279 198.124 165.5 134.124Z" fill="#E8F7FC"/>
<path d="M141.5 312.702C33.9 343.502 2.66667 312.869 0.5 293.702C0.5 232.703 13 259.702 70.5 163.202C128 66.7024 246 185.202 354.5 218.702C463 252.202 486 339.702 388.5 341.702C291 343.702 276 274.202 141.5 312.702Z" fill="#D9F9C5"/>
<path fill-rule="evenodd" clip-rule="evenodd" d="M261.955 268V59.9625C261.955 58.0373 262.726 56.191 264.097 54.8297C265.468 53.4685 267.328 52.7037 269.268 52.7037H275.849C277.789 52.7037 279.649 53.4685 281.02 54.8297C282.391 56.191 283.162 58.0373 283.162 59.9625V268H288.5V55.2588C288.5 53.3337 287.73 51.4873 286.358 50.1261C284.987 48.7648 283.127 48 281.187 48H263.813C261.873 48 260.013 48.7648 258.642 50.1261C257.27 51.4873 256.5 53.3337 256.5 55.2588V268H261.955Z" fill="#83AFF6"/>
<path fill-rule="evenodd" clip-rule="evenodd" d="M291.5 68.0086C291.496 68.273 291.399 68.5251 291.23 68.7106C291.06 68.8961 290.832 69 290.594 69H277.292C277.073 68.9692 276.872 68.8506 276.726 68.6666C276.58 68.4827 276.5 68.2458 276.5 68.0006C276.5 67.7553 276.58 67.5185 276.726 67.3345C276.872 67.1505 277.073 67.032 277.292 67.0011H290.551C290.673 66.9946 290.796 67.0159 290.911 67.0636C291.026 67.1113 291.131 67.1845 291.22 67.2787C291.308 67.3729 291.379 67.4862 291.427 67.6116C291.475 67.7371 291.5 67.8721 291.5 68.0086Z" fill="#8E8DC7"/>
<path fill-rule="evenodd" clip-rule="evenodd" d="M291.5 100.993C291.5 101.26 291.405 101.516 291.236 101.705C291.068 101.894 290.839 102 290.6 102H277.386C277.15 101.996 276.924 101.888 276.759 101.699C276.593 101.511 276.5 101.257 276.5 100.993C276.5 100.73 276.593 100.478 276.759 100.292C276.926 100.106 277.151 100.002 277.386 100.002H290.557C290.678 99.9933 290.8 100.012 290.914 100.058C291.028 100.104 291.132 100.176 291.221 100.269C291.309 100.362 291.38 100.474 291.428 100.598C291.476 100.723 291.5 100.857 291.5 100.993Z" fill="#8E8DC7"/>
<path fill-rule="evenodd" clip-rule="evenodd" d="M291.5 233.009C291.496 233.273 291.399 233.525 291.23 233.711C291.06 233.896 290.832 234 290.594 234H277.292C277.073 233.969 276.872 233.851 276.726 233.667C276.58 233.483 276.5 233.246 276.5 233.001C276.5 232.755 276.58 232.518 276.726 232.334C276.872 232.151 277.073 232.032 277.292 232.001H290.551C290.673 231.995 290.796 232.016 290.911 232.064C291.026 232.111 291.131 232.185 291.22 232.279C291.308 232.373 291.379 232.486 291.427 232.612C291.475 232.737 291.5 232.872 291.5 233.009Z" fill="#8E8DC7"/>
<path fill-rule="evenodd" clip-rule="evenodd" d="M235.829 21H238.171C259.361 21 276.74 37.0769 278.5 59H195.5C197.245 37.0769 214.639 21 235.829 21Z" fill="#83AFF6"/>
<path d="M278.5 66H195.5V268H278.5V66Z" fill="#EFEFF6"/>
<path fill-rule="evenodd" clip-rule="evenodd" d="M277.984 56C278.342 58.2355 278.514 60.5009 278.499 62.7692V76H195.5V62.7692C195.499 60.4844 195.773 58.2092 196.316 56H277.984Z" fill="#FFEEFF"/>
<path d="M278.5 199H195.5V268H278.5V199Z" fill="#D1E2FF"/>
<path d="M278.5 90H195.5V159H278.5V90Z" fill="#D1E2FF"/>
<g opacity="0.25">
<g opacity="0.25">
<g style="mix-blend-mode:multiply" opacity="0.25">
<path fill-rule="evenodd" clip-rule="evenodd" d="M218.948 135.83L154.948 99.6851L90.9618 135.83L54.7441 187.686L57.7732 189.802L60.8167 191.918L66.2515 184.135L70.4254 184.251V198.439V265.991H114.933H116.774H120.382H151.499H158.412H189.673H193.122H194.977H239.47V198.439V184.251L211.716 144.758L239.485 183.628L243.731 184.251L213.832 141.439L154.948 108.192L213.832 141.439L243.731 184.251L249.093 191.918L255.166 187.686L218.948 135.83Z" fill="#E5CCFF"/>
</g>
</g>
</g>
<path fill-rule="evenodd" clip-rule="evenodd" d="M201.5 271V189.753L173.754 150.499L117 118L60.2609 150.499L32.5 189.753V271H201.5Z" fill="#83AFF6"/>
<path fill-rule="evenodd" clip-rule="evenodd" d="M210.44 197L175.253 146.663L116.493 113.486L57.7322 146.663L22.5597 197L16.5 192.779L52.6415 141.054L116.493 105L180.344 141.054L216.5 192.779L210.44 197Z" fill="#65A0FF"/>
<path fill-rule="evenodd" clip-rule="evenodd" d="M32.6627 190L28.5 189.884L58.2312 147.235L116.957 114L175.682 147.235L205.5 190L201.265 189.377L173.572 150.537L116.957 117.867L60.3559 150.537L32.6627 190Z" fill="#D1E2FF"/>
<path d="M154.5 199H78.5V271H154.5V199Z" fill="#83AFF6"/>
<path fill-rule="evenodd" clip-rule="evenodd" d="M81.9579 271L97.5207 238.045L113.069 271H119.975L135.581 237.885L151.201 271H156.5V196H76.5V271H81.9579ZM152.779 270.059L136.609 235.7L152.808 201.355V270.059H152.779ZM151.505 199.691L135.581 233.529L119.656 199.691H151.505ZM118.339 201.355L134.524 235.7L118.339 270.059V201.355ZM114.647 270.045L98.5196 235.859L114.647 201.674V270.045ZM113.518 199.691L97.5207 233.688L81.4946 199.691H113.518ZM80.2206 201.355L96.4928 235.859L80.1482 270.378L80.2206 201.355Z" fill="#FBF4FF"/>
<path fill-rule="evenodd" clip-rule="evenodd" d="M126.804 177.324C124.565 179.558 121.714 181.08 118.611 181.695C115.508 182.31 112.293 181.991 109.371 180.779C106.449 179.568 103.951 177.517 102.195 174.886C100.438 172.256 99.5 169.163 99.5 166C99.5 162.837 100.438 159.744 102.195 157.114C103.951 154.483 106.449 152.432 109.371 151.221C112.293 150.009 115.508 149.69 118.611 150.305C121.714 150.92 124.565 152.442 126.804 154.676C128.293 156.162 129.474 157.928 130.279 159.871C131.085 161.814 131.5 163.896 131.5 166C131.5 168.103 131.085 170.186 130.279 172.129C129.474 174.072 128.293 175.838 126.804 177.324Z" fill="#D1E2FF"/>
<path fill-rule="evenodd" clip-rule="evenodd" d="M126.681 153.984C124.374 151.605 121.433 149.984 118.23 149.328C115.028 148.671 111.709 149.007 108.692 150.293C105.675 151.579 103.097 153.758 101.283 156.554C99.4683 159.35 98.5 162.637 98.5 166C98.5 169.363 99.4683 172.65 101.283 175.446C103.097 178.242 105.675 180.421 108.692 181.707C111.709 182.993 115.028 183.329 118.23 182.672C121.433 182.016 124.374 180.395 126.681 178.016C129.767 174.825 131.5 170.504 131.5 166C131.5 161.496 129.767 157.175 126.681 153.984ZM115.759 166.767H129.988C129.824 170.599 128.272 174.229 125.638 176.942C123.004 179.654 119.48 181.253 115.759 181.422V166.767ZM129.988 165.292H115.759V150.651C119.476 150.824 122.997 152.421 125.63 155.13C128.263 157.839 129.817 161.464 129.988 165.292ZM114.241 150.651V165.292H100.026C100.197 161.466 101.749 157.843 104.379 155.135C107.009 152.426 110.526 150.827 114.241 150.651ZM100.026 166.87H114.241V181.526C110.524 181.349 107.005 179.748 104.375 177.037C101.744 174.325 100.193 170.699 100.026 166.87Z" fill="#65A0FF"/>
<path opacity="0.23" fill-rule="evenodd" clip-rule="evenodd" d="M173.754 150.553L117 118L60.2609 150.553L32.5 189.874V204L60.2609 164.694L117 132.127L173.754 164.694L201.5 204V189.874L173.754 150.553Z" fill="#EDF4FF"/>
<path fill-rule="evenodd" clip-rule="evenodd" d="M57.8497 147.159L116.826 114.309L175.802 147.159L205.747 189.428L211.118 197L214.5 194.681L178.574 143.981L116.811 110L55.1644 144.253L19.5 194.91L22.5482 197L27.9916 189.313L57.8497 147.159Z" fill="#83AFF6"/>
<path d="M359.487 132.391H367.017V141.931C367.017 142.737 366.627 143.51 365.933 144.08C365.239 144.649 364.298 144.97 363.316 144.97H363.17C362.189 144.97 361.247 144.649 360.553 144.08C359.859 143.51 359.469 142.737 359.469 141.931V132.391H359.487Z" fill="#FFBE9E"/>
<path d="M351.624 106.6C351.624 106.6 351.974 103.525 353.329 102.169C354.685 100.814 363.388 99.1373 367.783 100.514C369.16 101.941 370.044 104.845 370.044 104.845" fill="#FFD347"/>
<path d="M362.196 124.591C375.883 123.352 386.566 117.787 386.057 112.16C385.548 106.533 374.039 102.975 360.352 104.213C346.665 105.452 335.982 111.017 336.491 116.644C337 122.271 348.509 125.829 362.196 124.591Z" fill="#F6A821"/>
<path d="M377.792 121.513C378.75 119.565 378.52 117.491 377.279 116.881C376.038 116.271 374.256 117.356 373.298 119.304C372.34 121.252 372.57 123.326 373.811 123.936C375.052 124.546 376.834 123.462 377.792 121.513Z" fill="#FFBE9E"/>
<path d="M362.537 105.913L357.997 106.396C352.743 106.954 348.936 111.667 349.495 116.921L350.698 128.236C351.257 133.49 355.969 137.296 361.223 136.738L365.764 136.255C371.018 135.696 374.824 130.984 374.265 125.73L373.062 114.415C372.503 109.161 367.791 105.354 362.537 105.913Z" fill="#FFBE9E"/>
<path d="M351.019 126.275C352.128 125.449 351.978 123.368 350.682 121.626C349.386 119.884 347.437 119.141 346.327 119.966C345.217 120.792 345.368 122.873 346.664 124.615C347.959 126.357 349.909 127.1 351.019 126.275Z" fill="#FFBE9E"/>
<path d="M346.773 121.481C348.485 121.696 349.106 123.479 349.548 124.899C349.563 124.948 349.596 124.99 349.64 125.014C349.685 125.039 349.738 125.045 349.787 125.031C349.836 125.017 349.878 124.983 349.903 124.939C349.928 124.894 349.933 124.841 349.919 124.792C349.42 123.172 348.685 121.332 346.773 121.089C346.523 121.089 346.531 121.453 346.773 121.481Z" fill="#FFA97E"/>
<path d="M347.715 123.593C348.087 123.34 348.507 123.168 348.949 123.087C349.199 123.044 349.092 122.666 348.842 122.709C348.368 122.794 347.917 122.981 347.522 123.258C347.316 123.393 347.522 123.736 347.715 123.593Z" fill="#FFA97E"/>
<path d="M374.689 123.087C374.638 122.215 374.782 121.343 375.112 120.534C375.442 119.726 375.948 119.001 376.594 118.414C376.78 118.243 376.501 117.964 376.316 118.136C375.63 118.758 375.092 119.525 374.74 120.382C374.389 121.238 374.232 122.162 374.283 123.087C374.283 123.336 374.682 123.336 374.675 123.087H374.689Z" fill="#FFA97E"/>
<path d="M375.167 120.526C375.729 120.591 376.242 120.875 376.594 121.317C376.758 121.51 377.029 121.232 376.872 121.039C376.445 120.526 375.832 120.203 375.167 120.14C374.917 120.105 374.917 120.497 375.167 120.526Z" fill="#FFA97E"/>
<path d="M361.67 122.145C361.784 120.804 361.805 119.458 361.734 118.114C361.691 117.451 361.634 116.794 361.548 116.145C361.528 115.611 361.442 115.081 361.291 114.568C361.248 114.42 361.158 114.29 361.035 114.197C360.911 114.105 360.761 114.055 360.607 114.055C360.452 114.055 360.302 114.105 360.179 114.197C360.055 114.29 359.965 114.42 359.922 114.568C359.863 115.137 359.904 115.712 360.043 116.266C360.136 117.215 360.264 118.157 360.307 119.12C360.335 119.579 360.335 120.038 360.307 120.497C360.307 120.782 360.385 121.332 360.171 121.546C360.114 121.606 360.037 121.646 359.954 121.657C359.871 121.669 359.787 121.652 359.715 121.61C359.623 121.522 359.542 121.424 359.472 121.317C359.39 121.238 359.286 121.184 359.173 121.162C359.06 121.141 358.944 121.153 358.837 121.196C358.366 121.382 358.424 121.767 358.516 122.174C358.651 122.761 358.942 123.3 359.358 123.736C359.568 123.976 359.851 124.139 360.164 124.2C360.405 124.211 360.644 124.154 360.852 124.034C361.061 123.914 361.231 123.736 361.341 123.522C361.542 123.089 361.653 122.621 361.67 122.145Z" fill="#FFA97E"/>
<path d="M356.535 121.894C357.098 121.823 357.467 121.074 357.36 120.222C357.252 119.37 356.708 118.737 356.145 118.808C355.583 118.879 355.213 119.628 355.321 120.48C355.429 121.332 355.972 121.965 356.535 121.894Z" fill="#8E4700"/>
<path d="M365.816 119.63C365.841 118.772 365.402 118.062 364.834 118.046C364.267 118.029 363.787 118.712 363.762 119.571C363.737 120.429 364.177 121.139 364.744 121.155C365.311 121.172 365.791 120.489 365.816 119.63Z" fill="#8E4700"/>
<path d="M353.579 117.344C353.821 116.758 354.251 116.27 354.801 115.956C355.352 115.643 355.991 115.521 356.618 115.61C357.131 115.674 357.131 114.861 356.618 114.797C355.806 114.697 354.985 114.874 354.286 115.298C353.587 115.723 353.051 116.371 352.765 117.137C352.573 117.622 353.358 117.85 353.55 117.351L353.579 117.344Z" fill="#8E4700"/>
<path d="M363.752 114.754C364.311 114.53 364.928 114.496 365.508 114.658C366.088 114.819 366.599 115.166 366.963 115.646C367.291 116.052 367.862 115.475 367.541 115.068C367.075 114.485 366.437 114.065 365.718 113.869C364.998 113.673 364.235 113.711 363.538 113.976C363.053 114.162 363.26 114.947 363.752 114.754Z" fill="#8E4700"/>
<path d="M359.579 125.741C359.944 126.017 360.377 126.188 360.832 126.238C361.287 126.287 361.747 126.211 362.162 126.019C362.578 125.827 362.933 125.526 363.191 125.148C363.448 124.769 363.598 124.328 363.624 123.871C363.624 123.615 363.239 123.615 363.218 123.871C363.186 124.255 363.051 124.623 362.828 124.936C362.605 125.25 362.302 125.497 361.95 125.653C361.598 125.808 361.21 125.866 360.828 125.82C360.446 125.774 360.084 125.626 359.779 125.391C359.572 125.241 359.365 125.591 359.579 125.741Z" fill="#8E4700"/>
<g style="mix-blend-mode:multiply" opacity="0.16">
<g style="mix-blend-mode:multiply" opacity="0.16">
<path d="M349.427 117.936L350.283 117.715C354.171 116.691 358.133 115.976 362.133 115.574C364.874 115.316 367.629 115.235 370.38 115.332C371.464 115.332 372.535 115.332 373.59 115.332C373.59 115.332 372.542 111.208 371.6 109.903C364.259 109.51 356.554 110.402 349.819 113.149C349.451 114.368 349.332 115.649 349.47 116.916L349.427 117.936Z" fill="#993952"/>
</g>
</g>
<path d="M374.303 108.476L369.088 105.786C367.081 105.753 365.076 105.753 363.074 105.786C360.47 105.829 357.902 105.922 355.312 106.222L354.913 106.371L351.082 108.512L346.023 111.693C346.023 111.693 344.44 112.828 344.44 113.662L343.897 116.766C354.175 112.045 365.665 110.633 376.779 112.728C387.295 113.127 374.303 108.476 374.303 108.476Z" fill="#F6A821"/>
<path d="M378.053 189.923L377.797 195.117L377.397 203.191L375.331 244.899L373.918 244.887L367.531 244.836L364.063 201.729H362.619L360.323 244.986L357.93 244.974L351.911 244.945L350.911 190.433L350.904 190.058L378.053 189.923Z" fill="#364D66"/>
<path opacity="0.71" d="M378.053 189.923L377.797 195.117C366.168 195.326 354.796 191.78 350.911 190.433L350.904 190.058L378.053 189.923Z" fill="#293A4D"/>
<path opacity="0.71" d="M377.397 203.191L375.331 244.899L373.918 244.887L375.508 203.039L377.397 203.191Z" fill="#293A4D"/>
<path opacity="0.71" d="M362.619 201.729L360.323 244.986L357.93 244.973L362.619 201.729Z" fill="#293A4D"/>
<path d="M361.047 264.371H343.831C343.784 264.192 343.754 264.02 343.738 263.854C343.589 262.416 344.449 261.432 344.954 261.324C346.545 260.986 350.521 260.524 351.284 259.041C352.465 256.741 350.981 244.698 350.981 244.698H361.146C361.146 244.698 361.146 244.705 361.144 244.719L360.539 259.039C360.539 259.041 361.805 263.13 361.047 264.371Z" fill="#EC9E01"/>
<path d="M351.284 259.04C352.465 256.74 350.981 244.698 350.981 244.698C350.981 244.698 354.268 254.473 351.284 259.04Z" fill="#FDB53F"/>
<path opacity="0.53" d="M361.047 264.37H343.831C343.784 264.191 343.754 264.02 343.738 263.853C344.297 263.726 357.983 260.589 359.071 259.04C360.16 257.493 361.1 245.291 361.142 244.721L360.537 259.04C360.539 259.04 361.804 263.129 361.047 264.37Z" fill="#B17701"/>
<path d="M344.64 265.275H356.308L357.354 264.49L357.549 265.275H361.277C361.277 265.014 361.277 264.37 361.277 263.508C359.581 263.533 355.837 264.115 355.001 264.17C351.344 264.407 345.419 264.347 345.419 264.338C344.46 264.262 343.721 263.858 343.721 263.858C343.744 264.053 343.739 264.756 344.64 265.275Z" fill="#525355"/>
<path d="M376.322 244.616L374.656 260.063L374.645 260.182L374.536 261.201H367.579L367.531 260.513L366.435 244.616H376.322Z" fill="#EC9E01"/>
<path opacity="0.35" d="M374.657 260.063L374.534 261.201H367.579L367.531 260.513C368.962 259.227 371.631 257.664 374.657 260.063Z" fill="#525355"/>
<path d="M376.046 264.156C375.722 261.38 373.695 259.24 371.239 259.24C368.786 259.24 366.757 261.38 366.433 264.156H376.046Z" fill="#EC9E01"/>
<path d="M367.531 260.513L366.435 244.618C366.435 244.616 369.087 258.445 367.531 260.513Z" fill="#FDB53F"/>
<path opacity="0.53" d="M376.322 244.616L374.656 260.061C374.656 260.061 371.946 247.944 374.538 244.616H376.322Z" fill="#B17701"/>
<path d="M376.322 264.566C376.322 264.957 376.005 265.274 375.614 265.274H366.867C366.478 265.274 366.159 264.957 366.159 264.566C366.159 264.175 366.478 263.858 366.867 263.858H375.614C376.004 263.858 376.322 264.175 376.322 264.566Z" fill="#525355"/>
<path d="M369.713 143.08L376.419 152.634L377.031 170.155L373.137 190.1H352.514L349.504 167.052L350.586 154.216L356.29 143.602L369.713 143.08Z" fill="#85ACD5"/>
<path d="M366.28 175.852L366.254 176.197L362.891 182.75L359.545 175.894L362.336 151.143L362.349 151.01L362.329 150.962L360.249 146.208H365.544L363.468 150.962L363.446 151.01L363.461 151.143L366.28 175.852Z" fill="#243444"/>
<path d="M362.329 150.962H363.467L363.446 151.01L363.46 151.143H362.336L362.329 150.962Z" fill="#43566B"/>
<path d="M363.139 146.238C363.139 146.238 365.438 147.438 365.629 148.819C365.82 150.201 369.561 143.343 369.561 143.343L363.139 146.238Z" fill="#43566B"/>
<path d="M362.961 146.201C362.961 146.201 365.266 147.436 365.457 148.819C365.648 150.201 369.713 143.08 369.713 143.08L366.714 142.12L362.961 146.201Z" fill="#6481A0"/>
<path d="M362.478 146.093C362.478 146.093 361.021 147.714 360.83 149.095C360.639 150.477 356.82 143.726 356.82 143.726L362.478 146.093Z" fill="#43566B"/>
<path d="M362.961 146.201C362.961 146.201 361.027 147.412 360.835 148.794C360.644 150.177 355.482 143.216 355.482 143.216L359.649 142.12L362.961 146.201Z" fill="#6481A0"/>
<path d="M359.33 163.54L359.327 164.05V164.057L359.008 216.737C359.008 216.737 356.878 217.721 351.297 217.128C350.734 217.073 350.137 216.997 349.502 216.901C349.312 216.873 349.121 216.843 348.927 216.811C347.726 216.62 346.404 216.362 344.949 216.023C346.383 189.353 344.751 183.488 345.386 162.225C345.386 162.219 345.386 162.218 345.386 162.218C345.418 161.141 345.457 160.028 345.501 158.868C345.616 155.822 345.781 152.471 345.999 148.728L351.297 145.613L352.987 144.62L353.157 144.521L353.481 144.329L354.508 143.728L359.121 162.685L359.325 163.52L359.33 163.54Z" fill="#F1F2F2"/>
<path opacity="0.42" d="M353.619 144.099C352.89 145.02 352.513 150.138 352.513 150.138L355.432 150.405L353.191 153.131L359.328 164.059L357.464 151.653L355.74 143.17C355.74 143.168 354.076 143.522 353.619 144.099Z" fill="#E1E2E2"/>
<path d="M353.619 143.216C352.89 144.136 352.513 149.617 352.513 149.617L355.432 149.884L353.191 152.61L359.328 163.538L357.464 151.131L355.74 142.285C355.74 142.287 354.076 142.641 353.619 143.216Z" fill="white"/>
<path d="M380.843 216.023C378.549 216.56 376.58 216.892 374.909 217.084C374.769 217.103 374.629 217.117 374.495 217.128C371.565 217.439 369.586 217.316 368.368 217.128C367.263 216.958 366.784 216.737 366.784 216.737L366.522 173.462L366.504 170.529L366.465 164.053V164.039L366.462 163.54L366.665 162.702L371.284 143.727L372.31 144.331L372.634 144.52L372.802 144.62L373.557 145.06L374.495 145.613L377.64 147.463L379.793 148.728C379.903 150.587 379.995 152.348 380.078 154.027C380.269 157.932 380.391 161.373 380.464 164.48C380.924 183.942 379.462 190.321 380.843 216.023Z" fill="#F1F2F2"/>
<path opacity="0.42" d="M372.172 144.099C372.902 145.02 373.279 150.138 373.279 150.138L370.36 150.405L372.601 153.131L366.463 164.059L368.327 151.653L370.052 143.17C370.05 143.168 371.716 143.522 372.172 144.099Z" fill="#E1E2E2"/>
<path d="M372.174 143.216C372.903 144.136 373.28 149.617 373.28 149.617L370.361 149.884L372.602 152.61L366.465 163.538L368.329 151.131L370.053 142.285C370.051 142.287 371.717 142.641 372.174 143.216Z" fill="white"/>
<path d="M356.447 165.634L354.011 164.31C351.917 162.308 350.435 154.885 350.375 154.57L350.69 154.446C350.706 154.523 352.193 161.982 354.179 163.914L356.564 165.202L356.447 165.634Z" fill="#5E5F60"/>
<path d="M357.013 166.052C356.976 166.052 356.941 166.043 356.907 166.025L356.13 165.618C356.054 165.578 355.992 165.498 355.958 165.393C355.925 165.289 355.921 165.172 355.949 165.064C356.006 164.848 356.19 164.73 356.342 164.811L357.119 165.218C357.196 165.259 357.258 165.339 357.291 165.443C357.325 165.547 357.328 165.664 357.3 165.772C357.254 165.939 357.139 166.052 357.013 166.052Z" fill="#BCBEC0"/>
<path d="M352.303 165.634L352.186 165.202L354.57 163.914C356.558 161.982 358.045 154.523 358.061 154.446L358.376 154.57C358.315 154.885 356.833 162.308 354.739 164.31L354.705 164.335L352.303 165.634Z" fill="#5E5F60"/>
<path d="M351.737 166.052C351.609 166.052 351.494 165.939 351.45 165.771C351.422 165.663 351.425 165.546 351.459 165.441C351.492 165.337 351.554 165.257 351.631 165.216L352.408 164.809C352.56 164.73 352.744 164.846 352.801 165.062C352.829 165.17 352.825 165.287 352.792 165.392C352.758 165.496 352.696 165.576 352.62 165.617L351.843 166.024C351.808 166.043 351.772 166.052 351.737 166.052Z" fill="#BCBEC0"/>
<path d="M358.256 154.638C358.076 154.638 357.929 154.432 357.929 154.179C357.922 152.538 357.378 151.198 356.396 150.41C355.192 149.444 353.521 149.451 352.333 150.43C351.657 150.989 350.851 152.09 350.858 154.172C350.858 154.427 350.713 154.636 350.533 154.638H350.531C350.35 154.638 350.203 154.432 350.203 154.177C350.196 152.209 350.834 150.596 352.002 149.631C353.381 148.493 355.321 148.483 356.72 149.605C357.915 150.564 358.577 152.186 358.584 154.172C358.584 154.427 358.438 154.636 358.258 154.638C358.258 154.638 358.258 154.638 358.256 154.638Z" fill="#231F20"/>
<path d="M354.712 149.178L353.986 149.169C353.988 149.091 354.085 141.175 359.649 141.175V142.12C354.795 142.12 354.713 149.107 354.712 149.178Z" fill="#231F20"/>
<path d="M373.185 163.623C373.135 149.975 370.666 144.876 368.604 143.005C367.497 142.002 366.704 142.035 366.667 142.037V141.129C366.667 141.129 367.692 141.228 369.037 142.419C371.232 144.363 373.861 149.621 373.911 163.621L373.185 163.623Z" fill="#231F20"/>
<path d="M375.215 164.347C375.215 165.314 374.432 166.096 373.466 166.096C372.499 166.096 371.717 165.314 371.717 164.347C371.717 163.382 372.499 162.598 373.466 162.598C374.431 162.598 375.215 163.382 375.215 164.347Z" fill="#8D8F90"/>
<path d="M375.033 164.347C375.033 165.213 374.332 165.916 373.466 165.916C372.6 165.916 371.898 165.215 371.898 164.347C371.898 163.482 372.599 162.781 373.466 162.781C374.332 162.781 375.033 163.482 375.033 164.347Z" fill="#BCBEC0"/>
<path d="M374.555 164.347C374.555 164.949 374.068 165.436 373.466 165.436C372.864 165.436 372.378 164.949 372.378 164.347C372.378 163.745 372.866 163.259 373.466 163.259C374.066 163.259 374.555 163.745 374.555 164.347Z" fill="#58595B"/>
<path d="M379.794 148.771C379.794 148.771 391.908 152.4 391.908 192.525C389.862 192.525 385.082 192.525 385.082 192.525C385.082 192.525 384.693 171.525 380.462 164.48C380.078 154.027 379.794 148.771 379.794 148.771Z" fill="#F1F2F2"/>
<path opacity="0.2" d="M380.842 216.023C378.548 216.56 376.58 216.893 374.909 217.084C374.769 217.103 374.629 217.117 374.494 217.128C371.565 217.44 369.586 217.316 368.368 217.128C376.962 199.166 380.464 164.48 380.464 164.48C380.924 183.942 379.462 190.322 380.842 216.023Z" fill="#B5B6B6"/>
<path d="M346 148.728L333.413 157.206L326.49 137.19L320.825 139.495C320.825 139.495 324.598 163.742 331.818 167.11C335.086 168.635 345.385 162.218 345.385 162.218L346 148.728Z" fill="#F1F2F2"/>
<path d="M314.5 134.648L314.523 167.638L334.619 167.622H335.196L334.891 134.634L314.704 134.648H314.5Z" fill="#404040"/>
<path d="M315.134 135.673L315.155 166.617L334.005 166.604L334.546 166.603L334.261 135.659L315.325 135.671L315.134 135.673Z" fill="#E6E7E8"/>
<path d="M335.163 134.634H334.533L334.558 167.624H335.195L335.163 134.634Z" fill="#666666"/>
<path d="M328.849 134.638L320.135 134.645L320.136 136.349L328.972 136.342L328.849 134.638Z" fill="#666666"/>
<path d="M316.702 141.103L332.494 141.979L332.002 143.046L316.722 142.48L316.702 141.103Z" fill="#F1F2F2"/>
<path d="M316.755 144.951L332.547 145.827L332.055 146.895L316.774 146.328L316.755 144.951Z" fill="#F1F2F2"/>
<path d="M316.808 148.799L332.599 149.675L332.108 150.743L316.828 150.176L316.808 148.799Z" fill="#F1F2F2"/>
<path d="M320.828 155.459L327.55 155.149L327.612 159.858L321.073 159.978L320.828 155.459Z" fill="#F1F2F2"/>
<path d="M322.752 157.652L323.517 159.421L329.476 154.946L328.973 154.124L323.892 157.718L323.558 156.918L322.752 157.652Z" fill="#00A79D"/>
<path d="M322.419 138.454L321.208 138.656L320.919 137.371L320.054 133.496L321.771 133.412L322.309 137.594L322.419 138.454Z" fill="#FCAE88"/>
<path d="M327.42 138.652L326.395 138.155L326.409 137.557L326.524 132.894L328.94 133.292L327.616 137.955L327.42 138.652Z" fill="#FCAE88"/>
<path d="M324.301 137.383L323.334 137.323L323.024 136.512L321.73 133.145L323.759 132.676L324.185 136.371L324.301 137.383Z" fill="#FCAE88"/>
<path d="M326.193 138.015L325.018 137.806L324.777 136.815L323.727 132.478L326.283 132.195L326.211 136.852L326.193 138.015Z" fill="#FCAE88"/>
<path d="M327.42 138.652L326.395 138.155L326.409 137.557L327.617 137.955L327.42 138.652Z" fill="#BD8366"/>
<path d="M326.194 138.015L325.018 137.806L324.777 136.815L326.211 136.852L326.194 138.015Z" fill="#BD8366"/>
<path d="M324.301 137.383L323.334 137.323L323.024 136.512L324.186 136.37L324.301 137.383Z" fill="#BD8366"/>
<path d="M322.419 138.454L321.208 138.656L320.92 137.371L322.309 137.594L322.419 138.454Z" fill="#BD8366"/>
<path d="M380.775 194.841V200.135L381.631 200.132V196.09H390.244V200.095L391.099 200.091V194.841H380.775Z" fill="#414042"/>
<path d="M376.078 198.957H372.676V199.96H376.078V198.957Z" fill="#414042"/>
<path d="M396.976 198.956H393.573V199.96H396.976V198.956Z" fill="#414042"/>
<path d="M391.031 195.621C391.031 195.974 390.746 196.259 390.394 196.259H381.477C381.127 196.259 380.842 195.974 380.842 195.621C380.842 195.269 381.127 194.984 381.477 194.984H390.396C390.746 194.984 391.031 195.269 391.031 195.621Z" fill="#414042"/>
<path d="M381.845 196.384C381.845 196.639 381.638 196.846 381.383 196.846C381.128 196.846 380.921 196.639 380.921 196.384V196.083C380.921 195.828 381.128 195.621 381.383 195.621C381.638 195.621 381.845 195.828 381.845 196.083V196.384Z" fill="#414042"/>
<path d="M383.145 196.384C383.145 196.639 382.938 196.846 382.683 196.846C382.428 196.846 382.221 196.639 382.221 196.384V196.083C382.221 195.828 382.428 195.621 382.683 195.621C382.938 195.621 383.145 195.828 383.145 196.083V196.384Z" fill="#414042"/>
<path d="M384.447 196.384C384.447 196.639 384.24 196.846 383.985 196.846C383.73 196.846 383.523 196.639 383.523 196.384V196.083C383.523 195.828 383.73 195.621 383.985 195.621C384.24 195.621 384.447 195.828 384.447 196.083V196.384Z" fill="#414042"/>
<path d="M385.748 196.384C385.748 196.639 385.541 196.846 385.286 196.846C385.031 196.846 384.824 196.639 384.824 196.384V196.083C384.824 195.828 385.031 195.621 385.286 195.621C385.541 195.621 385.748 195.828 385.748 196.083V196.384Z" fill="#414042"/>
<path d="M387.05 196.384C387.05 196.639 386.843 196.846 386.588 196.846C386.333 196.846 386.126 196.639 386.126 196.384V196.083C386.126 195.828 386.333 195.621 386.588 195.621C386.843 195.621 387.05 195.828 387.05 196.083V196.384Z" fill="#414042"/>
<path d="M388.35 196.384C388.35 196.639 388.143 196.846 387.888 196.846C387.633 196.846 387.426 196.639 387.426 196.384V196.083C387.426 195.828 387.633 195.621 387.888 195.621C388.143 195.621 388.35 195.828 388.35 196.083V196.384Z" fill="#414042"/>
<path d="M389.652 196.384C389.652 196.639 389.445 196.846 389.19 196.846C388.935 196.846 388.728 196.639 388.728 196.384V196.083C388.728 195.828 388.935 195.621 389.19 195.621C389.445 195.621 389.652 195.828 389.652 196.083V196.384Z" fill="#414042"/>
<path d="M390.953 196.384C390.953 196.639 390.746 196.846 390.491 196.846C390.236 196.846 390.029 196.639 390.029 196.384V196.083C390.029 195.828 390.236 195.621 390.491 195.621C390.746 195.621 390.953 195.828 390.953 196.083V196.384Z" fill="#414042"/>
<path d="M398.844 200.716V220.433C398.844 220.929 398.444 221.329 397.952 221.329H366.675C366.183 221.329 365.783 220.929 365.783 220.433V200.716C365.783 200.222 366.183 199.82 366.675 199.82H397.952C398.444 199.82 398.844 200.222 398.844 200.716Z" fill="#802629"/>
<path opacity="0.44" d="M374.353 221.329H366.675C366.183 221.329 365.783 220.928 365.783 220.433V206.602C367.888 211.357 371.094 217.799 374.353 221.329Z" fill="#601D1F"/>
<path d="M402.469 200.716V220.433C402.469 220.928 402.069 221.329 401.575 221.329H370.301C369.807 221.329 369.407 220.928 369.407 220.433V200.716C369.407 200.222 369.808 199.82 370.301 199.82H401.575C401.745 199.82 401.903 199.868 402.035 199.95C402.294 200.107 402.469 200.392 402.469 200.716Z" fill="#E24348"/>
<path d="M390.854 209.441H386.42V205.009H384.154V209.441H379.72V211.709H384.154V216.142H386.42V211.709H390.854V209.441Z" fill="#F1F2F2"/>
<path opacity="0.26" d="M402.469 200.716V220.433C402.469 220.928 402.069 221.328 401.575 221.328H371.666C391.062 218.62 399.072 206.513 402.036 199.949C402.294 200.107 402.469 200.392 402.469 200.716Z" fill="#AA3236"/>
<path opacity="0.6" d="M379.72 200.309C379.72 200.405 379.642 200.482 379.547 200.482H370.635C370.54 200.482 370.462 200.405 370.462 200.309C370.462 200.213 370.54 200.135 370.635 200.135H379.547C379.642 200.135 379.72 200.213 379.72 200.309Z" fill="#E6E7E8"/>
<path opacity="0.6" d="M370.461 215.483C370.461 215.591 370.373 215.68 370.265 215.68C370.157 215.68 370.068 215.591 370.068 215.483V206.896C370.068 206.788 370.157 206.699 370.265 206.699C370.373 206.699 370.461 206.788 370.461 206.896V215.483Z" fill="#E6E7E8"/>
<path d="M391.249 192.531L391.067 193.179L389.401 199.079H388.624L387.854 197.672L387.801 199.079H386.473L386.087 197.827L385.705 199.079H384.496L384.158 197.341L383.662 198.912L382.034 198.157L383.611 194.837L383.434 194.844L381.217 194.848V193.751L382.363 193.6L383.637 193.244L385.866 192.547L385.935 192.526L391.249 192.531Z" fill="#FCAE88"/>
<path opacity="0.26" d="M382.363 193.6C382.059 193.891 381.669 194.213 381.22 194.478V193.751L382.363 193.6Z" fill="#BD8366"/>
<path opacity="0.26" d="M391.25 192.531L391.068 193.179C389.193 193.154 386.461 192.66 385.867 192.547L385.936 192.526L391.25 192.531Z" fill="#BD8366"/>
<path opacity="0.11" d="M344.949 216.023C346.383 189.353 344.751 183.489 345.387 162.225C345.413 162.791 347.029 197.029 348.927 216.811C347.727 216.62 346.405 216.362 344.949 216.023Z" fill="#B5B6B6"/>
</svg>
