<svg width="272" height="353" viewBox="0 0 272 353" fill="none" xmlns="http://www.w3.org/2000/svg">
<path fill-rule="evenodd" clip-rule="evenodd" d="M107.996 175.816L139.82 269.675L163.053 338.861L178.975 338.372L152.471 174.452L107.996 175.816Z" fill="#191847"/>
<path fill-rule="evenodd" clip-rule="evenodd" d="M99.9932 176.062C100.282 224.932 98.4578 251.648 97.8204 256.108C97.1829 260.568 86.7632 289.139 66.5612 341.82L83.0552 341.314C109.102 290.571 123.634 261.874 126.653 255.224C129.671 248.573 138.857 221.631 152.559 174.449L99.9932 176.062Z" fill="#2F3676"/>
<path fill-rule="evenodd" clip-rule="evenodd" d="M65.3552 352.709L65.8662 340.029L83.1968 339.598C95.6804 345.622 115.637 349.048 115.637 349.048L115.696 351.459L84.3363 352.238L73.5779 351.298L73.6078 352.504L65.3552 352.709Z" fill="#191847"/>
<path fill-rule="evenodd" clip-rule="evenodd" d="M161.087 350.332L161.598 337.652L178.928 337.222C191.412 343.245 211.368 346.671 211.368 346.671L211.428 349.082L180.068 349.861L169.309 348.922L169.339 350.127L161.087 350.332Z" fill="#191847"/>
<path d="M151.928 111.043C145.885 100.166 134.302 91.1513 125.489 89.137L127.755 105.756L139.841 129.173H173.834V116.331C171.568 118.346 157.971 121.921 151.928 111.043Z" fill="#2F2F3D"/>
<path fill-rule="evenodd" clip-rule="evenodd" d="M154.949 22.6617C154.949 32.6745 148.523 40.7911 140.596 40.7911C132.67 40.7911 126.244 32.6745 126.244 22.6617C126.244 12.6489 132.67 4.5322 140.596 4.5322C148.523 4.5322 154.949 12.6489 154.949 22.6617Z" fill="#19141E"/>
<path d="M143.693 9.87972C143.693 9.87972 151.02 10.1214 150.779 37.2401C150.658 50.5955 152.863 63.407 147.213 70.4775C141.563 77.548 130.474 79.5422 116.801 79.5422C93.0664 79.5422 82.4455 65.6581 83.4125 37.8142C84.3794 9.97037 129.673 3.338 143.693 9.87972Z" fill="#FFA180"/>
<path d="M146.399 45.4739C146.399 45.4739 146.52 37.5876 153.953 37.4667C161.386 37.3459 163.017 47.3926 157.775 50.3689C152.532 53.3451 147.003 51.2149 146.399 45.4739Z" fill="#FFA180"/>
<path d="M151.248 48.5401C150.986 47.6485 150.889 46.7168 150.961 45.7904C151.019 44.8467 151.244 43.9208 151.626 43.0559C152.032 42.1522 152.681 41.3784 153.499 40.8199C154.328 40.3049 155.323 40.1266 156.279 40.3214C155.476 40.6048 154.734 41.0351 154.088 41.5904C153.529 42.164 153.078 42.8346 152.759 43.5696C152.115 45.1803 151.609 46.8432 151.248 48.5401Z" fill="#534248"/>
<path d="M151.687 44.5974C152.057 44.1754 152.524 43.8489 153.047 43.6456C153.562 43.4392 154.109 43.3218 154.664 43.2981C155.219 43.2593 155.776 43.3404 156.298 43.5359C156.819 43.7314 157.292 44.0368 157.685 44.4312C157.111 44.4312 156.612 44.4312 156.174 44.4312H154.739C153.757 44.5672 152.76 44.6427 151.687 44.5974Z" fill="#534248"/>
<path d="M113.297 45.4732C113.289 45.6054 113.321 45.7369 113.388 45.8509C113.491 45.9619 113.621 46.0449 113.765 46.0926C114.161 46.2285 114.572 46.3148 114.989 46.3495C116.547 46.4414 118.091 46.0049 119.37 45.1106C121.002 44.038 119.083 42.9955 117.965 42.7387C116.077 42.2855 113.312 43.1013 113.297 45.4732Z" fill="#2F2F3D"/>
<path d="M140.386 39.0837C140.341 39.2108 140.341 39.3494 140.386 39.4765C140.429 39.6227 140.519 39.7504 140.643 39.8391C140.953 40.1196 141.298 40.3583 141.67 40.5491C143.078 41.2299 144.673 41.4213 146.203 41.093C148.121 40.7153 146.746 39.0233 145.81 38.3434C144.178 37.2103 141.292 36.8628 140.386 39.0837Z" fill="#2F2F3D"/>
<path d="M125.852 76.097V97.5805L114.899 95.5107L109.475 91.0539L111.514 76.097H125.852Z" fill="#FFA180"/>
<path d="M134.175 47.5282C135.233 49.039 136.184 50.6253 137.197 52.1965C138.209 53.7678 139.055 55.3843 139.931 57.0008L140.097 57.3181L139.795 57.4994C137.982 58.557 136.139 59.5843 134.22 60.521C135.897 59.2217 137.635 58.0433 139.417 56.9102L139.297 57.4088C138.375 55.8073 137.499 54.1908 136.638 52.5592C135.776 50.9275 134.915 49.2203 134.175 47.5282Z" fill="#534248"/>
<path d="M144.933 50.625C144.933 52.1358 144.389 53.3596 143.694 53.3596C142.999 53.3596 142.456 52.1358 142.456 50.625C142.456 49.1143 143.015 47.9056 143.694 47.9056C144.374 47.9056 144.933 49.1143 144.933 50.625Z" fill="#534248"/>
<path d="M121.274 53.3601C121.274 54.8709 120.715 56.0795 120.036 56.0795C119.356 56.0795 118.797 54.8558 118.797 53.3601C118.797 51.8644 119.356 50.6255 120.036 50.6255C120.715 50.6255 121.274 51.8493 121.274 53.3601Z" fill="#534248"/>
<path d="M91.3138 57.0306C91.3138 57.0306 91.1929 49.1443 83.7599 49.0234C76.3268 48.9026 74.6951 58.9493 79.9376 61.9407C85.18 64.9321 90.7246 62.7716 91.3138 57.0306Z" fill="#FFA180"/>
<path d="M86.4965 60.0986C86.7587 59.2123 86.8559 58.2855 86.7835 57.3641C86.7259 56.4155 86.5009 55.4845 86.1188 54.6144C85.7171 53.7077 85.0677 52.9327 84.2454 52.3784C83.4137 51.8706 82.4219 51.6927 81.4656 51.8799C82.2682 52.1633 83.0111 52.5937 83.6562 53.1489C84.2158 53.7225 84.6664 54.3931 84.9857 55.1281C85.6301 56.7388 86.1356 58.4017 86.4965 60.0986Z" fill="#534248"/>
<path d="M86.0293 56.155C85.6587 55.7372 85.1921 55.4157 84.6696 55.2183C84.1551 55.0071 83.6085 54.8845 83.0531 54.8558C82.4979 54.8199 81.9415 54.9023 81.4206 55.0977C80.8997 55.293 80.4262 55.5968 80.0315 55.9889C80.6056 55.9889 81.1042 55.9889 81.5423 55.9889C81.9804 55.9889 82.4941 55.9889 82.9776 55.9889C83.9596 56.1248 84.8962 56.2004 86.0293 56.155Z" fill="#534248"/>
<path d="M154.512 171.983L99.3686 173.741V135.215L100.879 126.151C95.088 120.863 84.5628 108.626 88.793 101.978C93.0232 95.3306 101.634 91.4026 111.454 88.381C112.21 89.1364 115.987 95.1795 121.275 93.6687C126.563 92.158 124.734 92.9133 124.734 91.4026C137.576 93.6687 136.317 108.777 140.598 113.309L149.225 123.129L154.512 171.983Z" fill="#2F2F3D"/>
<path d="M84.0924 130.526C86.4341 178.236 130.368 150.634 130.368 150.634C130.085 146.704 128.906 142.89 126.923 139.485C103.189 158.46 100.394 134.121 100.394 134.121L84.0924 130.526Z" fill="#FFA180"/>
<path d="M84.0924 130.526C86.4341 178.236 130.368 150.634 130.368 150.634C130.085 146.704 128.906 142.89 126.923 139.485C103.189 158.46 100.394 134.121 100.394 134.121L84.0924 130.526Z" fill="#FFA180"/>
<path d="M90.7415 55.8992C85.7285 47.3889 81.6767 49.1007 79.4105 50.6115C78.1122 46.8889 75.8222 35.9924 75.1267 31.4008C73.2616 19.1119 82.2695 7.89994 89.5454 4.68041C96.9105 1.42226 109.61 -3.0928 128.198 3.03608C140.695 7.15936 148.683 -2.71224 156.037 1.50386C168.603 8.71027 156.915 40.2603 125.051 32.2454C102.259 26.512 101.673 27.9502 101.478 32.1177C100.846 45.5886 95.8376 53.5135 90.7415 55.8992Z" fill="#2F2F3D"/>
<path fill-rule="evenodd" clip-rule="evenodd" d="M127.643 91.3338L129.268 91.3984L128.048 84.054L125.443 83.9312L121.513 89.9213L117.648 83.5593L107.87 83.0939L105.095 90.438L110.669 90.6594L122.465 106.91L127.643 91.3338Z" fill="#FCBDA4"/>
<path fill-rule="evenodd" clip-rule="evenodd" d="M115.084 85.3601L112.271 92.2572L119.821 89.6853L115.084 85.3601ZM127.248 86.298L122.718 90.0025L128.78 92.7268L127.248 86.298Z" fill="#EA847A"/>
<path d="M123 62.8967C124.875 64.9312 127.092 66.4557 129.5 67.3665C130.67 67.7934 131.881 68.0324 133.102 68.0775C134.355 68.196 135.621 68.0775 137 68.0775C135.838 68.962 134.534 69.5391 133.173 69.7706C131.776 70.0197 130.351 69.8988 128.998 69.4163C127.644 68.9338 126.394 68.1013 125.336 66.977C124.284 65.8755 123.48 64.4719 123 62.8967Z" fill="#534248"/>
<path d="M31.2061 130.053L31.349 233.501L240.296 233.136L240.154 129.688L31.2061 130.053Z" fill="#B3ED8E"/>
<path d="M135.691 149.836C116.737 149.87 101.392 164.124 101.416 181.674C101.44 199.224 116.825 213.424 135.778 213.391C154.732 213.358 170.077 199.104 170.053 181.554C170.029 164.004 154.644 149.803 135.691 149.836Z" fill="#C5FFA1"/>
<path d="M41.1557 222.899L41.0421 140.627L230.344 140.3L230.458 222.572L41.1557 222.899ZM44.4154 143.982L44.5156 219.529L227.089 219.213L226.984 143.671L44.4154 143.982Z" fill="#C5FFA1"/>
<path d="M148.261 183.201C147.33 181.725 146.015 180.529 144.457 179.742C142.849 178.971 141.165 178.367 139.433 177.939L139.388 170.487C139.518 170.567 139.644 170.653 139.765 170.746C140.739 171.512 141.385 172.77 141.686 174.52L148.585 174.173C148.579 172.747 148.267 171.339 147.67 170.043C147.073 168.748 146.206 167.595 145.126 166.664C143.463 165.328 141.466 164.473 139.352 164.191L139.32 158.815L132.744 158.848L132.777 164.066C131.376 164.224 130.005 164.581 128.704 165.126C126.969 165.835 125.487 167.052 124.454 168.617C123.495 170.069 122.99 171.773 123.002 173.513C122.996 174.82 123.279 176.113 123.83 177.299C124.381 178.485 125.186 179.535 126.189 180.374C127.537 181.558 129.769 182.574 132.884 183.42L132.938 192.96C132.248 192.72 131.607 192.358 131.045 191.891C129.798 190.84 128.974 189.19 128.554 186.938L121.843 187.632C122.314 191.451 123.715 194.354 126.044 196.341C127.787 197.823 130.094 198.746 132.967 199.107L133.001 204.358L139.572 204.321L139.542 199.026C140.876 198.853 142.183 198.509 143.43 198.003C145.325 197.234 146.933 195.892 148.027 194.165C149.039 192.524 149.591 190.643 149.627 188.716C149.663 186.79 149.182 184.89 148.233 183.213L148.261 183.201ZM130.642 175.084C130.322 174.842 130.063 174.529 129.882 174.17C129.702 173.812 129.607 173.416 129.603 173.015C129.591 172.598 129.684 172.185 129.874 171.814C130.063 171.442 130.343 171.125 130.688 170.89C131.327 170.435 132.049 170.108 132.812 169.926L132.847 176.174C132.06 175.934 131.316 175.567 130.646 175.088L130.642 175.084ZM141.077 192.012C140.616 192.396 140.09 192.696 139.525 192.899L139.482 185.156L139.539 185.171C140.482 185.437 141.341 185.942 142.031 186.639C142.515 187.214 142.773 187.947 142.754 188.699C142.749 189.343 142.596 189.978 142.306 190.553C142.016 191.128 141.597 191.629 141.081 192.016L141.077 192.012Z" fill="#B3ED8E"/>
<path d="M42.9354 163.155L42.9053 142.325L63.7356 142.287C63.7397 145.022 63.205 147.732 62.1619 150.261C61.1188 152.791 59.5878 155.09 57.6563 157.028C55.7247 158.966 53.4306 160.504 50.9048 161.555C48.3789 162.607 45.6709 163.15 42.9354 163.155Z" fill="#C5FFA1"/>
<path d="M63.7051 220.833L42.8749 220.87L42.8447 200.04C45.5802 200.032 48.2902 200.563 50.82 201.603C53.3498 202.643 55.6498 204.171 57.5887 206.099C59.5277 208.028 61.0675 210.32 62.1204 212.845C63.1732 215.369 63.7184 218.077 63.7248 220.812L63.7051 220.833Z" fill="#C5FFA1"/>
<path d="M228.666 163C225.931 163.005 223.221 162.471 220.693 161.429C218.164 160.387 215.865 158.857 213.928 156.926C211.991 154.995 210.453 152.702 209.403 150.176C208.353 147.651 207.81 144.943 207.806 142.207L228.632 142.166L228.666 163Z" fill="#C5FFA1"/>
<path d="M228.595 220.727L207.764 220.764C207.76 218.029 208.295 215.319 209.338 212.79C210.381 210.26 211.912 207.961 213.844 206.023C215.775 204.086 218.069 202.547 220.595 201.496C223.121 200.444 225.829 199.901 228.565 199.896L228.595 220.727Z" fill="#C5FFA1"/>
<path d="M70.5461 174.409C66.5324 176.405 64.8959 181.277 66.8908 185.29C68.8857 189.303 73.7566 190.937 77.7703 188.941C81.7839 186.944 83.4204 182.073 81.4255 178.06C79.4306 174.047 74.5597 172.412 70.5461 174.409Z" fill="#C5FFA1"/>
<path d="M202.379 175.097C198.837 172.352 193.739 173 190.993 176.544C188.247 180.087 188.893 185.185 192.435 187.93C195.978 190.674 201.075 190.027 203.821 186.483C206.567 182.939 205.922 177.842 202.379 175.097Z" fill="#C5FFA1"/>
<path d="M123.221 139.484C123.221 139.484 128.222 133.683 132.165 134.151C136.108 134.62 130.322 140.195 130.322 140.195C130.322 140.195 147.107 136.267 148.285 139.832C148.92 141.72 146.049 143.911 146.049 143.911C146.049 143.911 148.33 152.009 138.223 154.351C128.116 156.692 124.626 150.12 124.626 150.12L123.221 139.484Z" fill="#FFA180"/>
<path d="M145.745 148.822C141.755 149.878 137.577 150.023 133.523 149.245L145.745 148.822Z" fill="#534248"/>
<path d="M146.051 143.956C146.051 143.956 140.008 145.256 136.669 143.956H146.051Z" fill="#534248"/>
<path d="M124.292 137.991C105.407 150.077 105.978 135.72 105.726 132.195C104.213 122.375 108.749 116.331 108.749 108.022C108.749 101.375 106.164 101.732 103.142 101.732C75.1894 115.329 84.5756 147.152 93.6403 155.612C102.705 164.072 119.508 158.89 128.069 154.609C126.256 151.588 124.796 142.02 124.292 137.991Z" fill="#252531"/>
<path d="M124.296 138.993C105.41 151.079 103.396 137.23 103.144 133.705C101.631 123.885 106.167 117.842 106.167 109.532C106.167 102.885 101.131 96.1872 98.6132 93.6692C70.6604 107.266 81.9934 148.662 91.0582 157.122C100.123 165.583 119.511 159.137 128.072 154.856C126.26 151.835 124.799 143.022 124.296 138.993Z" fill="#2F2F3D"/>
<path d="M181.832 118.81C181.832 118.81 184.65 128.131 181.162 131.664C177.674 135.198 176.726 127.655 176.726 127.655C176.726 127.655 175.844 132.205 173.802 132.719C171.761 133.232 172.322 127.276 172.322 127.276C172.322 127.276 171.044 135.26 168.462 133.962C165.88 132.663 168.863 126.256 168.863 126.256C168.863 126.256 164.518 132.906 162.626 130.593C160.735 128.279 162.634 121.212 162.634 121.212C162.634 121.212 166.911 102.956 181.832 118.81Z" fill="#FFA180"/>
</svg>
