<svg width="71" height="70" viewBox="0 0 71 70" fill="none" xmlns="http://www.w3.org/2000/svg">
<rect x="0.5" width="70" height="70" rx="8" fill="#FFBF5F"/>
<rect x="19.5" y="27.1571" width="29.5652" height="21.8429" rx="5" stroke="white" stroke-width="2"/>
<path d="M42.9348 38.5554C42.9348 37.0008 44.1951 35.7405 45.7497 35.7405H49.587C50.0912 35.7405 50.5 36.1493 50.5 36.6536V40.4572C50.5 40.9615 50.0912 41.3703 49.587 41.3703H45.7497C44.1951 41.3703 42.9348 40.11 42.9348 38.5554Z" fill="white" stroke="white" stroke-width="2"/>
<mask id="path-5-inside-1" fill="white">
<path fill-rule="evenodd" clip-rule="evenodd" d="M26.1313 26.6339L36.1261 20.9013C38.0424 19.8022 40.4957 20.4595 41.6058 22.3695L44.0841 26.6339H46.3973L43.3407 21.3745C41.6756 18.5094 37.9956 17.5234 35.1211 19.1721L22.76 26.2619C22.5602 26.3765 22.3696 26.5008 22.1884 26.6339H26.1313Z"/>
</mask>
<path d="M36.1261 20.9013L37.1211 22.6362L36.1261 20.9013ZM26.1313 26.6339V28.6339H26.6641L27.1263 28.3688L26.1313 26.6339ZM41.6058 22.3695L43.3349 21.3646L43.3349 21.3646L41.6058 22.3695ZM44.0841 26.6339L42.3549 27.6388L42.9332 28.6339H44.0841V26.6339ZM46.3973 26.6339V28.6339H49.8728L48.1264 25.6289L46.3973 26.6339ZM43.3407 21.3745L45.0698 20.3695L45.0698 20.3695L43.3407 21.3745ZM35.1211 19.1721L36.1162 20.907L35.1211 19.1721ZM22.76 26.2619L21.765 24.527L21.765 24.527L22.76 26.2619ZM22.1884 26.6339L21.0047 25.0218L16.0853 28.6339H22.1884V26.6339ZM35.131 19.1664L25.1362 24.899L27.1263 28.3688L37.1211 22.6362L35.131 19.1664ZM43.3349 21.3646C41.6721 18.5034 38.0016 17.5199 35.131 19.1664L37.1211 22.6362C38.0832 22.0844 39.3193 22.4156 39.8766 23.3745L43.3349 21.3646ZM45.8133 25.6289L43.3349 21.3646L39.8766 23.3745L42.3549 27.6388L45.8133 25.6289ZM44.0841 28.6339H46.3973V24.6339H44.0841V28.6339ZM48.1264 25.6289L45.0698 20.3695L41.6115 22.3794L44.6681 27.6388L48.1264 25.6289ZM45.0698 20.3695C42.852 16.5533 37.9548 15.2412 34.1261 17.4372L36.1162 20.907C38.0364 19.8056 40.4992 20.4655 41.6115 22.3794L45.0698 20.3695ZM34.1261 17.4372L21.765 24.527L23.7551 27.9968L36.1162 20.907L34.1261 17.4372ZM21.765 24.527C21.5 24.679 21.2463 24.8443 21.0047 25.0218L23.3721 28.246C23.4929 28.1573 23.6205 28.074 23.7551 27.9968L21.765 24.527ZM22.1884 28.6339H26.1313V24.6339H22.1884V28.6339Z" fill="white" mask="url(#path-5-inside-1)"/>
<line y1="-1" x2="12.2711" y2="-1" transform="matrix(0.862584 -0.505914 0.508127 0.861282 31.5 28.2082)" stroke="white" stroke-width="2"/>
<line y1="-1" x2="5.77111" y2="-1" transform="matrix(0.878601 -0.477556 0.479724 0.87742 39.5 27.7561)" stroke="white" stroke-width="2"/>
<ellipse cx="45.2824" cy="38.5554" rx="1.43478" ry="1.43057" fill="#FFBF5F"/>
</svg>
