<svg width="90" height="23" viewBox="0 0 90 23" fill="none" xmlns="http://www.w3.org/2000/svg">
<path d="M22.6089 0.249573C22.603 0.184929 22.5753 0.124517 22.5307 0.0790007C22.486 0.0334843 22.4273 0.00579152 22.3648 0.000811598C22.3024 -0.00416833 22.2403 0.0138847 22.1894 0.0517836C22.1386 0.0896825 22.1023 0.144989 22.0869 0.207941C21.6329 2.23191 20.453 5.12054 17.3735 6.41114C16.8816 6.62826 16.361 6.76752 15.8292 6.82425C15.7726 6.82826 15.7187 6.85047 15.675 6.88779C15.6312 6.92512 15.5998 6.97568 15.5852 7.03242C14.081 13.7896 12.8053 16.6398 11.6903 17.2579C11.6549 17.2784 11.615 17.2891 11.5745 17.2891C11.5339 17.2891 11.494 17.2784 11.4586 17.2579C10.3282 16.643 9.05253 13.7896 7.54832 7.03242C7.53365 6.97568 7.50224 6.92512 7.45849 6.88779C7.41474 6.85047 7.36084 6.82826 7.30431 6.82425C6.77248 6.76752 6.25188 6.62826 5.75996 6.41114C2.67124 5.13015 1.50061 2.24792 1.04657 0.207941C1.03123 0.144989 0.994932 0.0896825 0.944082 0.0517836C0.893233 0.0138847 0.831104 -0.00416833 0.768665 0.000811598C0.706225 0.00579152 0.647491 0.0334843 0.602831 0.0790007C0.55817 0.124517 0.530455 0.184929 0.52458 0.249573C0.388676 3.01331 0.719169 7.71134 4.03027 10.5487C4.07167 10.5814 4.10109 10.6277 4.11367 10.68C4.3793 11.7497 7.31667 23.2209 11.5729 22.9968C15.8323 23.2209 18.7696 11.7497 19.0353 10.68C19.0478 10.6277 19.0773 10.5814 19.1187 10.5487C22.4143 7.71134 22.7448 3.01331 22.6089 0.249573Z" fill="#68A3EE"/>
<path d="M30.9039 23.0001V21.4084C30.0547 22.408 28.5842 23.0001 26.9608 23.0001C24.9783 23.0001 22.6337 21.6663 22.6337 18.8967C22.6337 15.9999 24.9783 14.8953 26.9608 14.8953C28.6092 14.8953 30.0828 15.4332 30.9039 16.4105V14.7425C30.9039 13.4691 29.8205 12.6637 28.1721 12.6637C26.8237 12.6628 25.5255 13.1852 24.5412 14.1249L23.2924 11.9475C24.818 10.6546 26.7476 9.96228 28.731 9.99605C31.5657 9.99605 34.1664 11.1261 34.1664 14.6915V23.0001H30.9039ZM30.9039 19.7181V18.1805C30.3638 17.461 29.3429 17.1013 28.2751 17.1013C26.9889 17.1013 25.9305 17.7698 25.9305 18.9731C25.9305 20.1287 26.9889 20.794 28.2751 20.794C29.3335 20.794 30.3638 20.4375 30.9039 19.7181Z" fill="#68A3EE"/>
<path d="M45.6776 22.9968L42.0784 17.8923L40.5831 19.4875V22.9968H37.3116V5.53931H40.5831V15.809L45.2968 10.2833H49.3174L44.3977 15.8983L49.7763 23L45.6776 22.9968Z" fill="#68A3EE"/>
<path d="M51.0579 22.9906V10.3035H54.3148V12.0086C54.7979 11.4036 55.4015 10.911 56.0853 10.5638C56.7692 10.2165 57.5175 10.0226 58.2804 9.99487V13.1762C57.9843 13.1197 57.6833 13.0941 57.3822 13.0998C56.3069 13.0998 54.8711 13.717 54.3304 14.5092V23.0001L51.0579 22.9906Z" fill="#68A3EE"/>
<path d="M59.4448 16.4863C59.4448 12.9843 61.8977 9.99487 65.956 9.99487C70.0143 9.99487 72.492 12.9652 72.492 16.4863C72.492 20.0075 70.039 23.0001 65.956 23.0001C61.873 23.0001 59.4448 20.0266 59.4448 16.4863ZM69.1204 16.4863C69.1204 14.5762 67.9728 12.8952 65.956 12.8952C63.9392 12.8952 62.8164 14.5571 62.8164 16.4863C62.8164 18.4156 63.9392 20.103 65.9684 20.103C67.9975 20.103 69.1204 18.4347 69.1204 16.4863Z" fill="#68A3EE"/>
<path d="M89.4743 15.1997C88.8536 15.0245 87.3763 14.3043 86.9915 13.1126C86.4515 11.4971 84.2697 11.6851 84.2697 11.6851C82.8313 10.5575 81.0639 9.96229 79.2545 9.99625C76.002 9.99625 74.1833 11.8189 74.1833 13.8996C74.1833 18.7781 81.5324 17.1084 81.5324 19.1636C81.5324 19.9316 80.8683 20.4987 79.4593 20.4987C77.8914 20.4297 76.389 19.8342 75.1827 18.8036L73.7737 21.0882C75.0803 22.2959 77.1534 23.0001 79.3041 23.0001C82.7366 23.0001 84.6576 21.2826 84.6576 19.0202C84.6576 14.0143 77.3334 15.5566 77.3334 13.7085C77.3334 13.0138 78.1 12.4753 79.2793 12.4753C80.383 12.4721 81.463 12.8048 82.3828 13.4312C82.6886 13.6656 82.9433 13.963 83.1307 14.3043C84.3318 16.2831 88.2577 15.8561 89.4712 15.2826C89.4794 15.2796 89.4865 15.2741 89.4917 15.2669C89.4968 15.2597 89.4998 15.2511 89.5001 15.2422C89.5004 15.2333 89.4981 15.2245 89.4935 15.2169C89.4889 15.2093 89.4822 15.2033 89.4743 15.1997Z" fill="#68A3EE"/>
</svg>
