<svg width="71" height="70" viewBox="0 0 71 70" fill="none" xmlns="http://www.w3.org/2000/svg">
<rect x="0.5" width="70" height="70" rx="8" fill="#428DFC"/>
<line x1="28.4998" y1="19.5001" x2="28.4998" y2="24.5924" stroke="white" stroke-linecap="round"/>
<line x1="35.9998" y1="19.5001" x2="35.9998" y2="24.5924" stroke="white" stroke-linecap="round"/>
<line x1="43.4999" y1="19.5001" x2="43.4999" y2="24.5924" stroke="white" stroke-linecap="round"/>
<ellipse cx="25.7501" cy="31.9462" rx="1.25" ry="1.26923" fill="white"/>
<ellipse cx="32.2499" cy="31.9462" rx="1.25" ry="1.26923" fill="white"/>
<ellipse cx="38.7498" cy="31.9462" rx="1.25" ry="1.26923" fill="white"/>
<ellipse cx="45.2502" cy="31.9462" rx="1.25" ry="1.26923" fill="white"/>
<ellipse cx="25.7501" cy="37.5308" rx="1.25" ry="1.26923" fill="white"/>
<ellipse cx="32.2499" cy="37.5308" rx="1.25" ry="1.26923" fill="white"/>
<ellipse cx="25.7501" cy="43.1154" rx="1.25" ry="1.26923" fill="white"/>
<ellipse cx="32.2499" cy="43.1154" rx="1.25" ry="1.26923" fill="white"/>
<path d="M50.4998 44.8923C50.4998 48.28 47.7992 51.0001 44.4998 51.0001C41.2004 51.0001 38.4998 48.28 38.4998 44.8923C38.4998 41.5047 41.2004 38.7846 44.4998 38.7846C47.7992 38.7846 50.4998 41.5047 50.4998 44.8923Z" stroke="white" stroke-width="2"/>
<path fill-rule="evenodd" clip-rule="evenodd" d="M24.5 23.0309H45.5C47.7091 23.0309 49.5 24.8217 49.5 27.0309V34.2311H51.4998V45.5368C51.4999 45.522 51.5 45.5073 51.5 45.4925V27.0309C51.5 23.7172 48.8137 21.0309 45.5 21.0309H24.5C21.1863 21.0309 18.5 23.7172 18.5 27.0309V45.4925C18.5 48.8062 21.1863 51.4925 24.5 51.4925H34.9998V49.4925H24.5C22.2909 49.4925 20.5 47.7016 20.5 45.4925V27.0309C20.5 24.8217 22.2909 23.0309 24.5 23.0309Z" fill="white"/>
<line x1="44.5002" y1="41.3387" x2="44.5002" y2="45.4002" stroke="white"/>
<line x1="46.5002" y1="45.3925" x2="44.0002" y2="45.3925" stroke="white"/>
</svg>
