<svg width="265" height="288" viewBox="0 0 265 288" fill="none" xmlns="http://www.w3.org/2000/svg">
<path d="M155.31 86.2658C155.31 86.2658 146.29 100.12 134.189 103.63C134.189 108.591 135.929 109 135.929 109C135.929 109 161.186 102.352 165.41 90.6439C169.634 78.9357 155.31 86.2658 155.31 86.2658Z" fill="#FDBAB2"/>
<path d="M0.0120463 147.124C-0.254346 132.53 3.90279 118.186 11.9578 105.907C20.0127 93.6274 31.6038 83.9632 45.2654 78.1363C58.9271 72.3094 74.046 70.5813 88.7102 73.1707C103.374 75.7601 116.926 82.5507 127.65 92.6838C138.375 102.817 145.791 115.837 148.962 130.099C152.133 144.361 150.915 159.223 145.463 172.807C140.012 186.391 130.57 198.087 118.333 206.415C106.097 214.743 91.6134 219.33 76.7153 219.596C66.8132 219.8 56.9675 218.085 47.7447 214.548C38.5219 211.011 30.1041 205.723 22.9754 198.988C15.8468 192.252 10.148 184.202 6.20708 175.302C2.26613 166.401 0.160772 156.824 0.0120463 147.124Z" fill="#FEE488"/>
<path d="M12.311 146.807C12.1083 134.654 15.6009 122.715 22.3479 112.497C29.0949 102.279 38.7937 94.2411 50.2198 89.3969C61.6459 84.5528 74.2868 83.1201 86.5469 85.2798C98.8069 87.4394 110.136 93.0945 119.105 101.531C128.073 109.968 134.278 120.808 136.936 132.682C139.594 144.557 138.587 156.933 134.041 168.25C129.495 179.566 121.614 189.315 111.393 196.264C101.172 203.214 89.0703 207.054 76.6145 207.299C68.3168 207.462 60.0679 206.025 52.3408 203.07C44.6137 200.115 37.5606 195.701 31.5862 190.081C25.6118 184.461 20.8336 177.745 17.5259 170.319C14.2182 162.893 12.446 154.903 12.311 146.807Z" fill="#FFBF5F"/>
<path d="M75.307 213.426C57.1799 213.419 39.7797 206.457 26.8489 194.037C13.9182 181.616 6.49007 164.73 6.16242 147.011C5.99185 138.127 7.61434 129.297 10.937 121.027C14.2597 112.756 19.2174 105.208 25.5266 98.8121C31.8358 92.4166 39.3727 87.2998 47.7062 83.7545C56.0397 80.2092 65.0065 78.3049 74.0934 78.1505H75.3438C93.4686 78.1753 110.862 85.1423 123.795 97.5578C136.727 109.973 144.169 126.849 144.525 144.566C144.86 162.502 137.896 179.835 125.165 192.754C112.434 205.673 94.9771 213.122 76.6312 213.462L75.307 213.426ZM75.307 80.5597H74.0934C65.3332 80.7188 56.6908 82.5641 48.6605 85.9904C40.6301 89.4167 33.3693 94.3567 27.2927 100.528C21.2162 106.699 16.4432 113.981 13.2467 121.957C10.0502 129.933 8.49271 138.446 8.66337 147.011C8.90968 159.85 13.0288 172.332 20.5039 182.891C27.9789 193.449 38.477 201.615 50.6809 206.362C62.8848 211.109 76.251 212.227 89.1023 209.575C101.954 206.924 113.717 200.62 122.918 191.456C132.119 182.292 138.347 170.675 140.82 158.064C143.293 145.452 141.901 132.407 136.82 120.566C131.738 108.725 123.193 98.6142 112.256 91.5034C101.319 84.3925 88.4782 80.5979 75.3438 80.5957L75.307 80.5597Z" fill="#FFBF5F"/>
<path d="M66.1859 182.447C61.2126 181.906 56.4255 180.181 52.1946 177.406L49.2041 175.256L54.7223 158.28L59.9201 161.727C63.4999 164.094 67.6416 165.377 71.8821 165.434H72.2738C75.834 165.434 79.7856 163.803 79.7144 159.688C79.7144 157.501 78.9668 154.87 70.8497 151.645C60.8101 147.938 50.4857 141.97 50.2365 128.626C50.1643 123.762 51.626 119.008 54.3974 115.091C57.1689 111.174 61.0974 108.312 65.5808 106.942L65.3672 99.9739L81.4588 99.6773L81.6724 105.608C85.5922 106.087 89.3872 107.345 92.8513 109.315L96.4114 111.427L90.644 128.144L85.6954 125.327C82.559 123.441 78.993 122.468 75.3711 122.51H74.9439C71.0278 122.51 68.7848 124.178 68.8204 126.921C68.8204 128.923 69.6037 130.628 78.8956 134.335C88.1876 138.041 98.1559 143.935 98.4051 158.428C98.4867 163.513 96.964 168.486 94.0701 172.584C91.1762 176.682 87.0711 179.678 82.3845 181.113L82.6337 188.526L66.3995 188.86L66.1859 182.447Z" fill="#FEE488"/>
<path d="M175.337 57C175.337 57 158.446 78.6984 147.189 84.1916C152.184 88.9547 157.954 92.9408 164.284 96C164.284 96 183.028 75.231 175.337 57Z" fill="#84B2FA"/>
<path fill-rule="evenodd" clip-rule="evenodd" d="M242.184 247.765L234.746 240.633L237.33 233.418L252.962 245.778L242.365 269.035C242.365 269.035 241.428 262.659 241.476 256.147C241.509 251.649 242.184 247.765 242.184 247.765ZM152.323 265.072L153.999 258.97L161.629 259.244L155.626 276.31L131.821 262.01C139.005 259.582 152.323 265.072 152.323 265.072Z" fill="#0D0B6D"/>
<path fill-rule="evenodd" clip-rule="evenodd" d="M236.622 242.45L237.439 233.412L246.602 240.662L242.185 247.765L236.622 242.45ZM155.273 254.241L163.084 255.637L158.616 267.672L152.324 265.073L155.273 254.241Z" fill="#FDBAB2"/>
<path d="M194.559 213.165C206.685 236.303 227.558 255.919 227.558 255.919L246.246 229.348C246.246 229.348 221.349 208.389 209.599 162.108C211.574 154.504 212.978 148.241 213.471 144.226C215.087 131.081 206.932 122.23 204.744 120.118H203.74L179.152 120.117C178.627 121.992 176.544 132.499 177.264 147.977C175.094 154.893 172.552 163.241 169.608 173.261C152.849 230.302 145.076 255.457 145.076 255.457L176.937 266.353C176.937 266.353 186.083 240.095 194.559 213.165V213.165Z" fill="#0D0B6D"/>
<path opacity="0.14688" fill-rule="evenodd" clip-rule="evenodd" d="M145.076 255.457L176.938 266.353C176.938 266.353 186.508 238.876 195.142 211.31C200.534 194.114 206.014 175.902 209.599 162.108C211.574 154.504 212.978 148.241 213.471 144.226C215.087 131.081 206.933 122.23 204.744 120.117H186.704C185.204 124.003 182.181 132.337 177.264 147.978C175.094 154.893 172.552 163.241 169.608 173.261C152.849 230.302 145.076 255.457 145.076 255.457" fill="white"/>
<path d="M200.383 96C200.383 96 212.387 90.7189 204.512 77.5632C197.622 66.0697 195.942 50.2853 190.42 49.2007C184.898 48.1162 172.415 51.0633 168.814 67.0363C165.213 83.0094 178.02 96.0354 186.039 95.0098C190.84 94.3981 195.717 94.7348 200.383 96Z" fill="#90B8F7"/>
<path d="M211.95 93.3089C207.494 80.1526 186.697 83.7666 176.855 87.218C151.231 137.163 182.983 121.327 198.024 131.072C213.064 140.817 234.232 130.463 228.105 121.327C221.977 112.19 217.521 109.754 211.95 93.3089Z" fill="#90B8F7"/>
<path d="M135.566 19.6198C135.566 19.6198 130.634 25.9479 134.98 35.4705C139.326 44.9931 146.713 57.5883 156.925 56.9787C167.137 56.369 191.321 40.6403 185.215 27.5086C179.109 14.3769 150.352 8 150.352 8L135.566 19.6198Z" fill="#FDBAB2"/>
<path d="M137.189 41L137.716 50L142.189 48.2358L137.189 41Z" fill="#FFABA0"/>
<path d="M167.189 50.0521L175.705 61L180.189 50.5098L176.384 43L167.189 50.0521Z" fill="#FDBAB2"/>
<path d="M147.189 49C147.844 48.5348 148.429 47.9906 148.929 47.3817C149.4 46.8103 149.756 46.1649 149.982 45.4763C150.178 44.7735 150.267 44.0488 150.249 43.323C150.249 42.9445 150.249 42.5791 150.178 42.1876C150.109 41.7943 150.062 41.3979 150.038 41C150.275 41.3404 150.491 41.6934 150.684 42.0571C150.842 42.4402 150.973 42.8326 151.076 43.2316C151.252 44.0665 151.223 44.9273 150.992 45.7504C150.735 46.5622 150.246 47.2936 149.576 47.8661C148.906 48.4386 148.081 48.8306 147.189 49Z" fill="#534248"/>
<path d="M171.189 57.7259C171.189 57.7259 171.727 52.3003 181.189 51C178.885 57.1878 177.822 62.1426 174.647 61.9969C171.471 61.8511 171.189 57.7259 171.189 57.7259Z" fill="#FDBAB2"/>
<path d="M166.536 25.7985C151.282 34.8017 130.189 19.9317 130.189 19.9317C139.614 0.758134 172.593 -18.2618 193.189 32.9569L188.343 50L184.709 40.7756L177.341 32.9569L175.016 25.6878C175.016 25.6878 169.879 22.1087 166.536 25.7985Z" fill="#534248"/>
<path d="M171.189 95.9926C171.189 95.9926 181.482 106.421 200.598 97.179C204.564 86.5015 205.923 50.6015 190.058 49.0117C182.632 48.288 183.373 81.2458 171.189 95.9926Z" fill="#A1C3FC"/>
<path d="M177.468 49.3293C175.5 47.8695 174.598 44.2605 174.393 42.6385C173.163 37.4713 171.81 26.6502 176.238 24.7038C180.667 22.7574 185.464 25.3061 187.309 26.8238C202.686 38.9889 194.075 51.1541 202.686 59.6697C209.575 66.4822 204.736 78.7284 201.456 84C200.431 81.9725 198.381 77.1875 198.381 74.2679C198.381 70.6183 191 68.7936 187.309 65.7523C183.619 62.711 182.389 60.278 182.389 56.0201C182.389 51.7623 179.929 51.1541 177.468 49.3293Z" fill="#534248"/>
<path d="M179.149 89.7968C179.149 89.7968 170.941 108.246 153.189 118.333C156.638 123.509 158.616 124 158.616 124C158.616 124 189.731 114.643 194.466 98.398C199.201 82.1527 179.149 89.7968 179.149 89.7968Z" fill="#FDBAB2"/>
<path d="M153.612 117.934C153.612 117.934 145.549 117.289 141.22 119.806C136.891 122.324 137.158 124.282 138.143 124.841C139.128 125.4 140.576 123.917 142.473 123.406C140.612 124.184 139.822 126.519 140.794 127.212C141.767 127.906 144.577 125.826 144.577 125.826C144.577 125.826 140.794 128.477 142.752 129.037C144.71 129.596 145.975 125.267 149.052 126.945C152.129 128.623 158.781 127.723 159.595 123.199C160.41 118.675 153.612 117.934 153.612 117.934Z" fill="#FDBAB2"/>
<path d="M142.472 123.406C142.472 123.406 144.077 121.74 145.549 122.044L142.472 123.406Z" fill="#FFABA0"/>
<path d="M144.018 126.203C144.018 126.203 145.416 124.379 146.693 124.476L144.018 126.203Z" fill="#FFABA0"/>
<path d="M145.922 36.5697C146.297 37.6539 146.276 38.7114 145.87 38.9523C145.463 39.1932 144.828 38.4972 144.452 37.413C144.077 36.3287 144.108 35.2713 144.515 35.0437C144.921 34.8162 145.547 35.4988 145.922 36.5697Z" fill="#534248"/>
<path d="M141.274 31.3927C141.088 31.543 141.177 31.7082 141.864 31.8184C142.799 31.9736 144.509 32.219 145.1 31.6031C145.149 31.5588 145.178 31.5086 145.187 31.4567C145.195 31.4047 145.182 31.3524 145.149 31.3038C145.116 31.2551 145.063 31.2116 144.995 31.1766C144.926 31.1417 144.845 31.1162 144.756 31.1023C144.018 30.9856 143.242 30.9685 142.49 31.0522C142.03 31.0861 141.602 31.2059 141.274 31.3927Z" fill="#534248"/>
<path d="M164.189 26.1835C164.189 26.1835 164.286 20.0902 170.457 20.0008C176.628 19.9113 178.019 27.6653 173.639 29.9647C169.259 32.264 164.685 30.6162 164.189 26.1835Z" fill="#FDBAB2"/>
<path d="M169.308 28C169.21 27.4609 169.172 26.8977 169.197 26.3372C169.215 25.7695 169.299 25.2124 169.444 24.6943C169.595 24.1473 169.837 23.6785 170.144 23.3401C170.458 23.0392 170.83 22.933 171.189 23.0414C170.887 23.2108 170.608 23.471 170.366 23.8081C170.157 24.154 169.989 24.559 169.871 25.0029C169.626 25.9716 169.438 26.9749 169.308 28Z" fill="#FFABA0"/>
<path d="M169.189 24.9889C169.37 24.6669 169.602 24.4204 169.862 24.2726C170.123 24.1134 170.4 24.0241 170.681 24.0086C170.958 23.9761 171.236 24.0356 171.496 24.1831C171.757 24.3306 171.993 24.5626 172.189 24.8633C171.903 24.8633 171.657 24.8633 171.37 24.8633C171.083 24.8633 170.894 24.8633 170.665 24.8633C170.214 24.9638 169.747 25.0266 169.189 24.9889Z" fill="#FFABA0"/>
<path d="M132.385 37C134.707 31.6575 134.9 25.465 134.707 23.0366L138.189 20.6082C137.609 18.1798 135.403 14.5372 131.225 19.394C127.046 24.2508 130.258 33.155 132.385 37Z" fill="#534248"/>
</svg>
