<svg width="71" height="70" viewBox="0 0 71 70" fill="none" xmlns="http://www.w3.org/2000/svg">
<rect x="0.5" width="70" height="70" rx="8" fill="#3ACC6C"/>
<path d="M37.1216 33.5938H33.8784C32.0308 33.5938 30.5277 32.0907 30.5277 30.2432C30.5277 28.3955 32.0309 26.8924 33.8784 26.8924H40.3646C41.2007 26.8924 41.8785 26.2146 41.8785 25.3785C41.8785 24.5424 41.2007 23.8646 40.3646 23.8646H37.0139V20.5139C37.0139 19.6778 36.3361 19 35.5 19C34.6639 19 33.9861 19.6778 33.9861 20.5139V23.8646H33.8785C30.3614 23.8646 27.5 26.7261 27.5 30.2432C27.5 33.7602 30.3615 36.6216 33.8785 36.6216H37.1217C38.9692 36.6216 40.4723 38.1248 40.4723 39.9723C40.4723 41.8199 38.9692 43.3231 37.1217 43.3231H30.6355C29.7994 43.3231 29.1216 44.0009 29.1216 44.8369C29.1216 45.673 29.7994 46.3508 30.6355 46.3508H33.9861V49.7017C33.9861 50.5377 34.6639 51.2156 35.5 51.2156C36.3361 51.2156 37.0139 50.5377 37.0139 49.7017V46.3508H37.1216C40.6386 46.3508 43.5 43.4894 43.5 39.9723C43.5 36.4552 40.6386 33.5938 37.1216 33.5938Z" fill="white"/>
</svg>
