<svg width="356" height="225" viewBox="0 0 356 225" fill="none" xmlns="http://www.w3.org/2000/svg">
<path d="M14.5 137C45.7 113 104 142 137 144.5C217.5 144.5 225.5 98.9999 293 137C360.5 175 354.5 208 309 221.5C263.5 235 261 193 140 216C19 239 -24.5 167 14.5 137Z" fill="#D9F9C5"/>
<path d="M126.611 174.761C126.194 174.761 125.793 174.596 125.498 174.301C125.203 174.007 125.037 173.608 125.037 173.191V116.286C125.038 115.869 125.205 115.47 125.501 115.176C125.797 114.882 126.198 114.716 126.616 114.716C127.033 114.718 127.433 114.883 127.728 115.178C128.022 115.472 128.189 115.87 128.19 116.286V173.191C128.189 173.608 128.022 174.007 127.726 174.302C127.43 174.596 127.029 174.761 126.611 174.761Z" fill="#89D757"/>
<path d="M247.013 146.846H247.008C246.138 146.846 245.434 147.549 245.434 148.416V173.191C245.434 174.058 246.138 174.761 247.008 174.761H247.013C247.882 174.761 248.586 174.058 248.586 173.191V148.416C248.586 147.549 247.882 146.846 247.013 146.846Z" fill="#89D757"/>
<path d="M186.802 174.761C186.596 174.762 186.391 174.722 186.199 174.643C186.008 174.564 185.834 174.449 185.688 174.303C185.542 174.157 185.426 173.984 185.347 173.793C185.268 173.602 185.228 173.398 185.229 173.191V53.4863C185.251 53.0846 185.427 52.7068 185.72 52.4304C186.014 52.154 186.402 52 186.805 52C187.208 52 187.596 52.154 187.89 52.4304C188.183 52.7068 188.359 53.0846 188.381 53.4863V173.191C188.382 173.398 188.342 173.603 188.262 173.794C188.183 173.985 188.067 174.159 187.92 174.305C187.773 174.451 187.599 174.566 187.407 174.645C187.215 174.723 187.01 174.763 186.802 174.761Z" fill="#89D757"/>
<path d="M302.706 174.761H105.174C104.756 174.761 104.356 174.596 104.061 174.302C103.765 174.007 103.6 173.608 103.6 173.191C103.6 172.775 103.765 172.376 104.061 172.081C104.356 171.787 104.756 171.621 105.174 171.621H302.706C303.124 171.621 303.524 171.787 303.819 172.081C304.114 172.376 304.28 172.775 304.28 173.191C304.28 173.608 304.114 174.007 303.819 174.302C303.524 174.596 303.124 174.761 302.706 174.761Z" fill="#89D757"/>
<path d="M98.9984 174.761H69.2292C68.8118 174.761 68.4114 174.596 68.1163 174.302C67.8211 174.007 67.6553 173.608 67.6553 173.191C67.6553 172.775 67.8211 172.376 68.1163 172.081C68.4114 171.787 68.8118 171.621 69.2292 171.621H98.9984C99.4159 171.621 99.8162 171.787 100.111 172.081C100.407 172.376 100.572 172.775 100.572 173.191C100.572 173.608 100.407 174.007 100.111 174.302C99.8162 174.596 99.4159 174.761 98.9984 174.761Z" fill="#89D757"/>
<path d="M311.177 174.761H308.461C308.043 174.761 307.643 174.596 307.348 174.302C307.053 174.007 306.887 173.608 306.887 173.191C306.887 172.775 307.053 172.376 307.348 172.081C307.643 171.787 308.043 171.621 308.461 171.621H311.177C311.595 171.621 311.995 171.787 312.29 172.081C312.586 172.376 312.751 172.775 312.751 173.191C312.751 173.608 312.586 174.007 312.29 174.302C311.995 174.596 311.595 174.761 311.177 174.761Z" fill="#89D757"/>
<path d="M62.6819 174.761H61.9802C61.5627 174.761 61.1624 174.596 60.8672 174.302C60.5721 174.007 60.4062 173.608 60.4062 173.191C60.4062 172.775 60.5721 172.376 60.8672 172.081C61.1624 171.787 61.5627 171.621 61.9802 171.621H62.6819C63.0994 171.621 63.4997 171.787 63.7949 172.081C64.09 172.376 64.2558 172.775 64.2558 173.191C64.2558 173.608 64.09 174.007 63.7949 174.302C63.4997 174.596 63.0994 174.761 62.6819 174.761Z" fill="#89D757"/>
<path d="M158.5 79.4345C166.233 76.6068 182.86 76.0412 187.5 96.4009C179.187 99.4171 161.748 100.247 158.5 79.4345Z" fill="#89D757"/>
<path d="M215.5 79.4345C207.767 76.6068 191.14 76.0412 186.5 96.4009C194.813 99.4171 212.252 100.247 215.5 79.4345Z" fill="#89D757"/>
<path d="M218.5 142.434C226.233 139.607 242.86 139.041 247.5 159.401C239.187 162.417 221.748 163.247 218.5 142.434Z" fill="#89D757"/>
<path d="M275.5 142.434C267.767 139.607 251.14 139.041 246.5 159.401C254.813 162.417 272.252 163.247 275.5 142.434Z" fill="#89D757"/>
<path d="M97.5 139.434C105.233 136.607 121.86 136.041 126.5 156.401C118.187 159.417 100.748 160.247 97.5 139.434Z" fill="#89D757"/>
<path d="M154.5 139.434C146.767 136.607 130.14 136.041 125.5 156.401C133.813 159.417 151.252 160.247 154.5 139.434Z" fill="#89D757"/>
<path d="M97.5 100.434C105.233 97.6068 121.86 97.0412 126.5 117.401C118.187 120.417 100.748 121.247 97.5 100.434Z" fill="#89D757"/>
<path d="M154.5 100.434C146.767 97.6068 130.14 97.0412 125.5 117.401C133.813 120.417 151.252 121.247 154.5 100.434Z" fill="#89D757"/>
<path d="M158.5 120.434C166.233 117.607 182.86 117.041 187.5 137.401C179.187 140.417 161.748 141.247 158.5 120.434Z" fill="#89D757"/>
<path d="M215.5 120.434C207.767 117.607 191.14 117.041 186.5 137.401C194.813 140.417 212.252 141.247 215.5 120.434Z" fill="#89D757"/>
<path d="M275.829 100.135C276.112 100.291 276.446 100.33 276.758 100.242C277.07 100.154 277.334 99.9465 277.493 99.665L277.543 99.58C278.86 100.056 280.283 100.16 281.655 99.8815C283.028 99.6027 284.297 98.9517 285.322 98L313.954 119.305L314.019 119.51L313.919 119.555C313.771 119.616 313.636 119.705 313.522 119.818C313.409 119.93 313.319 120.064 313.257 120.212C313.195 120.359 313.163 120.517 313.163 120.677C313.163 120.837 313.194 120.995 313.255 121.143C313.315 121.29 313.405 121.425 313.518 121.538C313.631 121.651 313.765 121.741 313.913 121.803C314.061 121.864 314.219 121.896 314.379 121.896C314.539 121.897 314.698 121.866 314.846 121.805L350.174 107.27C350.466 107.141 350.696 106.904 350.815 106.609C350.934 106.313 350.932 105.983 350.81 105.689C350.689 105.395 350.457 105.159 350.164 105.034C349.87 104.908 349.54 104.901 349.242 105.015L349.142 105.055L347.999 102.86C346.415 99.32 348.124 96.36 350.936 91.995C354.415 86.62 358.74 79.935 351.437 70.995C347.297 65.94 343.011 63.55 338.695 63.9C334.811 64.21 331.914 66.695 330.214 68.635L329.939 68.1C330.198 67.9478 330.392 67.7053 330.483 67.419C330.573 67.1328 330.555 66.8232 330.43 66.55C330.305 66.2767 330.084 66.059 329.808 65.939C329.532 65.819 329.222 65.8051 328.936 65.9L300.776 77.5C300.493 77.6239 300.268 77.8505 300.146 78.1338C300.024 78.4172 300.015 78.7361 300.12 79.0261C300.225 79.316 300.437 79.5552 300.712 79.6952C300.988 79.8352 301.306 79.8655 301.603 79.78L308.986 103.39L287.563 94.17C287.889 92.7685 287.809 91.3036 287.332 89.9457C286.855 88.5879 286.002 87.3929 284.871 86.5L284.921 86.41C285.076 86.1278 285.112 85.7963 285.023 85.4875C284.934 85.1786 284.726 84.9174 284.444 84.7607C284.163 84.6039 283.831 84.5642 283.52 84.6502C283.21 84.7362 282.946 84.941 282.786 85.22L275.363 98.5C275.212 98.7795 275.176 99.1066 275.263 99.4118C275.35 99.7171 275.553 99.9765 275.829 100.135ZM344.5 96.135L332.054 72.205C333.001 70.875 335.563 67.825 338.996 67.555C342.034 67.32 344.079 70.275 347.407 74.335C353.031 81.205 351.272 84.745 347.858 90.02C346.62 91.935 345.307 93.965 344.5 96.14V96.135Z" fill="#78B2FF"/>
<path d="M246.676 131.31C246.41 131.31 246.155 131.205 245.967 131.017C245.779 130.83 245.673 130.575 245.673 130.31C245.673 130.046 245.778 129.793 245.964 129.605C246.156 129.424 246.41 129.324 246.673 129.324C246.937 129.324 247.191 129.424 247.383 129.605C247.522 129.745 247.617 129.924 247.655 130.117C247.694 130.311 247.673 130.512 247.597 130.695C247.521 130.877 247.392 131.033 247.228 131.142C247.063 131.252 246.869 131.31 246.671 131.31H246.676Z" fill="#E8F7FC"/>
<path d="M101.56 63.5303L95.3945 49.6553C95.3286 49.5088 95.2345 49.3768 95.1176 49.2666C95.0006 49.1565 94.863 49.0704 94.7126 49.0133C94.5623 48.9562 94.4021 48.9292 94.2413 48.9338C94.0805 48.9384 93.9222 48.9746 93.7754 49.0403C93.6286 49.1059 93.4962 49.1998 93.3858 49.3165C93.2754 49.4332 93.1891 49.5704 93.1318 49.7204C93.0746 49.8703 93.0475 50.0301 93.0522 50.1905C93.0568 50.3509 93.0931 50.5088 93.1589 50.6553L93.199 50.7453C91.9941 51.531 91.0371 52.6414 90.4391 53.9476C89.8412 55.2538 89.6267 56.7024 89.8206 58.1253L67.6302 65.3203L77.154 42.5002C77.445 42.627 77.7741 42.6355 78.0713 42.5237C78.3684 42.412 78.61 42.1889 78.7447 41.902C78.8793 41.6151 78.8963 41.2871 78.7921 40.9879C78.6878 40.6887 78.4705 40.442 78.1866 40.3003L51.2544 26.1702C50.9752 26.0078 50.6428 25.9626 50.3302 26.0447C50.0177 26.1267 49.7506 26.3293 49.5877 26.6077C49.4249 26.8862 49.3796 27.2178 49.4619 27.5296C49.5441 27.8414 49.7472 28.1078 50.0263 28.2702L49.7005 28.7702C48.1968 26.6802 45.5351 23.9352 41.6805 23.2702C37.46 22.5002 32.9688 24.5002 28.3723 29.1452C20.2621 37.3602 23.9463 44.4152 26.9087 50.0902C29.3047 54.6852 30.7332 57.8002 28.8235 61.1802L27.4801 63.2602L27.3849 63.2103C27.243 63.1361 27.0879 63.0905 26.9284 63.0761C26.7689 63.0617 26.6081 63.0787 26.4552 63.1263C26.3023 63.1739 26.1603 63.2511 26.0373 63.3534C25.9143 63.4558 25.8127 63.5813 25.7383 63.7228C25.6639 63.8643 25.6182 64.019 25.6037 64.1781C25.5893 64.3372 25.6064 64.4976 25.6541 64.6501C25.7018 64.8027 25.7792 64.9443 25.8818 65.067C25.9844 65.1897 26.1102 65.2911 26.2521 65.3653L60.0714 83.1103C60.2132 83.1845 60.3684 83.2301 60.5279 83.2445C60.6874 83.2589 60.8482 83.2418 61.0011 83.1942C61.154 83.1466 61.296 83.0694 61.419 82.9671C61.542 82.8647 61.6436 82.7393 61.718 82.5978C61.7924 82.4563 61.8381 82.3015 61.8525 82.1424C61.867 81.9833 61.8498 81.8229 61.8021 81.6704C61.7544 81.5178 61.6771 81.3762 61.5745 81.2535C61.4719 81.1308 61.3461 81.0295 61.2042 80.9553L61.109 80.9053L61.1942 80.7053L91.6852 62.1403C92.618 63.1795 93.8193 63.9428 95.1578 64.3467C96.4963 64.7506 97.9203 64.7795 99.2741 64.4302L99.3142 64.5203C99.4472 64.816 99.6924 65.0469 99.9961 65.1622C100.3 65.2776 100.637 65.2679 100.933 65.1352C101.23 65.0026 101.461 64.758 101.577 64.4551C101.692 64.1522 101.683 63.816 101.55 63.5203L101.56 63.5303ZM30.1568 48.4003C27.2546 42.8353 25.826 39.1452 32.0666 32.8252C35.7608 29.0902 38.0816 26.3253 41.0891 26.8553C44.5126 27.4403 46.7532 30.7152 47.5752 32.1302L32.9337 54.8053C32.3322 52.5653 31.2144 50.4253 30.1568 48.4003Z" fill="#78B2FF"/>
<path d="M99.8096 51.79C99.5437 51.79 99.2888 51.6846 99.1008 51.4971C98.9127 51.3095 98.8071 51.0552 98.8071 50.79C98.8069 50.5259 98.9114 50.2725 99.0978 50.085C99.2901 49.9054 99.5437 49.8054 99.8071 49.8054C100.071 49.8054 100.324 49.9054 100.516 50.085C100.656 50.2248 100.751 50.4026 100.789 50.596C100.827 50.7895 100.807 50.9899 100.732 51.1721C100.656 51.3543 100.528 51.5102 100.364 51.6201C100.2 51.73 100.007 51.7891 99.8096 51.79Z" fill="#E8F7FC"/>
<path d="M178.973 69C178.76 68.9527 178.559 68.8641 178.381 68.7391C178.203 68.6142 178.051 68.4554 177.935 68.272C177.819 68.0885 177.74 67.8839 177.703 67.6699C177.666 67.4559 177.671 67.2367 177.719 67.025C177.767 66.8103 177.856 66.6071 177.983 66.4274C178.11 66.2476 178.271 66.0949 178.458 65.9781C178.645 65.8612 178.853 65.7827 179.07 65.7469C179.288 65.7112 179.51 65.719 179.724 65.77C179.939 65.8183 180.142 65.9085 180.321 66.0354C180.501 66.1622 180.653 66.3232 180.77 66.509C180.887 66.6949 180.966 66.902 181.003 67.1184C181.039 67.3348 181.032 67.5562 180.983 67.77C180.899 68.1373 180.692 68.4653 180.397 68.7005C180.102 68.9357 179.736 69.0642 179.358 69.065C179.227 69.0633 179.097 69.0414 178.973 69ZM192.682 67.74C192.631 67.5265 192.623 67.305 192.658 67.0884C192.694 66.8718 192.772 66.6644 192.889 66.4783C193.005 66.2921 193.158 66.131 193.337 66.0043C193.517 65.8775 193.72 65.7877 193.935 65.74C194.149 65.6882 194.37 65.6795 194.588 65.7143C194.805 65.749 195.013 65.8267 195.199 65.9426C195.386 66.0585 195.548 66.2104 195.675 66.3894C195.802 66.5684 195.892 66.7709 195.94 66.985C195.99 67.1984 195.998 67.4197 195.962 67.6361C195.926 67.8525 195.848 68.0596 195.731 68.2456C195.615 68.4315 195.462 68.5926 195.283 68.7195C195.104 68.8465 194.901 68.9367 194.687 68.985C194.568 69.0122 194.447 69.0273 194.326 69.03C193.948 69.032 193.58 68.906 193.283 68.6726C192.987 68.4391 192.778 68.1121 192.692 67.745L192.682 67.74ZM164.812 62.215C164.641 62.0801 164.499 61.9128 164.393 61.7228C164.287 61.5327 164.219 61.3237 164.195 61.1076C164.17 60.8915 164.188 60.6727 164.249 60.4637C164.309 60.2548 164.41 60.0598 164.547 59.89C164.682 59.7194 164.849 59.5772 165.04 59.4715C165.231 59.3657 165.44 59.2987 165.657 59.274C165.873 59.2494 166.093 59.2677 166.302 59.3279C166.512 59.3882 166.707 59.4891 166.877 59.625C167.22 59.899 167.441 60.2972 167.491 60.7328C167.541 61.1684 167.416 61.606 167.143 61.95C166.988 62.1467 166.79 62.3057 166.564 62.4148C166.338 62.5239 166.091 62.5804 165.84 62.58C165.47 62.5742 165.113 62.4478 164.822 62.22L164.812 62.215ZM206.481 61.915C206.344 61.7457 206.242 61.551 206.181 61.3422C206.12 61.1333 206.101 60.9144 206.125 60.6982C206.149 60.482 206.216 60.2727 206.322 60.0824C206.428 59.8922 206.571 59.7248 206.742 59.59C207.086 59.316 207.526 59.1896 207.964 59.2383C208.401 59.2871 208.802 59.507 209.078 59.85C209.214 60.0198 209.315 60.2148 209.375 60.4237C209.436 60.6327 209.454 60.8515 209.429 61.0676C209.405 61.2836 209.337 61.4927 209.232 61.6828C209.126 61.8728 208.983 62.0401 208.812 62.175C208.519 62.4094 208.155 62.5365 207.779 62.535C207.532 62.5364 207.287 62.4818 207.064 62.3753C206.841 62.2688 206.645 62.1131 206.491 61.92L206.481 61.915ZM155.013 50C154.821 49.6047 154.794 49.1496 154.938 48.7344C155.081 48.3193 155.384 47.9779 155.78 47.785C155.976 47.6895 156.189 47.6335 156.407 47.6203C156.625 47.6071 156.843 47.6369 157.049 47.7079C157.255 47.779 157.446 47.89 157.609 48.0344C157.772 48.1789 157.905 48.3541 158 48.55C158.192 48.9453 158.219 49.4003 158.075 49.8155C157.932 50.2307 157.629 50.5721 157.233 50.765C157.006 50.8722 156.758 50.9285 156.507 50.93C156.195 50.931 155.89 50.8442 155.625 50.6797C155.361 50.5152 155.149 50.2796 155.013 50ZM216.401 50.715C216.204 50.6209 216.028 50.489 215.883 50.327C215.737 50.1649 215.625 49.9759 215.553 49.7706C215.481 49.5654 215.45 49.3479 215.462 49.1308C215.474 48.9136 215.529 48.7009 215.624 48.505C215.718 48.3083 215.851 48.1321 216.013 47.9866C216.176 47.841 216.366 47.729 216.573 47.657C216.779 47.585 216.998 47.5544 217.216 47.5669C217.434 47.5794 217.648 47.6348 217.844 47.73C218.241 47.9221 218.545 48.2628 218.691 48.6777C218.836 49.0927 218.811 49.5482 218.621 49.945C218.484 50.2255 218.27 50.4619 218.004 50.6272C217.738 50.7925 217.431 50.8801 217.118 50.88C216.869 50.875 216.625 50.817 216.401 50.71V50.715ZM151.499 34.715C151.499 34.2756 151.674 33.8541 151.985 33.5429C152.296 33.2318 152.718 33.0563 153.158 33.055C153.597 33.055 154.019 33.2287 154.33 33.5379C154.641 33.8472 154.816 34.2669 154.817 34.705C154.819 35.1444 154.645 35.5664 154.335 35.8785C154.025 36.1906 153.604 36.3673 153.163 36.37C152.724 36.37 152.303 36.1972 151.992 35.8891C151.68 35.581 151.503 35.1626 151.499 34.725V34.715ZM218.787 34.65V34.605C218.784 34.5817 218.784 34.5582 218.787 34.535C218.788 34.0964 218.962 33.6759 219.272 33.3643C219.581 33.0528 220.001 32.8752 220.441 32.87C220.881 32.87 221.304 33.0442 221.616 33.3544C221.928 33.6646 222.104 34.0856 222.105 34.525V34.59V34.65C222.105 35.0889 221.93 35.5099 221.619 35.8202C221.308 36.1306 220.886 36.305 220.446 36.305C220.008 36.305 219.587 36.132 219.276 35.8238C218.965 35.5156 218.789 35.0972 218.787 34.66V34.65ZM155.74 21.65C155.542 21.5573 155.365 21.4266 155.219 21.2653C155.073 21.104 154.96 20.9153 154.887 20.7102C154.815 20.5052 154.783 20.2878 154.795 20.0706C154.808 19.8534 154.863 19.6408 154.958 19.445C155.051 19.248 155.183 19.0714 155.345 18.9254C155.507 18.7795 155.696 18.667 155.902 18.5944C156.108 18.5219 156.327 18.4908 156.545 18.5029C156.763 18.515 156.977 18.5701 157.173 18.665C157.37 18.7586 157.547 18.8901 157.693 19.0521C157.838 19.2141 157.951 19.4032 158.023 19.6086C158.095 19.8141 158.126 20.0317 158.113 20.2491C158.101 20.4664 158.045 20.6791 157.95 20.875C157.815 21.158 157.602 21.3967 157.335 21.5632C157.069 21.7296 156.761 21.817 156.446 21.815C156.201 21.8132 155.96 21.7568 155.74 21.65ZM215.564 20.725C215.372 20.3291 215.346 19.8735 215.491 19.4582C215.635 19.043 215.939 18.702 216.336 18.51C216.532 18.4143 216.744 18.3581 216.962 18.3445C217.18 18.331 217.398 18.3603 217.604 18.4309C217.81 18.5015 218 18.6119 218.164 18.7559C218.327 18.8999 218.461 19.0745 218.556 19.27C218.748 19.6659 218.774 20.1214 218.629 20.5367C218.485 20.952 218.181 21.293 217.784 21.485C217.559 21.597 217.31 21.6552 217.058 21.655C216.747 21.6537 216.442 21.5659 216.178 21.4017C215.914 21.2374 215.702 21.0031 215.564 20.725ZM164.471 9.49997C164.335 9.33077 164.233 9.1363 164.172 8.9277C164.11 8.71911 164.091 8.50053 164.115 8.28449C164.139 8.06845 164.205 7.85921 164.31 7.66881C164.415 7.4784 164.557 7.31058 164.727 7.17497C164.897 7.03843 165.092 6.93669 165.302 6.87559C165.511 6.81449 165.731 6.79524 165.948 6.81892C166.165 6.84261 166.375 6.90878 166.566 7.01363C166.758 7.11849 166.926 7.25997 167.063 7.42997C167.2 7.59958 167.302 7.79446 167.363 8.00345C167.424 8.21244 167.444 8.43144 167.42 8.64789C167.396 8.86434 167.33 9.07399 167.225 9.26482C167.119 9.45565 166.978 9.62392 166.807 9.75997C166.511 9.99305 166.146 10.1215 165.77 10.125C165.52 10.1256 165.273 10.0697 165.048 9.96146C164.824 9.85319 164.626 9.6954 164.471 9.49997ZM206.662 9.65497C206.318 9.38007 206.098 8.98095 206.048 8.54453C205.998 8.10812 206.123 7.66977 206.396 7.32497C206.531 7.15439 206.699 7.01216 206.889 6.90645C207.08 6.80074 207.289 6.73364 207.506 6.70902C207.723 6.68439 207.942 6.70272 208.152 6.76295C208.361 6.82318 208.556 6.92412 208.727 7.05997C208.898 7.19449 209.041 7.3615 209.148 7.55137C209.254 7.74124 209.322 7.95022 209.347 8.16631C209.372 8.38239 209.354 8.6013 209.294 8.81045C209.234 9.0196 209.133 9.21485 208.997 9.38497C208.842 9.57985 208.645 9.73725 208.42 9.84546C208.195 9.95367 207.949 10.0099 207.699 10.01C207.324 10.0123 206.958 9.88904 206.662 9.65997V9.65497ZM177.614 2.31997C177.562 2.10715 177.553 1.88614 177.588 1.66982C177.622 1.45351 177.7 1.24623 177.815 1.06007C177.931 0.873902 178.083 0.712577 178.262 0.58551C178.441 0.458444 178.643 0.368177 178.857 0.319969C179.071 0.268135 179.292 0.259196 179.509 0.293671C179.726 0.328145 179.934 0.405345 180.12 0.520767C180.307 0.63619 180.469 0.787522 180.596 0.965943C180.723 1.14436 180.814 1.3463 180.862 1.55997C180.913 1.77307 180.92 1.99405 180.885 2.21014C180.85 2.42624 180.772 2.6332 180.656 2.8191C180.539 3.005 180.388 3.16618 180.209 3.29333C180.03 3.42048 179.828 3.5111 179.614 3.55997C179.49 3.58564 179.365 3.59904 179.238 3.59997C178.863 3.60296 178.497 3.47834 178.202 3.24661C177.907 3.01489 177.7 2.68985 177.614 2.32497V2.31997ZM193.83 3.52997C193.615 3.48105 193.413 3.39046 193.234 3.26338C193.055 3.13631 192.903 2.97525 192.787 2.78945C192.67 2.60365 192.592 2.39675 192.556 2.18063C192.52 1.9645 192.527 1.74338 192.576 1.52997C192.624 1.31561 192.714 1.11286 192.841 0.933464C192.968 0.754066 193.13 0.601592 193.316 0.484863C193.503 0.368135 193.711 0.289477 193.928 0.253449C194.145 0.21742 194.367 0.224735 194.581 0.274971C194.796 0.322728 195 0.412543 195.179 0.539215C195.359 0.665888 195.512 0.826895 195.629 1.01292C195.746 1.19894 195.825 1.40627 195.861 1.62291C195.897 1.83955 195.89 2.06118 195.84 2.27497C195.757 2.64269 195.55 2.97124 195.255 3.2066C194.96 3.44197 194.593 3.57011 194.216 3.56997C194.086 3.57452 193.956 3.56277 193.83 3.53497V3.52997Z" fill="#DBEAFF"/>
<path d="M275.158 90.47C274.959 90.4712 274.764 90.4132 274.598 90.3034C274.432 90.1936 274.302 90.037 274.226 89.8535C274.15 89.6701 274.13 89.4681 274.169 89.2734C274.208 89.0786 274.305 88.8999 274.446 88.76C274.638 88.5804 274.892 88.4805 275.155 88.4805C275.419 88.4805 275.672 88.5804 275.864 88.76C276.006 88.8996 276.102 89.0779 276.141 89.2721C276.181 89.4664 276.161 89.668 276.085 89.8512C276.01 90.0344 275.881 90.1911 275.716 90.3013C275.551 90.4115 275.356 90.4702 275.158 90.47Z" fill="#DBEAFF"/>
<path d="M267.096 87.9999C267.087 87.8689 267.103 87.7373 267.145 87.6126C267.186 87.488 267.252 87.3727 267.338 87.2733C267.424 87.1739 267.529 87.0925 267.647 87.0336C267.764 86.9746 267.892 86.9394 268.024 86.9299C268.288 86.9106 268.549 86.9966 268.75 87.169C268.952 87.3414 269.076 87.5862 269.096 87.8499C269.107 87.9813 269.091 88.1134 269.05 88.2387C269.009 88.3639 268.943 88.4798 268.857 88.5797C268.771 88.6796 268.666 88.7615 268.547 88.8208C268.429 88.88 268.301 88.9154 268.169 88.9249H268.094C267.841 88.9243 267.598 88.8288 267.414 88.6573C267.229 88.4858 267.115 88.251 267.096 87.9999Z" fill="#DBEAFF"/>
<path d="M247.113 124C246.982 123.986 246.855 123.947 246.739 123.884C246.623 123.821 246.521 123.736 246.438 123.634C246.355 123.532 246.293 123.415 246.256 123.289C246.219 123.163 246.207 123.03 246.22 122.9C246.234 122.769 246.274 122.642 246.337 122.527C246.399 122.411 246.484 122.309 246.587 122.227C246.689 122.144 246.807 122.082 246.933 122.045C247.06 122.008 247.192 121.996 247.323 122.01C247.454 122.024 247.581 122.063 247.697 122.126C247.813 122.188 247.915 122.273 247.998 122.375C248.081 122.477 248.143 122.595 248.18 122.721C248.217 122.847 248.229 122.979 248.215 123.11C248.189 123.356 248.072 123.585 247.887 123.75C247.702 123.915 247.462 124.006 247.213 124.005H247.108L247.113 124ZM248.065 116.75C247.935 116.726 247.811 116.678 247.701 116.606C247.59 116.535 247.494 116.443 247.419 116.334C247.344 116.226 247.291 116.104 247.264 115.976C247.236 115.847 247.234 115.714 247.258 115.585C247.307 115.325 247.456 115.096 247.674 114.946C247.892 114.796 248.16 114.738 248.421 114.785C248.682 114.832 248.913 114.981 249.065 115.198C249.216 115.416 249.275 115.684 249.228 115.945C249.185 116.178 249.061 116.388 248.877 116.538C248.694 116.688 248.463 116.769 248.225 116.765L248.065 116.75ZM249.649 109.6C249.523 109.563 249.405 109.502 249.302 109.42C249.199 109.337 249.114 109.236 249.051 109.121C248.987 109.005 248.947 108.879 248.933 108.748C248.919 108.618 248.93 108.486 248.967 108.36C249.041 108.105 249.212 107.89 249.444 107.762C249.676 107.634 249.95 107.602 250.205 107.675C250.332 107.711 250.451 107.772 250.554 107.854C250.657 107.936 250.743 108.037 250.807 108.153C250.871 108.268 250.911 108.394 250.926 108.525C250.94 108.656 250.929 108.788 250.892 108.915C250.831 109.123 250.705 109.305 250.531 109.435C250.358 109.565 250.147 109.635 249.93 109.635C249.835 109.635 249.741 109.624 249.649 109.6ZM252.02 102.68C251.778 102.571 251.59 102.37 251.496 102.123C251.402 101.876 251.41 101.601 251.519 101.36C251.573 101.24 251.65 101.132 251.746 101.042C251.842 100.952 251.955 100.881 252.079 100.835C252.202 100.788 252.334 100.767 252.465 100.771C252.597 100.775 252.727 100.805 252.847 100.86C253.089 100.969 253.277 101.169 253.371 101.417C253.465 101.664 253.457 101.938 253.348 102.18C253.269 102.355 253.141 102.504 252.979 102.609C252.817 102.714 252.629 102.769 252.436 102.77C252.286 102.773 252.137 102.742 252 102.68H252.02ZM255.489 96.2498C255.382 96.1718 255.293 96.0736 255.225 95.961C255.157 95.8483 255.112 95.7234 255.092 95.5934C255.073 95.4633 255.079 95.3307 255.111 95.2031C255.143 95.0755 255.2 94.9555 255.278 94.8498C255.357 94.7444 255.455 94.6554 255.568 94.588C255.682 94.5207 255.807 94.4762 255.937 94.4571C256.068 94.4381 256.2 94.4449 256.328 94.4771C256.456 94.5093 256.576 94.5663 256.682 94.6448C256.788 94.7229 256.877 94.821 256.945 94.9337C257.013 95.0463 257.058 95.1712 257.078 95.3012C257.097 95.4313 257.091 95.5639 257.059 95.6915C257.027 95.8191 256.971 95.9391 256.892 96.0448C256.799 96.1706 256.677 96.2728 256.537 96.3431C256.397 96.4135 256.242 96.45 256.085 96.4498C255.863 96.4554 255.645 96.3849 255.469 96.2498H255.489ZM260.461 90.9148C260.387 90.8056 260.336 90.6829 260.31 90.5538C260.284 90.4248 260.284 90.2918 260.309 90.1627C260.335 90.0335 260.386 89.9107 260.459 89.8013C260.533 89.6918 260.627 89.5978 260.737 89.5248C260.957 89.378 261.228 89.3245 261.488 89.3761C261.748 89.4276 261.977 89.58 262.125 89.7998C262.272 90.0201 262.326 90.2895 262.274 90.5491C262.223 90.8088 262.07 91.0373 261.849 91.1848C261.684 91.296 261.488 91.3552 261.288 91.3548C261.121 91.3575 260.957 91.3187 260.809 91.2419C260.661 91.1651 260.534 91.0526 260.441 90.9148H260.461Z" fill="#DBEAFF"/>
<path d="M278.286 86.955C278.087 86.9552 277.893 86.8965 277.727 86.7863C277.562 86.6761 277.434 86.5194 277.358 86.3362C277.282 86.1529 277.263 85.9514 277.302 85.7571C277.341 85.5628 277.438 85.3846 277.579 85.245C277.772 85.0665 278.025 84.9673 278.288 84.9673C278.551 84.9673 278.804 85.0665 278.997 85.245C279.091 85.3379 279.164 85.4482 279.215 85.5696C279.265 85.691 279.291 85.8211 279.291 85.9525C279.291 86.0839 279.265 86.2141 279.215 86.3355C279.164 86.4569 279.091 86.5672 278.997 86.66C278.904 86.7536 278.793 86.8279 278.671 86.8785C278.549 86.9291 278.418 86.9551 278.286 86.955Z" fill="#DBEAFF"/>
<path d="M271.578 83.9998C271.321 83.936 271.099 83.7727 270.962 83.5459C270.824 83.319 270.783 83.0471 270.847 82.7898C270.911 82.5327 271.074 82.3114 271.302 82.1745C271.529 82.0377 271.802 81.9964 272.06 82.0599C272.317 82.1237 272.539 82.287 272.676 82.5138C272.814 82.7407 272.855 83.0126 272.791 83.2699C272.738 83.4867 272.613 83.6793 272.436 83.817C272.26 83.9548 272.043 84.0297 271.819 84.0298C271.738 84.0296 271.657 84.0195 271.578 83.9998Z" fill="#DBEAFF"/>
<path d="M237.237 120.93C236.973 120.9 236.732 120.766 236.567 120.559C236.402 120.352 236.325 120.088 236.355 119.825C236.384 119.562 236.516 119.321 236.723 119.155C236.93 118.989 237.194 118.912 237.458 118.94C237.589 118.954 237.716 118.994 237.831 119.057C237.947 119.121 238.049 119.206 238.131 119.309C238.213 119.411 238.275 119.529 238.311 119.655C238.348 119.782 238.359 119.914 238.345 120.045C238.318 120.29 238.2 120.517 238.015 120.682C237.83 120.846 237.59 120.936 237.342 120.935H237.232L237.237 120.93ZM238.24 113.88C237.98 113.825 237.753 113.669 237.608 113.447C237.463 113.224 237.413 112.954 237.468 112.695C237.495 112.566 237.548 112.444 237.622 112.335C237.697 112.227 237.793 112.134 237.904 112.063C238.015 111.991 238.139 111.942 238.268 111.918C238.398 111.895 238.532 111.897 238.661 111.925C238.92 111.98 239.148 112.136 239.292 112.358C239.437 112.58 239.488 112.851 239.433 113.11C239.384 113.337 239.257 113.54 239.074 113.685C238.891 113.829 238.663 113.905 238.43 113.9C238.373 113.898 238.316 113.891 238.26 113.88H238.24ZM240.034 107C239.783 106.913 239.576 106.731 239.46 106.493C239.343 106.255 239.326 105.98 239.413 105.73C239.455 105.605 239.521 105.49 239.608 105.392C239.695 105.293 239.801 105.212 239.919 105.154C240.037 105.096 240.166 105.062 240.298 105.053C240.429 105.045 240.561 105.062 240.686 105.105C240.937 105.191 241.143 105.373 241.26 105.611C241.376 105.85 241.393 106.124 241.307 106.375C241.24 106.573 241.113 106.745 240.943 106.866C240.773 106.988 240.569 107.054 240.36 107.055C240.249 107.054 240.139 107.035 240.034 107ZM242.686 100.39C242.568 100.33 242.464 100.247 242.379 100.146C242.294 100.046 242.229 99.9295 242.189 99.804C242.149 99.6786 242.134 99.5465 242.145 99.4154C242.157 99.2842 242.194 99.1566 242.255 99.0397C242.377 98.8047 242.587 98.6274 242.84 98.5468C243.092 98.4662 243.367 98.4888 243.603 98.6098C243.72 98.67 243.825 98.7527 243.91 98.8532C243.995 98.9537 244.059 99.07 244.1 99.1955C244.14 99.3209 244.154 99.453 244.143 99.5841C244.132 99.7153 244.095 99.8429 244.034 99.9598C243.949 100.124 243.819 100.262 243.66 100.357C243.5 100.453 243.318 100.502 243.132 100.5C242.975 100.493 242.823 100.451 242.686 100.375V100.39ZM246.34 94.2798C246.235 94.1994 246.148 94.0994 246.082 93.9852C246.016 93.8711 245.974 93.7451 245.957 93.6146C245.94 93.4841 245.95 93.3516 245.984 93.2246C246.019 93.0976 246.078 92.9787 246.159 92.8748C246.322 92.6657 246.561 92.5293 246.824 92.4956C247.087 92.4619 247.353 92.5335 247.563 92.6948C247.773 92.8561 247.911 93.0941 247.946 93.3565C247.98 93.619 247.909 93.8844 247.748 94.0948C247.654 94.2164 247.534 94.3149 247.395 94.3826C247.257 94.4502 247.105 94.4852 246.951 94.4848C246.729 94.4812 246.513 94.4038 246.34 94.2648V94.2798ZM251.102 88.9848C251.017 88.8837 250.954 88.767 250.915 88.6414C250.875 88.5158 250.861 88.3838 250.874 88.2528C250.886 88.1218 250.924 87.9945 250.985 87.8782C251.047 87.7618 251.13 87.6587 251.232 87.5747C251.436 87.4063 251.699 87.3253 251.963 87.3497C252.227 87.3741 252.471 87.5017 252.64 87.7048C252.81 87.9079 252.892 88.1698 252.869 88.433C252.845 88.6963 252.718 88.9396 252.515 89.1098C252.336 89.2606 252.108 89.3438 251.874 89.3448C251.725 89.3432 251.579 89.3087 251.445 89.2439C251.312 89.179 251.194 89.0854 251.102 88.9698V88.9848ZM256.971 84.9498C256.917 84.8299 256.887 84.7006 256.882 84.5691C256.878 84.4376 256.9 84.3066 256.946 84.1835C256.993 84.0604 257.063 83.9477 257.154 83.8518C257.244 83.7559 257.352 83.6788 257.473 83.6248C257.593 83.5704 257.722 83.5402 257.854 83.5359C257.986 83.5316 258.117 83.5533 258.241 83.5998C258.364 83.6462 258.477 83.7165 258.573 83.8066C258.669 83.8967 258.747 84.0048 258.801 84.1248C258.855 84.2446 258.886 84.3739 258.89 84.5054C258.894 84.6369 258.872 84.7679 258.826 84.891C258.779 85.0141 258.709 85.1268 258.619 85.2227C258.528 85.3186 258.42 85.3957 258.3 85.4498C258.17 85.5119 258.028 85.5444 257.884 85.5448C257.689 85.5426 257.498 85.4838 257.336 85.3755C257.174 85.2671 257.047 85.1139 256.971 84.9348V84.9498ZM263.728 82.7147C263.699 82.4516 263.775 82.1875 263.94 81.9803C264.106 81.7731 264.347 81.6399 264.61 81.6098C264.874 81.5802 265.139 81.6563 265.347 81.8213C265.554 81.9862 265.688 82.2267 265.718 82.4898C265.748 82.7529 265.671 83.0171 265.506 83.2242C265.341 83.4314 265.1 83.5646 264.836 83.5948H264.721C264.474 83.5937 264.236 83.5017 264.053 83.3366C263.87 83.1714 263.754 82.9447 263.728 82.6998V82.7147Z" fill="#DBEAFF"/>
<path d="M236.881 128.07C236.616 128.07 236.361 127.965 236.173 127.777C235.985 127.59 235.879 127.335 235.879 127.07C235.879 126.806 235.983 126.552 236.17 126.365C236.361 126.184 236.615 126.083 236.879 126.083C237.143 126.083 237.396 126.184 237.588 126.365C237.776 126.552 237.883 126.805 237.884 127.07C237.884 127.335 237.778 127.59 237.59 127.777C237.402 127.965 237.147 128.07 236.881 128.07Z" fill="#DBEAFF"/>
<path d="M273.709 95.4199C273.443 95.4199 273.188 95.3145 273 95.127C272.812 94.9394 272.706 94.6851 272.706 94.4199C272.707 94.1551 272.814 93.9015 273.002 93.7149C273.193 93.5356 273.446 93.4358 273.709 93.4358C273.971 93.4358 274.224 93.5356 274.415 93.7149C274.604 93.9015 274.71 94.1551 274.711 94.4199C274.711 94.6851 274.605 94.9394 274.417 95.127C274.229 95.3145 273.974 95.4199 273.709 95.4199Z" fill="#DBEAFF"/>
<path d="M265.919 95.0001C265.857 94.884 265.818 94.7567 265.805 94.6256C265.793 94.4946 265.806 94.3623 265.845 94.2364C265.883 94.1105 265.947 93.9935 266.031 93.892C266.115 93.7906 266.218 93.7067 266.335 93.6451C266.451 93.5831 266.579 93.5447 266.71 93.532C266.842 93.5193 266.974 93.5326 267.1 93.5712C267.227 93.6097 267.344 93.6728 267.446 93.7567C267.547 93.8406 267.632 93.9437 267.693 94.0601C267.817 94.2943 267.843 94.5678 267.765 94.8209C267.687 95.074 267.512 95.2859 267.277 95.4101C267.131 95.4845 266.97 95.5239 266.806 95.5251C266.624 95.526 266.446 95.4777 266.29 95.3852C266.133 95.2927 266.005 95.1596 265.919 95.0001Z" fill="#DBEAFF"/>
<path d="M258.099 121.645C257.968 121.634 257.84 121.598 257.723 121.538C257.606 121.477 257.502 121.395 257.416 121.295C257.331 121.194 257.267 121.078 257.226 120.953C257.186 120.828 257.171 120.696 257.182 120.565C257.205 120.302 257.331 120.059 257.533 119.888C257.735 119.718 257.996 119.634 258.26 119.655C258.524 119.677 258.769 119.802 258.941 120.003C259.113 120.205 259.198 120.466 259.177 120.73C259.157 120.981 259.042 121.215 258.857 121.386C258.671 121.556 258.427 121.651 258.175 121.65H258.094L258.099 121.645ZM258.801 114.6C258.538 114.564 258.3 114.425 258.139 114.214C257.979 114.003 257.908 113.737 257.944 113.475C257.98 113.212 258.119 112.975 258.331 112.815C258.542 112.654 258.809 112.584 259.072 112.62C259.335 112.656 259.573 112.795 259.734 113.005C259.894 113.216 259.965 113.482 259.929 113.745C259.896 113.986 259.776 114.207 259.592 114.366C259.407 114.525 259.171 114.612 258.927 114.61L258.801 114.6ZM259.969 107.6C259.84 107.57 259.718 107.516 259.611 107.439C259.503 107.363 259.412 107.266 259.342 107.153C259.272 107.041 259.225 106.917 259.203 106.787C259.182 106.656 259.187 106.523 259.217 106.395C259.247 106.267 259.301 106.146 259.378 106.039C259.454 105.932 259.551 105.841 259.663 105.771C259.775 105.701 259.899 105.654 260.029 105.633C260.159 105.611 260.292 105.615 260.42 105.645C260.549 105.674 260.67 105.729 260.777 105.805C260.885 105.881 260.976 105.978 261.046 106.089C261.115 106.201 261.162 106.325 261.184 106.455C261.206 106.584 261.202 106.717 261.172 106.845C261.12 107.07 260.992 107.269 260.809 107.411C260.627 107.552 260.401 107.626 260.17 107.62C260.103 107.626 260.036 107.626 259.969 107.62V107.6ZM261.974 100.81C261.854 100.756 261.745 100.679 261.655 100.583C261.565 100.487 261.494 100.374 261.448 100.251C261.401 100.128 261.38 99.997 261.384 99.8655C261.388 99.734 261.418 99.6047 261.473 99.4849C261.527 99.3649 261.604 99.2568 261.7 99.1667C261.797 99.0766 261.91 99.0064 262.033 98.9599C262.156 98.9135 262.288 98.8918 262.42 98.896C262.551 98.9003 262.681 98.9305 262.801 98.9849C262.922 99.0389 263.031 99.1162 263.122 99.2125C263.212 99.3087 263.283 99.422 263.33 99.5456C263.376 99.6693 263.398 99.8009 263.393 99.933C263.389 100.065 263.358 100.195 263.302 100.315C263.222 100.49 263.093 100.639 262.93 100.742C262.768 100.846 262.578 100.901 262.385 100.9C262.241 100.909 262.097 100.885 261.964 100.83L261.974 100.81Z" fill="#DBEAFF"/>
<path d="M257.739 128.725C257.473 128.724 257.219 128.618 257.032 128.43C256.844 128.243 256.737 127.99 256.736 127.725C256.736 127.593 256.762 127.462 256.813 127.341C256.864 127.219 256.938 127.108 257.032 127.015C257.225 126.837 257.478 126.737 257.741 126.737C258.004 126.737 258.258 126.837 258.451 127.015C258.543 127.108 258.617 127.219 258.667 127.341C258.717 127.463 258.742 127.593 258.741 127.725C258.741 127.99 258.636 128.245 258.448 128.432C258.26 128.62 258.005 128.725 257.739 128.725Z" fill="#DBEAFF"/>
<path d="M102.602 55.5802C102.336 55.5802 102.081 55.4748 101.893 55.2873C101.705 55.0997 101.6 54.8454 101.6 54.5802C101.599 54.3161 101.704 54.0627 101.89 53.8752C102.082 53.6945 102.336 53.5938 102.6 53.5938C102.863 53.5937 103.117 53.6945 103.309 53.8752C103.497 54.0619 103.604 54.3154 103.605 54.5802C103.605 54.7121 103.579 54.8428 103.528 54.9646C103.477 55.0865 103.403 55.1971 103.309 55.2902C103.121 55.4761 102.867 55.5804 102.602 55.5802Z" fill="#DBEAFF"/>
<path d="M109.605 54.6649C109.475 54.6414 109.351 54.5927 109.24 54.5214C109.13 54.4501 109.034 54.3577 108.959 54.2494C108.884 54.1412 108.831 54.0193 108.804 53.8907C108.776 53.7621 108.774 53.6293 108.798 53.4999C108.843 53.2387 108.991 53.0062 109.208 52.8534C109.425 52.7005 109.694 52.6399 109.956 52.6849C110.217 52.729 110.451 52.8748 110.605 53.0904C110.759 53.306 110.821 53.5737 110.778 53.8349C110.738 54.0706 110.615 54.2844 110.432 54.4376C110.248 54.5908 110.015 54.6732 109.775 54.6699C109.718 54.6731 109.661 54.6714 109.605 54.6649Z" fill="#DBEAFF"/>
<path d="M126.295 90.56C126.295 90.2948 126.401 90.0404 126.589 89.8529C126.777 89.6653 127.032 89.56 127.298 89.56C127.563 89.56 127.818 89.6653 128.006 89.8529C128.194 90.0404 128.3 90.2948 128.3 90.56C128.3 90.8252 128.194 91.0795 128.006 91.2671C127.818 91.4546 127.563 91.56 127.298 91.56C127.032 91.56 126.777 91.4546 126.589 91.2671C126.401 91.0795 126.295 90.8252 126.295 90.56ZM125.944 83.335C125.92 83.0727 126.001 82.8117 126.169 82.6085C126.337 82.4054 126.579 82.2765 126.841 82.25C126.973 82.2383 127.105 82.2526 127.231 82.292C127.357 82.3315 127.474 82.3953 127.575 82.4798C127.676 82.5644 127.759 82.668 127.82 82.7847C127.881 82.9014 127.918 83.0289 127.929 83.16C127.941 83.291 127.926 83.423 127.887 83.5485C127.847 83.674 127.783 83.7905 127.699 83.8913C127.614 83.9921 127.51 84.0752 127.393 84.1359C127.276 84.1966 127.148 84.2336 127.017 84.245H126.932C126.683 84.2423 126.445 84.1477 126.262 83.9796C126.08 83.8114 125.967 83.5817 125.944 83.335ZM124.967 76.195C124.942 76.066 124.943 75.9333 124.97 75.8047C124.996 75.6761 125.048 75.5539 125.122 75.4453C125.196 75.3366 125.291 75.2436 125.401 75.1715C125.511 75.0993 125.634 75.0496 125.764 75.025C125.893 75.0003 126.026 75.0013 126.155 75.0279C126.284 75.0546 126.406 75.1062 126.515 75.1801C126.624 75.2539 126.717 75.3484 126.79 75.4582C126.862 75.568 126.912 75.6909 126.937 75.82C126.963 75.9497 126.963 76.0834 126.937 76.2132C126.911 76.3429 126.859 76.4663 126.785 76.576C126.711 76.6858 126.616 76.7798 126.505 76.8526C126.394 76.9253 126.27 76.9754 126.14 77C126.078 77.0074 126.016 77.0074 125.954 77C125.722 77.0009 125.496 76.9212 125.316 76.7743C125.135 76.6274 125.012 76.4226 124.967 76.195ZM123.152 69.26C123.066 69.0093 123.083 68.7348 123.2 68.4967C123.316 68.2586 123.523 68.0763 123.774 67.99C123.898 67.9466 124.031 67.9283 124.162 67.936C124.294 67.9437 124.423 67.9774 124.542 68.035C124.661 68.0926 124.767 68.173 124.854 68.2717C124.942 68.3704 125.009 68.4853 125.052 68.61C125.095 68.7347 125.113 68.8667 125.105 68.9985C125.097 69.1303 125.063 69.2591 125.005 69.3777C124.947 69.4962 124.865 69.602 124.766 69.6891C124.667 69.7762 124.551 69.8427 124.425 69.885C124.32 69.919 124.21 69.9359 124.1 69.935C123.891 69.9348 123.687 69.8697 123.518 69.7487C123.348 69.6277 123.22 69.4568 123.152 69.26ZM120.195 62.82C120.058 62.5937 120.016 62.3226 120.079 62.0659C120.142 61.8091 120.305 61.5877 120.531 61.45C120.643 61.3816 120.768 61.336 120.898 61.3158C121.029 61.2957 121.161 61.3013 121.289 61.3324C121.418 61.3635 121.538 61.4195 121.644 61.4972C121.751 61.5748 121.841 61.6726 121.909 61.785C122.046 62.0119 122.086 62.2834 122.022 62.5402C121.958 62.797 121.795 63.018 121.568 63.155C121.418 63.248 121.244 63.2981 121.067 63.3C120.892 63.3027 120.72 63.2599 120.567 63.1757C120.414 63.0915 120.286 62.9689 120.195 62.82ZM115.684 57.525C115.479 57.357 115.349 57.1148 115.322 56.8514C115.296 56.588 115.375 56.325 115.543 56.12C115.711 55.9147 115.953 55.7842 116.217 55.757C116.481 55.7298 116.746 55.8082 116.952 55.975C117.157 56.1422 117.288 56.3841 117.316 56.6475C117.343 56.9109 117.264 57.1743 117.097 57.38C117.003 57.496 116.884 57.5894 116.748 57.6535C116.613 57.7175 116.465 57.7505 116.315 57.75C116.092 57.745 115.877 57.6658 115.704 57.525H115.684Z" fill="#DBEAFF"/>
<path d="M127.154 98.8849C126.955 98.8851 126.761 98.8264 126.596 98.7162C126.43 98.606 126.302 98.4493 126.226 98.2661C126.15 98.0829 126.131 97.8813 126.17 97.687C126.21 97.4928 126.306 97.3145 126.447 97.175C126.64 96.9964 126.893 96.8972 127.156 96.8972C127.419 96.8972 127.673 96.9964 127.865 97.175C127.958 97.2684 128.032 97.3792 128.082 97.5011C128.132 97.6229 128.157 97.7533 128.156 97.8849C128.156 98.149 128.052 98.4025 127.865 98.59C127.772 98.6835 127.661 98.7578 127.539 98.8084C127.417 98.859 127.286 98.8851 127.154 98.8849Z" fill="#DBEAFF"/>
<path d="M105.524 48.6151C105.486 48.3533 105.553 48.0868 105.71 47.874C105.868 47.6613 106.104 47.5196 106.367 47.4801C106.628 47.4413 106.895 47.5073 107.108 47.6637C107.321 47.8202 107.464 48.0543 107.504 48.3151C107.545 48.577 107.479 48.8441 107.322 49.0578C107.165 49.2716 106.93 49.4145 106.667 49.4551C106.617 49.46 106.567 49.46 106.517 49.4551C106.278 49.4558 106.047 49.3716 105.865 49.2176C105.684 49.0637 105.563 48.85 105.524 48.6151Z" fill="#DBEAFF"/>
<path d="M136.411 88.3451C136.411 88.0799 136.517 87.8256 136.705 87.638C136.893 87.4505 137.148 87.3451 137.413 87.3451C137.679 87.3451 137.934 87.4505 138.122 87.638C138.31 87.8256 138.416 88.0799 138.416 88.3451C138.416 88.6104 138.31 88.8647 138.122 89.0523C137.934 89.2398 137.679 89.3451 137.413 89.3451C137.148 89.3451 136.893 89.2398 136.705 89.0523C136.517 88.8647 136.411 88.6104 136.411 88.3451ZM135.955 81.3451C135.924 81.0819 135.999 80.8172 136.163 80.6091C136.328 80.4009 136.568 80.2665 136.832 80.2351C137.096 80.2041 137.361 80.2789 137.57 80.4429C137.779 80.607 137.913 80.847 137.945 81.1101C137.976 81.3733 137.901 81.6381 137.736 81.8462C137.572 82.0543 137.331 82.1888 137.068 82.2201H136.947C136.703 82.2196 136.468 82.1305 136.285 81.9694C136.103 81.8084 135.985 81.5864 135.955 81.3451ZM134.732 74.4601C134.7 74.3321 134.695 74.1991 134.715 74.0689C134.735 73.9386 134.781 73.8137 134.85 73.7013C134.919 73.5888 135.01 73.4911 135.117 73.4136C135.224 73.3362 135.345 73.2807 135.474 73.2501C135.732 73.1885 136.005 73.2318 136.231 73.3706C136.458 73.5094 136.62 73.7322 136.682 73.9901C136.744 74.2474 136.701 74.5186 136.563 74.7444C136.425 74.9703 136.202 75.1324 135.945 75.1951C135.868 75.2144 135.789 75.2245 135.709 75.2251C135.484 75.2258 135.265 75.1507 135.087 75.0119C134.91 74.8731 134.785 74.6787 134.732 74.4601ZM132.616 67.8251C132.567 67.7034 132.541 67.573 132.542 67.4414C132.543 67.3099 132.569 67.1797 132.621 67.0585C132.672 66.9373 132.747 66.8273 132.84 66.7349C132.934 66.6426 133.046 66.5696 133.168 66.5201C133.29 66.4704 133.421 66.4451 133.553 66.4458C133.684 66.4466 133.815 66.4732 133.936 66.5243C134.058 66.5754 134.168 66.6499 134.261 66.7436C134.353 66.8373 134.427 66.9482 134.476 67.0701C134.526 67.1922 134.551 67.3229 134.55 67.4547C134.549 67.5865 134.522 67.7168 134.47 67.838C134.418 67.9593 134.343 68.0692 134.249 68.1614C134.154 68.2535 134.042 68.3262 133.92 68.3751C133.8 68.424 133.673 68.4495 133.544 68.4501C133.344 68.4497 133.15 68.3901 132.985 68.2787C132.819 68.1674 132.691 68.0095 132.616 67.8251ZM129.464 61.6501C129.393 61.5392 129.345 61.4155 129.323 61.286C129.3 61.1566 129.304 61.0241 129.332 60.8959C129.361 60.7678 129.415 60.6465 129.491 60.5392C129.567 60.4318 129.663 60.3404 129.774 60.2701C129.886 60.1999 130.01 60.1521 130.139 60.1297C130.269 60.1072 130.402 60.1105 130.53 60.1393C130.659 60.1681 130.78 60.2218 130.888 60.2975C130.996 60.3731 131.087 60.4692 131.158 60.5801C131.228 60.6911 131.276 60.8148 131.299 60.9442C131.321 61.0736 131.318 61.2062 131.289 61.3344C131.26 61.4625 131.206 61.5837 131.13 61.6911C131.055 61.7985 130.958 61.8899 130.847 61.9601C130.687 62.0614 130.501 62.1152 130.311 62.1151C130.142 62.1152 129.975 62.0725 129.827 61.9912C129.679 61.9099 129.554 61.7926 129.464 61.6501ZM125.173 56.2551C125.08 56.1623 125.006 56.052 124.955 55.9306C124.905 55.8092 124.879 55.6791 124.879 55.5476C124.879 55.4162 124.905 55.2861 124.955 55.1647C125.006 55.0433 125.08 54.933 125.173 54.8401C125.266 54.7472 125.377 54.6734 125.498 54.6231C125.62 54.5728 125.75 54.5469 125.882 54.5469C126.014 54.5469 126.144 54.5728 126.266 54.6231C126.388 54.6734 126.498 54.7472 126.591 54.8401C126.685 54.933 126.759 55.0433 126.809 55.1647C126.859 55.2861 126.885 55.4162 126.885 55.5476C126.885 55.6791 126.859 55.8092 126.809 55.9306C126.759 56.052 126.685 56.1623 126.591 56.2551C126.404 56.4429 126.15 56.549 125.885 56.5501C125.752 56.5502 125.621 56.5242 125.499 56.4736C125.377 56.423 125.266 56.3487 125.173 56.2551ZM119.749 52.0801C119.519 51.9491 119.35 51.7324 119.28 51.4775C119.21 51.2227 119.243 50.9504 119.373 50.7201C119.439 50.6058 119.526 50.5054 119.63 50.4246C119.734 50.3439 119.853 50.2844 119.98 50.2495C120.107 50.2147 120.24 50.2052 120.37 50.2216C120.501 50.238 120.627 50.28 120.742 50.3451C120.856 50.4105 120.956 50.4976 121.037 50.6016C121.117 50.7055 121.176 50.8243 121.211 50.951C121.245 51.0778 121.254 51.21 121.237 51.3403C121.221 51.4705 121.178 51.5962 121.113 51.7101C121.025 51.862 120.898 51.9881 120.746 52.0759C120.594 52.1637 120.421 52.21 120.246 52.2101C120.072 52.2105 119.901 52.1657 119.749 52.0801ZM113.414 49.6551C113.285 49.6289 113.162 49.5776 113.053 49.5041C112.944 49.4305 112.85 49.3363 112.778 49.2267C112.705 49.1171 112.655 48.9944 112.63 48.8654C112.605 48.7364 112.605 48.6038 112.632 48.4751C112.686 48.2172 112.84 47.991 113.061 47.8459C113.281 47.7008 113.55 47.6484 113.81 47.7001C114.069 47.7543 114.297 47.9089 114.442 48.13C114.588 48.3512 114.64 48.6209 114.586 48.8801C114.54 49.1094 114.414 49.315 114.23 49.4612C114.047 49.6074 113.819 49.6849 113.584 49.6801C113.527 49.6772 113.469 49.6688 113.414 49.6551Z" fill="#DBEAFF"/>
<path d="M137.213 96.4998C137.015 96.5 136.82 96.4413 136.655 96.3311C136.49 96.2209 136.361 96.0643 136.286 95.881C136.21 95.6978 136.19 95.4963 136.23 95.302C136.269 95.1077 136.365 94.9295 136.507 94.7899C136.699 94.6114 136.953 94.5122 137.216 94.5122C137.479 94.5122 137.732 94.6114 137.925 94.7899C138.018 94.8828 138.092 94.9931 138.143 95.1145C138.193 95.2359 138.219 95.366 138.219 95.4974C138.219 95.6288 138.193 95.7589 138.143 95.8803C138.092 96.0017 138.018 96.112 137.925 96.2049C137.832 96.2984 137.721 96.3727 137.599 96.4233C137.477 96.4739 137.346 96.5 137.213 96.4998Z" fill="#DBEAFF"/>
<path d="M103.559 60.645C103.293 60.645 103.038 60.5396 102.85 60.3521C102.662 60.1645 102.557 59.9102 102.557 59.645C102.556 59.3809 102.661 59.1275 102.847 58.94C103.04 58.7603 103.293 58.6604 103.557 58.6604C103.82 58.6604 104.074 58.7603 104.266 58.94C104.454 59.1266 104.56 59.3802 104.562 59.645C104.562 59.9102 104.456 60.1645 104.268 60.3521C104.08 60.5396 103.825 60.645 103.559 60.645Z" fill="#DBEAFF"/>
<path d="M109.96 61.5752C109.852 61.499 109.761 61.4025 109.691 61.2912C109.621 61.1799 109.574 61.0559 109.552 60.9264C109.53 60.7968 109.534 60.6642 109.564 60.5362C109.593 60.4082 109.648 60.2872 109.724 60.1802C109.8 60.0731 109.897 59.9821 110.009 59.9124C110.12 59.8426 110.245 59.7955 110.374 59.7737C110.504 59.7518 110.637 59.7558 110.766 59.7852C110.894 59.8146 111.015 59.869 111.122 59.9452C111.23 60.0213 111.321 60.1178 111.391 60.2291C111.461 60.3405 111.508 60.4644 111.53 60.594C111.552 60.7235 111.548 60.8561 111.518 60.9842C111.489 61.1122 111.434 61.2331 111.358 61.3402C111.265 61.4701 111.143 61.576 111.001 61.6491C110.859 61.7221 110.701 61.7602 110.541 61.7601C110.333 61.7603 110.129 61.6956 109.96 61.5752Z" fill="#DBEAFF"/>
<path d="M116.988 89.175C116.722 89.175 116.467 89.0697 116.279 88.8821C116.091 88.6946 115.986 88.4403 115.986 88.175C115.986 87.9098 116.091 87.6555 116.279 87.4679C116.467 87.2804 116.722 87.175 116.988 87.175C117.12 87.175 117.25 87.2009 117.372 87.2511C117.493 87.3014 117.604 87.3751 117.697 87.4679C117.79 87.5608 117.864 87.671 117.914 87.7923C117.965 87.9137 117.991 88.0437 117.991 88.175C117.991 88.4403 117.885 88.6946 117.697 88.8821C117.509 89.0697 117.254 89.175 116.988 89.175ZM115.865 81C115.859 80.8687 115.878 80.7373 115.922 80.6134C115.966 80.4895 116.035 80.3755 116.123 80.2779C116.212 80.1804 116.319 80.1012 116.438 80.045C116.557 79.9887 116.686 79.9564 116.818 79.95C116.95 79.9433 117.082 79.9627 117.206 80.0072C117.331 80.0516 117.445 80.1202 117.543 80.209C117.641 80.2977 117.72 80.4049 117.777 80.5244C117.833 80.6439 117.865 80.7732 117.87 80.905C117.877 81.0364 117.858 81.1678 117.814 81.2917C117.769 81.4156 117.701 81.5296 117.613 81.6271C117.524 81.7247 117.417 81.8039 117.298 81.8601C117.179 81.9164 117.05 81.9486 116.918 81.955H116.868C116.61 81.9553 116.361 81.8561 116.174 81.6782C115.988 81.5003 115.877 81.2574 115.865 81ZM115.204 73.89C115.185 73.76 115.191 73.6275 115.223 73.5001C115.256 73.3727 115.313 73.2528 115.391 73.1474C115.47 73.042 115.569 72.9531 115.682 72.8858C115.795 72.8184 115.92 72.774 116.051 72.7551C116.313 72.7178 116.578 72.7851 116.791 72.9425C117.003 73.0998 117.144 73.3343 117.184 73.595C117.222 73.8569 117.156 74.1234 116.998 74.3361C116.84 74.5489 116.604 74.6905 116.342 74.73C116.292 74.735 116.241 74.735 116.191 74.73C115.95 74.7288 115.718 74.6413 115.537 74.4834C115.356 74.3255 115.237 74.1078 115.204 73.87V73.89ZM113.585 67.0501C113.539 66.9263 113.519 66.7948 113.524 66.6632C113.53 66.5315 113.562 66.4022 113.618 66.2828C113.673 66.1634 113.752 66.0562 113.85 65.9673C113.948 65.8785 114.062 65.8097 114.186 65.7651C114.436 65.675 114.712 65.6876 114.952 65.8001C115.193 65.9126 115.379 66.1158 115.469 66.3651C115.56 66.6144 115.547 66.8892 115.434 67.1293C115.321 67.3693 115.118 67.5548 114.868 67.6451C114.759 67.6871 114.643 67.7074 114.527 67.7051C114.319 67.7039 114.117 67.6383 113.948 67.5173C113.779 67.3964 113.652 67.2261 113.585 67.0301V67.0501Z" fill="#DBEAFF"/>
<path d="M116.782 96.4199C116.583 96.42 116.389 96.3613 116.224 96.2511C116.058 96.1409 115.93 95.9843 115.854 95.801C115.778 95.6178 115.759 95.4162 115.798 95.222C115.837 95.0277 115.934 94.8494 116.075 94.7099C116.267 94.5317 116.519 94.4326 116.782 94.4326C117.044 94.4326 117.296 94.5317 117.488 94.7099C117.582 94.8029 117.657 94.9135 117.707 95.0354C117.758 95.1572 117.784 95.2879 117.784 95.4199C117.784 95.6851 117.679 95.9394 117.491 96.127C117.303 96.3145 117.048 96.4199 116.782 96.4199Z" fill="#DBEAFF"/>
<path d="M161.504 36.4284C161.417 31.6829 162.769 27.0188 165.388 23.0257C168.008 19.0327 171.777 15.8902 176.219 13.9954C180.662 12.1006 185.578 11.5387 190.346 12.3807C195.115 13.2227 199.521 15.4308 203.009 18.7259C206.496 22.0209 208.908 26.2549 209.939 30.8925C210.97 35.5301 210.574 40.363 208.801 44.7802C207.028 49.1974 203.958 53.0005 199.979 55.7086C196 58.4167 191.291 59.9083 186.446 59.9947C183.226 60.0612 180.024 59.5033 177.025 58.3532C174.026 57.2031 171.289 55.4835 168.971 53.2933C166.653 51.1031 164.8 48.4856 163.518 45.5912C162.237 42.6969 161.552 39.5829 161.504 36.4284Z" fill="#FEE488"/>
<path d="M165.503 36.3254C165.437 32.3736 166.573 28.4913 168.767 25.1687C170.961 21.8461 174.115 19.2323 177.83 17.6571C181.546 16.0819 185.656 15.616 189.643 16.3183C193.63 17.0205 197.314 18.8594 200.23 21.6028C203.146 24.3462 205.164 27.8711 206.028 31.7324C206.893 35.5937 206.565 39.6183 205.087 43.2981C203.609 46.9779 201.046 50.1479 197.722 52.4079C194.399 54.6678 190.463 55.9164 186.413 55.9959C183.715 56.049 181.033 55.5817 178.52 54.6209C176.007 53.6601 173.714 52.2248 171.771 50.3972C169.828 48.5696 168.274 46.3858 167.199 43.971C166.123 41.5562 165.547 38.958 165.503 36.3254Z" fill="#FFBF5F"/>
<path d="M185.988 57.9883C180.094 57.9862 174.436 55.7223 170.231 51.6835C166.026 47.6447 163.611 42.1537 163.504 36.3917C163.449 33.5029 163.976 30.6317 165.057 27.9423C166.137 25.253 167.749 22.7983 169.801 20.7187C171.853 18.639 174.303 16.9751 177.013 15.8223C179.723 14.6694 182.639 14.0502 185.594 14H186C191.894 14.0081 197.55 16.2736 201.755 20.3108C205.961 24.348 208.381 29.8355 208.496 35.5966C208.605 41.4292 206.341 47.0654 202.201 51.2664C198.061 55.4674 192.385 57.8894 186.419 58L185.988 57.9883ZM185.988 14.7834H185.594C182.745 14.8351 179.935 15.4352 177.324 16.5493C174.712 17.6635 172.351 19.2699 170.375 21.2767C168.399 23.2834 166.847 25.6513 165.808 28.2448C164.768 30.8383 164.262 33.6067 164.317 36.3917C164.397 40.5667 165.737 44.6255 168.168 48.059C170.598 51.4925 174.012 54.1476 177.981 55.6913C181.949 57.2351 186.295 57.5986 190.474 56.7362C194.653 55.8739 198.478 53.8242 201.47 50.8442C204.462 47.8643 206.487 44.0868 207.291 39.9858C208.096 35.8849 207.643 31.643 205.991 27.7925C204.338 23.9419 201.56 20.6543 198.003 18.342C194.447 16.0298 190.271 14.7958 186 14.7951L185.988 14.7834Z" fill="#FFBF5F"/>
<path d="M183.023 47.9148C181.405 47.7388 179.849 47.1779 178.473 46.2756L177.5 45.5765L179.295 40.0561L180.985 41.177C182.149 41.9468 183.496 42.3641 184.875 42.3824H185.002C186.16 42.3824 187.445 41.852 187.422 40.5141C187.422 39.803 187.179 38.9472 184.539 37.8986C181.274 36.6933 177.917 34.7527 177.836 30.4135C177.813 28.8318 178.288 27.2857 179.189 26.0122C180.09 24.7386 181.368 23.8078 182.826 23.3624L182.756 21.0964L187.989 21L188.058 22.9285C189.333 23.0843 190.567 23.4935 191.694 24.1338L192.851 24.8209L190.976 30.2568L189.367 29.3408C188.347 28.7274 187.187 28.411 186.009 28.4248H185.87C184.597 28.4248 183.868 28.9672 183.879 29.8591C183.879 30.51 184.134 31.0644 187.155 32.2697C190.177 33.4751 193.418 35.3915 193.499 40.1043C193.526 41.758 193.031 43.375 192.09 44.7075C191.149 46.04 189.814 47.0142 188.29 47.4809L188.371 49.8915L183.092 50L183.023 47.9148Z" fill="#FEE488"/>
</svg>
