<svg width="350" height="250" viewBox="0 0 350 250" fill="none" xmlns="http://www.w3.org/2000/svg">
<path d="M7.49959 134.224C27.8996 87.4239 124.333 92.0572 170 100.224C176.5 103.391 210.5 116.324 294.5 142.724C399.5 175.724 330.5 291.724 279 232.724C227.5 173.724 208 227.724 115.5 241.224C22.9996 254.724 -18.0004 192.724 7.49959 134.224Z" fill="#D9F9C5"/>
<path d="M270 53H76V215H270V53Z" fill="white"/>
<path d="M270 22.1156V53H76V22.1156C76 19.1676 77.1606 16.3403 79.2265 14.2557C81.2924 12.1711 84.0944 11 87.016 11H258.984C261.906 11 264.708 12.1711 266.773 14.2557C268.839 16.3403 270 19.1676 270 22.1156V22.1156Z" fill="#498FEB"/>
<path d="M240 39C244.971 39 249 34.9706 249 30C249 25.0294 244.971 21 240 21C235.029 21 231 25.0294 231 30C231 34.9706 235.029 39 240 39Z" fill="#1E70DB"/>
<path d="M240 34C241.327 33.9978 242.599 33.4457 243.536 32.465C244.473 31.4842 245 30.1551 245 28.7692V5.22231C245 3.83726 244.473 2.50895 243.536 1.52958C242.598 0.550206 241.326 0 240 0V0C238.674 0 237.402 0.550206 236.464 1.52958C235.527 2.50895 235 3.83726 235 5.22231V28.7946C235.006 30.176 235.536 31.4987 236.473 32.4739C237.409 33.4492 238.677 33.9978 240 34Z" fill="#337DDE"/>
<path d="M176 39C180.971 39 185 34.9706 185 30C185 25.0294 180.971 21 176 21C171.029 21 167 25.0294 167 30C167 34.9706 171.029 39 176 39Z" fill="#1E70DB"/>
<path d="M175.496 34C176.218 34 176.934 33.8647 177.602 33.6018C178.27 33.339 178.877 32.9537 179.388 32.4679C179.899 31.9822 180.304 31.4056 180.581 30.771C180.858 30.1363 181 29.4561 181 28.7692V5.22231C180.998 3.83649 180.417 2.50819 179.385 1.52906C178.353 0.549934 176.954 -1.81426e-06 175.496 0V0C174.038 0 172.64 0.550206 171.61 1.52958C170.579 2.50895 170 3.83726 170 5.22231V28.7946C170.007 30.176 170.589 31.4987 171.618 32.4739C172.648 33.4492 174.042 33.9978 175.496 34V34Z" fill="#337DDE"/>
<path d="M111 39C115.971 39 120 34.9706 120 30C120 25.0294 115.971 21 111 21C106.029 21 102 25.0294 102 30C102 34.9706 106.029 39 111 39Z" fill="#1E70DB"/>
<path d="M111.004 34C112.33 33.9978 113.601 33.4457 114.537 32.465C115.474 31.4842 116 30.1551 116 28.7692V5.22231C116 3.83726 115.474 2.50895 114.537 1.52958C113.6 0.550206 112.329 0 111.004 0V0C109.678 -1.81426e-06 108.407 0.549934 107.469 1.52906C106.53 2.50819 106.002 3.83649 106 5.22231V28.7946C106.006 30.1775 106.536 31.5015 107.474 32.4769C108.412 33.4524 109.681 34 111.004 34V34Z" fill="#337DDE"/>
<path d="M216 113H245V84H216V113Z" stroke="#FF8987" stroke-width="2.21" stroke-miterlimit="10"/>
<path d="M216 149H245V121H216V149Z" stroke="#FF8987" stroke-width="2.21" stroke-miterlimit="10"/>
<path d="M216 185H245V156H216V185Z" stroke="#F0E0DF" stroke-width="2.21" stroke-miterlimit="10"/>
<path d="M179 113H207V84H179V113Z" stroke="#FF8987" stroke-width="2.21" stroke-miterlimit="10"/>
<path d="M140 113H169V84H140V113Z" stroke="#FF8987" stroke-width="2.21" stroke-miterlimit="10"/>
<path d="M102 113H131V84H102V113Z" stroke="#FF8987" stroke-width="2.21" stroke-miterlimit="10"/>
<path d="M179 149H207V121H179V149Z" stroke="#FF8987" stroke-width="2.21" stroke-miterlimit="10"/>
<path d="M140 149H169V121H140V149Z" stroke="#FF8987" stroke-width="2.21" stroke-miterlimit="10"/>
<path d="M102 149H131V121H102V149Z" fill="#E94A47"/>
<path d="M112 131L120 139" stroke="white" stroke-width="2.02" stroke-miterlimit="10"/>
<path d="M120 131L112 139" stroke="white" stroke-width="2.02" stroke-miterlimit="10"/>
<path d="M179 186H207V157H179V186Z" stroke="#FF8987" stroke-width="2.21" stroke-miterlimit="10"/>
<path d="M140 186H169V157H140V186Z" stroke="#FF8987" stroke-width="2.21" stroke-miterlimit="10"/>
<path d="M102 186H131V157H102V186Z" stroke="#FF8987" stroke-width="2.21" stroke-miterlimit="10"/>
<path d="M258 248C291.689 248 319 220.689 319 187C319 153.311 291.689 126 258 126C224.311 126 197 153.311 197 187C197 220.689 224.311 248 258 248Z" fill="#1E70DB"/>
<path d="M257.5 244C289.256 244 315 218.256 315 186.5C315 154.744 289.256 129 257.5 129C225.744 129 200 154.744 200 186.5C200 218.256 225.744 244 257.5 244Z" fill="#498FEB"/>
<path d="M258 238C286.167 238 309 215.167 309 187C309 158.833 286.167 136 258 136C229.833 136 207 158.833 207 187C207 215.167 229.833 238 258 238Z" fill="#F6F6F6"/>
<path d="M258.007 147C257.742 146.998 257.489 146.879 257.301 146.67C257.114 146.46 257.008 146.177 257.007 145.88V143.248C256.99 143.091 257.004 142.933 257.047 142.782C257.089 142.631 257.16 142.493 257.253 142.375C257.347 142.257 257.462 142.163 257.591 142.098C257.72 142.033 257.859 142 258 142C258.141 142 258.28 142.033 258.409 142.098C258.538 142.163 258.653 142.257 258.747 142.375C258.84 142.493 258.911 142.631 258.953 142.782C258.996 142.933 259.01 143.091 258.993 143.248V145.88C258.993 146.175 258.89 146.457 258.705 146.667C258.52 146.876 258.27 146.996 258.007 147V147Z" fill="#498FEB"/>
<path d="M258.007 233C257.741 233 257.487 232.858 257.3 232.606C257.112 232.355 257.007 232.013 257.007 231.656V228.498C256.99 228.31 257.004 228.119 257.047 227.938C257.089 227.758 257.16 227.591 257.253 227.45C257.347 227.308 257.462 227.195 257.591 227.118C257.72 227.04 257.859 227 258 227C258.141 227 258.28 227.04 258.409 227.118C258.538 227.195 258.653 227.308 258.747 227.45C258.84 227.591 258.911 227.758 258.953 227.938C258.996 228.119 259.01 228.31 258.993 228.498V231.656C258.994 231.832 258.969 232.006 258.92 232.168C258.871 232.33 258.799 232.478 258.707 232.603C258.615 232.728 258.506 232.827 258.386 232.895C258.266 232.963 258.137 232.999 258.007 233V233Z" fill="#498FEB"/>
<path d="M228.906 159C228.617 158.999 228.339 158.885 228.133 158.682L226.32 156.867C226.115 156.662 226 156.384 226 156.094C226 155.804 226.115 155.526 226.32 155.32C226.525 155.115 226.803 155 227.093 155C227.383 155 227.661 155.115 227.866 155.32L229.679 157.135C229.781 157.236 229.861 157.357 229.917 157.49C229.972 157.622 230 157.765 230 157.908C230 158.052 229.972 158.194 229.917 158.327C229.861 158.46 229.781 158.581 229.679 158.682C229.473 158.885 229.195 158.999 228.906 159V159Z" fill="#498FEB"/>
<path d="M289.633 220C289.271 219.997 288.925 219.855 288.666 219.602L286.4 217.334C286.144 217.078 286 216.73 286 216.367C286 216.005 286.144 215.657 286.4 215.4C286.656 215.144 287.004 215 287.366 215C287.729 215 288.076 215.144 288.332 215.4L290.599 217.669C290.79 217.859 290.921 218.103 290.974 218.368C291.027 218.633 291 218.908 290.896 219.158C290.792 219.408 290.617 219.621 290.392 219.771C290.167 219.921 289.903 220.001 289.633 220V220Z" fill="#498FEB"/>
<path d="M227.094 220C226.805 219.999 226.527 219.856 226.321 219.602C226.219 219.476 226.139 219.325 226.083 219.159C226.028 218.993 226 218.815 226 218.636C226 218.456 226.028 218.278 226.083 218.112C226.139 217.946 226.219 217.795 226.321 217.669L228.134 215.4C228.339 215.144 228.617 215 228.907 215C229.197 215 229.475 215.144 229.68 215.4C229.885 215.657 230 216.005 230 216.367C230 216.73 229.885 217.078 229.68 217.334L227.867 219.602C227.661 219.856 227.383 219.999 227.094 220V220Z" fill="#498FEB"/>
<path d="M287.367 159C287.006 158.998 286.66 158.884 286.401 158.682C286.274 158.581 286.173 158.46 286.104 158.327C286.035 158.194 286 158.052 286 157.908C286 157.765 286.035 157.622 286.104 157.49C286.173 157.357 286.274 157.236 286.401 157.135L288.668 155.32C288.924 155.115 289.271 155 289.634 155C289.996 155 290.344 155.115 290.6 155.32C290.856 155.526 291 155.804 291 156.094C291 156.384 290.856 156.662 290.6 156.867L288.334 158.682C288.207 158.783 288.056 158.863 287.89 158.918C287.724 158.973 287.547 159 287.367 159V159Z" fill="#498FEB"/>
<path d="M216.719 188.99H214.017C213.737 188.948 213.479 188.773 213.291 188.498C213.104 188.223 213 187.868 213 187.5C213 187.132 213.104 186.777 213.291 186.502C213.479 186.227 213.737 186.052 214.017 186.01H216.719C216.88 185.986 217.043 186.006 217.197 186.07C217.352 186.134 217.494 186.239 217.615 186.38C217.736 186.521 217.833 186.693 217.899 186.886C217.966 187.079 218 187.288 218 187.5C218 187.712 217.966 187.921 217.899 188.114C217.833 188.307 217.736 188.479 217.615 188.62C217.494 188.761 217.352 188.866 217.197 188.93C217.043 188.994 216.88 189.014 216.719 188.99V188.99Z" fill="#498FEB"/>
<path d="M302.538 188.99H299.462C299.279 189.014 299.093 188.994 298.916 188.93C298.74 188.866 298.577 188.761 298.439 188.62C298.301 188.479 298.19 188.307 298.115 188.114C298.039 187.921 298 187.712 298 187.5C298 187.288 298.039 187.079 298.115 186.886C298.19 186.693 298.301 186.521 298.439 186.38C298.577 186.239 298.74 186.134 298.916 186.07C299.093 186.006 299.279 185.986 299.462 186.01H302.538C302.721 185.986 302.907 186.006 303.084 186.07C303.26 186.134 303.423 186.239 303.561 186.38C303.699 186.521 303.81 186.693 303.885 186.886C303.961 187.079 304 187.288 304 187.5C304 187.712 303.961 187.921 303.885 188.114C303.81 188.307 303.699 188.479 303.561 188.62C303.423 188.761 303.26 188.866 303.084 188.93C302.907 188.994 302.721 189.014 302.538 188.99V188.99Z" fill="#498FEB"/>
<path d="M261 187H255V160.109C255 159.286 255.316 158.496 255.878 157.914C256.441 157.331 257.204 157.002 258 157C258.395 157 258.785 157.08 259.15 157.237C259.514 157.393 259.846 157.622 260.124 157.911C260.403 158.2 260.624 158.543 260.774 158.92C260.924 159.297 261.001 159.701 261 160.109V187Z" fill="#498FEB"/>
<path d="M258 194C261.866 194 265 190.866 265 187C265 183.134 261.866 180 258 180C254.134 180 251 183.134 251 187C251 190.866 254.134 194 258 194Z" fill="#1E70DB"/>
</svg>
