<svg width="294" height="278" viewBox="0 0 294 278" fill="none" xmlns="http://www.w3.org/2000/svg">
<g filter="url(#filter0_d)">
<path fill-rule="evenodd" clip-rule="evenodd" d="M39.0547 146.646L64.7006 211.405L83.4236 259.141L96.2545 258.804L74.8952 145.704L39.0547 146.646Z" fill="#191847"/>
<path fill-rule="evenodd" clip-rule="evenodd" d="M32.607 146.815C32.8401 180.534 31.3697 198.967 30.856 202.044C30.3423 205.122 21.9453 224.835 5.66522 261.183L18.9572 260.834C39.9473 225.823 51.6585 206.023 54.0909 201.434C56.5232 196.845 63.9257 178.256 74.9682 145.702L32.607 146.815Z" fill="#2F3676"/>
<path fill-rule="evenodd" clip-rule="evenodd" d="M4.69344 269.957L5.10524 259.739L19.0714 259.392C29.1316 264.247 45.2136 267.007 45.2136 267.007L45.2619 268.95L19.9897 269.578L11.3199 268.821L11.344 269.792L4.69344 269.957Z" fill="#191847"/>
<path fill-rule="evenodd" clip-rule="evenodd" d="M81.8409 268.042L82.2527 257.823L96.2189 257.477C106.279 262.331 122.361 265.092 122.361 265.092L122.409 267.035L97.1372 267.662L88.4673 266.905L88.4915 267.877L81.8409 268.042Z" fill="#191847"/>
<path fill-rule="evenodd" clip-rule="evenodd" d="M77 24.6299C77 32.6382 71.8511 39.1299 65.4997 39.1299C59.1489 39.1299 54 32.6382 54 24.6299C54 16.6216 59.1489 10.1299 65.4997 10.1299C71.8511 10.1299 77 16.6216 77 24.6299" fill="#19141E"/>
<path d="M67.9841 14.9712C67.9841 14.9712 73.9324 15.1626 73.7361 36.6351C73.638 47.2099 75.4286 57.354 70.8417 62.9524C66.2548 68.5508 57.2527 70.1299 46.1534 70.1299C26.886 70.1299 18.2641 59.1364 19.049 37.0897C19.834 15.0429 56.6027 9.79142 67.9841 14.9712Z" fill="#FFA180"/>
<path d="M70 43.3144C70 43.3144 70.1005 37.2241 76.2788 37.1307C82.4571 37.0374 83.8133 44.7961 79.4558 47.0946C75.0984 49.393 70.5023 47.7479 70 43.3144Z" fill="#FFA180"/>
<path d="M74.2322 45.1299C74.0362 44.485 73.9634 43.8112 74.0172 43.1411C74.0605 42.4586 74.229 41.7889 74.515 41.1633C74.8195 40.5097 75.3051 39.9501 75.9181 39.5461C76.5389 39.1736 77.2838 39.0446 78 39.1855C77.3989 39.3905 76.8425 39.7018 76.3594 40.1034C75.9403 40.5182 75.6029 41.0033 75.3637 41.5348C74.8811 42.6998 74.5025 43.9026 74.2322 45.1299V45.1299Z" fill="#534248"/>
<path d="M74 42.1199C74.3085 41.8007 74.6974 41.5537 75.1335 41.3999C75.5631 41.2438 76.0188 41.1549 76.4811 41.137C76.9441 41.1077 77.4087 41.169 77.8433 41.3169C78.2779 41.4648 78.6724 41.6958 79 41.9942C78.5214 41.9942 78.1058 41.9942 77.7406 41.9942H76.5441C75.7254 42.0971 74.8942 42.1542 74 42.1199Z" fill="#534248"/>
<path d="M49.5 58.1299C50.3284 58.1299 51 57.2344 51 56.1299C51 55.0253 50.3284 54.1299 49.5 54.1299C48.6716 54.1299 48 55.0253 48 56.1299C48 57.2344 48.6716 58.1299 49.5 58.1299Z" fill="#F27268"/>
<path d="M69 55.1299C70.1046 55.1299 71 54.2344 71 53.1299C71 52.0253 70.1046 51.1299 69 51.1299C67.8954 51.1299 67 52.0253 67 53.1299C67 54.2344 67.8954 55.1299 69 55.1299Z" fill="#F27268"/>
<path d="M43.0011 43.4179C42.9939 43.5238 43.0221 43.6292 43.0822 43.7206C43.175 43.8095 43.2912 43.8761 43.4202 43.9143C43.7742 44.0232 44.142 44.0924 44.5151 44.1202C45.9093 44.1939 47.2906 43.844 48.4353 43.1272C49.8952 42.2674 48.1785 41.4318 47.1781 41.2259C45.4884 40.8626 43.0146 41.5166 43.0011 43.4179Z" fill="#2F2F3D"/>
<path d="M65.0297 38.4191C64.9901 38.5195 64.9901 38.629 65.0297 38.7294C65.0671 38.8449 65.1468 38.9458 65.2558 39.0158C65.5286 39.2374 65.8326 39.4259 66.16 39.5767C67.3995 40.1144 68.8035 40.2656 70.1496 40.0063C71.8385 39.7079 70.6283 38.3714 69.8038 37.8344C68.3676 36.9394 65.8276 36.6649 65.0297 38.4191Z" fill="#2F2F3D"/>
<path d="M54 67.1299V85.1299L44.6365 83.3957L40 79.6615L41.7436 67.1299H54Z" fill="#FFA180"/>
<path d="M60 44.1299C60.8929 45.409 61.6964 46.752 62.551 48.0822C63.4056 49.4124 64.1199 50.781 64.8597 52.1496L65 52.4183L64.7449 52.5717C63.2143 53.4671 61.6582 54.3369 60.0383 55.1299C61.4541 54.0299 62.9209 53.0322 64.426 52.0729L64.324 52.495C63.5459 51.1392 62.8061 49.7706 62.0791 48.3892C61.352 47.0078 60.625 45.5624 60 44.1299Z" fill="#534248"/>
<path d="M69 47.1243C69 48.2323 68.561 49.1299 68 49.1299C67.439 49.1299 67 48.2323 67 47.1243C67 46.0163 67.4512 45.1299 68 45.1299C68.5488 45.1299 69 46.0163 69 47.1243Z" fill="#534248"/>
<path d="M50 49.1354C50 50.2435 49.5488 51.1299 49 51.1299C48.4512 51.1299 48 50.2324 48 49.1354C48 48.0385 48.4512 47.1299 49 47.1299C49.5488 47.1299 50 48.0274 50 49.1354Z" fill="#534248"/>
<path d="M50 56.1299C51.7409 57.5831 53.7997 58.672 56.0362 59.3226C57.122 59.6275 58.2467 59.7982 59.3809 59.8305C60.5437 59.9151 61.7196 59.8305 63 59.8305C61.9214 60.4622 60.7101 60.8744 59.4462 61.0398C58.1494 61.2177 56.8262 61.1314 55.5692 60.7867C54.3122 60.4421 53.1517 59.8474 52.1688 59.0444C51.1921 58.2576 50.446 57.255 50 56.1299Z" fill="#534248"/>
<path d="M26 52.8679C26 52.8679 25.8995 46.2325 19.7212 46.1308C13.5429 46.0291 12.1867 54.4822 16.5442 56.9991C20.9016 59.516 25.5103 57.6982 26 52.8679Z" fill="#FFA180"/>
<path d="M21.7677 55.1299C21.964 54.3816 22.0368 53.5991 21.9826 52.8212C21.9395 52.0204 21.771 51.2344 21.4848 50.4998C21.1839 49.7343 20.6976 49.08 20.0818 48.6121C19.459 48.1833 18.7162 48.0331 18 48.1912C18.6011 48.4304 19.1574 48.7938 19.6406 49.2626C20.0597 49.7468 20.3971 50.313 20.6362 50.9335C21.1188 52.2934 21.4973 53.6973 21.7677 55.1299V55.1299Z" fill="#534248"/>
<path d="M77 147.668L30.3636 149.13L32.3535 117.086L33.5767 109.546C28.8878 105.148 20.3662 94.9688 23.7911 89.4396C27.2161 83.9104 34.188 80.6432 42.1388 78.1299C42.7504 78.7582 45.8087 83.7847 50.0899 82.5281C54.3711 81.2715 52.8908 81.8998 52.8908 80.6432C63.288 82.5281 62.2686 95.0945 65.7344 98.8644L72.7191 107.033L77 147.668Z" fill="#2F2F3D"/>
<path d="M20 112.13C21.8723 149.549 57 127.901 57 127.901C56.7735 124.818 55.8314 121.827 54.2458 119.156C35.2687 134.039 33.034 114.95 33.034 114.95L20 112.13Z" fill="#FFA180"/>
<path d="M20 112.13C21.8723 149.549 57 127.901 57 127.901C56.7735 124.818 55.8314 121.827 54.2458 119.156C35.2687 134.039 33.034 114.95 33.034 114.95L20 112.13Z" fill="#FFA180"/>
<path d="M25.7105 51.1299C21.6938 44.2789 18.4474 45.6569 16.6316 46.8731C15.5913 43.8764 13.7564 35.1045 13.1992 31.4082C11.7047 21.5154 18.9223 12.4895 24.7522 9.89771C30.6535 7.27483 40.8288 3.64012 55.7229 8.57399C65.7362 11.8933 72.1366 3.94648 78.0288 7.34052C88.0975 13.1418 78.7323 38.5402 53.2014 32.0881C34.939 27.4726 34.4696 28.6304 34.3131 31.9853C33.8068 42.8296 29.7939 49.2093 25.7105 51.1299Z" fill="#2F2F3D"/>
<path d="M52.1915 117.62C36.9723 127.36 37.4325 115.79 37.2296 112.95C36.0107 105.036 39.666 100.166 39.666 93.4697C39.666 88.1127 37.5825 88.4005 35.1474 88.4006C12.6212 99.358 20.1852 125.003 27.4902 131.821C34.7951 138.639 48.336 134.462 55.2352 131.013C53.7742 128.578 52.5973 120.867 52.1915 117.62Z" fill="#252531"/>
<path d="M52.1942 119.646C36.975 129.386 35.3517 118.226 35.1488 115.385C33.9299 107.471 37.5851 102.601 37.5851 95.9048C37.5851 90.5478 33.5268 85.1503 31.4977 83.1211C8.97144 94.0786 18.1044 127.438 25.4093 134.256C32.7143 141.074 48.3388 135.879 55.238 132.43C53.777 129.995 52.6001 122.893 52.1942 119.646Z" fill="#2F2F3D"/>
<path d="M117.719 102.722C120.615 103.134 123.415 101.622 126.349 101.294C126.866 101.239 127.601 101.423 127.541 101.948C127.496 102.162 127.371 102.35 127.192 102.474C126.071 103.46 124.762 104.207 123.342 104.669C125.565 104.893 127.709 105.615 129.615 106.782C129.734 106.844 129.837 106.934 129.915 107.044C129.992 107.154 130.042 107.281 130.06 107.415C130.036 107.899 129.359 107.981 128.879 107.903C127.239 107.646 125.616 107.286 124.022 106.825C125.938 107.562 127.6 108.839 128.805 110.501C128.907 110.749 129.047 111.086 128.786 111.22C128.707 111.246 128.623 111.253 128.54 111.242C128.458 111.23 128.379 111.2 128.31 111.153C126.85 110.452 125.46 109.615 124.157 108.653C125.094 109.396 125.865 110.328 126.418 111.388C126.972 112.449 127.296 113.614 127.369 114.808C126.577 114.964 125.898 114.243 125.393 113.595L123.157 110.698C124.055 112.619 124.963 114.787 124.298 116.813C123.174 114.546 121.289 112.746 118.972 111.728C117.909 111.427 116.932 110.877 116.124 110.124C115.728 109.477 115.501 108.742 115.462 107.985C115.423 107.228 115.575 106.473 115.903 105.79" fill="#FF8A64"/>
<path d="M51.9131 81.5556C54.1425 80.439 56.7079 80.1926 59.1091 80.8644C61.485 81.5461 63.7671 82.5199 65.9032 83.7635C73.8057 87.9438 80.6348 93.2256 89.2104 96.1008C98.6119 99.2541 108.249 100.743 117.98 101.982C117.898 103.867 117.938 105.756 118.1 107.636C118.099 108.558 118.118 109.498 118.21 110.422C118.256 110.535 117.718 111.598 117.681 111.732C112.788 112.29 108.45 111.539 103.495 112.043C85.6326 113.857 68.5205 108.775 52.3151 101.423L51.9131 81.5556Z" fill="#2F2F3D"/>
<path fill-rule="evenodd" clip-rule="evenodd" d="M54.8875 80.0216L56.1977 80.0737L55.2142 74.155L53.1155 74.0561L49.9483 78.8833L46.8339 73.7564L38.9541 73.3813L36.7178 79.2997L41.209 79.4781L50.7152 92.5738L54.8875 80.0216Z" fill="#FCBDA4"/>
<path fill-rule="evenodd" clip-rule="evenodd" d="M44.7687 75.2077L42.5022 80.7658L48.5859 78.6932L44.7687 75.2077ZM54.5718 75.9634L50.9214 78.9488L55.8062 81.1441L54.5718 75.9634Z" fill="#EA847A"/>
<path d="M202.725 260.569L201.733 263.676C200.485 262.505 198.883 261.782 197.179 261.62C194.395 261.405 192.674 261.477 190.953 259.935C189.232 258.394 185.754 259.493 184.356 258.394C182.958 257.294 181.715 255.693 180.102 255.394C178.488 255.095 178.644 253.781 177.102 253.004C176.082 252.416 175.284 251.509 174.831 250.422L176.875 249.538L202.725 260.569Z" fill="#7191AD"/>
<path d="M282.39 261.561L283.143 264.799C281.264 265.072 279.356 265.072 277.478 264.799C273.821 264.381 272.255 266.915 269.566 266.401C266.877 265.887 265.766 264.979 263.675 265.421C261.583 265.863 259.575 267.739 257.484 267.142C255.393 266.544 254.209 265.421 252.704 265.875C251.198 266.329 247.923 267.895 246.812 267.261C246.214 266.066 247.529 263.58 247.529 263.58L282.39 261.561Z" fill="#7191AD"/>
<path d="M256.468 230.309C256.468 230.309 239.342 191.17 236.857 162.775C236.857 162.261 236.773 161.759 236.737 161.257C236.737 161.257 214.604 199.619 211.975 223.509C199.916 221.979 202.761 220.88 202.761 220.88C202.761 220.88 201.745 159.93 227.129 122.452C225.934 108.422 221.775 87.1612 221.775 87.1612C221.775 87.1612 233.893 73.7881 245.509 73.7881C257.125 73.7881 269.53 82.333 269.53 82.333C269.53 82.333 262.085 120.253 264.929 152.043C267.774 183.832 270.726 216.745 270.726 216.745C270.726 216.745 266.113 229.437 256.468 230.309Z" fill="#243C58"/>
<path d="M242 67.5854V84.5796L250.665 82.9424L254.955 79.4168L253.342 67.5854H242Z" fill="#FFA180"/>
<path d="M268.79 227.991L272.208 238.173L263.352 241.125L255.955 229.09L268.79 227.991Z" fill="#FFA180"/>
<path d="M210.016 229.067L203.992 241.125L199.905 240.133L202.116 226.545L210.016 229.067Z" fill="#FFA180"/>
<path d="M212.871 231.958L217.209 220.593C217.209 220.593 209.692 216.398 196.092 215.382V228.839L212.871 231.958Z" fill="#7191AD"/>
<path d="M277.812 228.78L273.176 213.733C273.176 213.733 253.074 215.466 248.879 224.489C250.987 229.334 253.637 233.925 256.779 238.173C256.779 238.173 268.407 230.369 277.812 228.78Z" fill="#7191AD"/>
<path d="M276.092 235.699L257.783 241.124L264.081 257.641C264.081 257.641 249.956 254.784 247.099 264.811C257.783 264.811 282.761 263.102 282.761 263.102L276.092 235.699Z" fill="#FFE576"/>
<path d="M210.016 238.173C210.016 238.173 197.981 234.994 194.372 234.587V252.442C191.775 250.25 188.588 248.874 185.212 248.487C181.835 248.1 178.419 248.719 175.394 250.267C184.058 258.453 202.475 261.585 202.475 261.585L210.016 238.173Z" fill="#FFE576"/>
<path d="M267.666 209.526C267.638 209.939 267.721 210.351 267.906 210.721C268.216 211.355 267.26 211.916 266.949 211.283C266.66 210.731 266.524 210.112 266.555 209.49C266.591 208.821 267.702 208.809 267.666 209.526Z" fill="#7191AD"/>
<path d="M266.447 204.22L266.663 205.415C266.782 206.109 265.718 206.407 265.599 205.702L265.384 204.507C265.252 203.862 266.34 203.515 266.447 204.22Z" fill="#7191AD"/>
<path d="M265.731 196.942C265.693 197.577 265.721 198.213 265.815 198.842C265.922 199.535 264.859 199.834 264.751 199.129C264.63 198.407 264.585 197.674 264.62 196.942C264.655 196.237 265.767 196.225 265.731 196.942Z" fill="#7191AD"/>
<path d="M264.427 189.951C264.453 190.489 264.558 191.021 264.738 191.528C264.977 192.198 263.913 192.485 263.674 191.815C263.458 191.217 263.341 190.587 263.328 189.951C263.292 189.234 264.403 189.234 264.427 189.951Z" fill="#7191AD"/>
<path d="M263.544 183.545C263.675 184.226 263.795 184.895 263.926 185.577C264.058 186.258 262.994 186.569 262.863 185.875L262.468 183.844C262.337 183.163 263.412 182.864 263.544 183.545Z" fill="#7191AD"/>
<path d="M262.444 177.438C262.623 178.191 262.79 178.932 262.969 179.685C263.149 180.438 262.061 180.677 261.894 179.972C261.726 179.267 261.547 178.478 261.38 177.737C261.213 176.996 262.288 176.745 262.444 177.438Z" fill="#7191AD"/>
<path d="M261.56 171.415L262.026 173.231C262.066 173.372 262.048 173.523 261.976 173.651C261.904 173.779 261.785 173.873 261.644 173.912C261.503 173.952 261.352 173.934 261.224 173.862C261.096 173.791 261.002 173.671 260.963 173.53C260.807 172.92 260.652 172.335 260.485 171.713C260.463 171.577 260.492 171.437 260.567 171.321C260.641 171.205 260.756 171.12 260.889 171.083C261.022 171.047 261.164 171.06 261.288 171.121C261.412 171.182 261.509 171.287 261.56 171.415V171.415Z" fill="#7191AD"/>
<path d="M261.213 165.32V167.71C261.193 167.843 261.126 167.965 261.024 168.053C260.922 168.141 260.792 168.19 260.657 168.19C260.522 168.19 260.392 168.141 260.29 168.053C260.188 167.965 260.121 167.843 260.101 167.71V165.32C260.121 165.186 260.188 165.065 260.29 164.976C260.392 164.888 260.522 164.84 260.657 164.84C260.792 164.84 260.922 164.888 261.024 164.976C261.126 165.065 261.193 165.186 261.213 165.32Z" fill="#7191AD"/>
<path d="M261.32 157.468C261.291 158.067 261.324 158.668 261.415 159.26C261.523 159.954 260.459 160.252 260.352 159.547C260.238 158.86 260.19 158.164 260.208 157.468C260.228 157.334 260.295 157.212 260.397 157.124C260.499 157.036 260.629 156.988 260.764 156.988C260.899 156.988 261.029 157.036 261.131 157.124C261.233 157.212 261.3 157.334 261.32 157.468V157.468Z" fill="#7191AD"/>
<path d="M261.106 151.123C261.078 151.758 261.11 152.394 261.202 153.023C261.321 153.716 260.257 154.015 260.138 153.31C260.018 152.587 259.97 151.855 259.995 151.123C260.018 150.417 261.13 150.417 261.106 151.123Z" fill="#7191AD"/>
<path d="M260.616 145.099C260.616 144.394 261.811 144.394 261.715 145.099L261.62 146.713C261.62 147.418 260.425 147.43 260.508 146.713L260.616 145.099Z" fill="#7191AD"/>
<path d="M261.405 139.685C261.548 138.992 262.6 139.278 262.468 139.972C262.39 140.365 262.366 140.767 262.396 141.167C262.456 141.884 261.345 141.872 261.297 141.167C261.261 140.67 261.297 140.171 261.405 139.685V139.685Z" fill="#7191AD"/>
<path d="M230.75 125.213C231.133 140.474 251.903 143.139 257.15 128.918C257.389 128.26 258.464 128.547 258.213 129.216C252.596 144.406 230.069 141.908 229.639 125.213C229.658 125.08 229.725 124.958 229.827 124.87C229.929 124.781 230.06 124.733 230.194 124.733C230.329 124.733 230.46 124.781 230.562 124.87C230.664 124.958 230.73 125.08 230.75 125.213V125.213Z" fill="#7191AD"/>
<path d="M223.101 157.647L236.152 161.328C236.293 161.368 236.412 161.462 236.484 161.589C236.556 161.717 236.574 161.868 236.534 162.009C236.494 162.15 236.4 162.27 236.273 162.342C236.145 162.413 235.994 162.431 235.853 162.392L222.803 158.723C222.674 158.671 222.57 158.574 222.509 158.45C222.448 158.327 222.434 158.185 222.471 158.052C222.508 157.918 222.593 157.804 222.709 157.729C222.825 157.655 222.965 157.625 223.101 157.647V157.647Z" fill="#7191AD"/>
<path d="M228.635 163.957L229.376 162.511C229.698 161.878 230.655 162.428 230.332 163.073L229.591 164.507C229.292 165.152 228.312 164.591 228.635 163.957Z" fill="#7191AD"/>
<path d="M225.707 169.371C226.172 168.609 226.572 167.81 226.902 166.981C227.165 166.324 228.229 166.61 227.978 167.28C227.621 168.182 227.197 169.057 226.711 169.897C226.641 170.03 226.521 170.13 226.378 170.175C226.234 170.22 226.079 170.206 225.946 170.136C225.813 170.066 225.713 169.947 225.668 169.803C225.623 169.66 225.637 169.504 225.707 169.371V169.371Z" fill="#7191AD"/>
<path d="M222.97 175.001L224.296 172.312C224.607 171.666 225.563 172.228 225.252 172.873L223.926 175.562C223.603 176.208 222.647 175.646 222.97 175.001Z" fill="#7191AD"/>
<path d="M219.731 181.549L220.926 179.052C221.225 178.406 222.121 178.968 221.882 179.601C221.499 180.438 221.105 181.275 220.687 182.111C220.376 182.756 219.42 182.195 219.731 181.549Z" fill="#7191AD"/>
<path d="M218.083 185.003C218.429 184.37 219.385 184.931 219.039 185.553C218.523 186.481 218.19 187.499 218.059 188.552C217.975 189.246 216.864 189.257 216.947 188.552C217.099 187.308 217.484 186.104 218.083 185.003V185.003Z" fill="#7191AD"/>
<path d="M213.756 195.233C214.34 194.514 214.808 193.707 215.142 192.843C215.393 192.174 216.457 192.46 216.206 193.13C215.819 194.195 215.258 195.189 214.545 196.07C214.151 196.572 213.374 195.783 213.756 195.233Z" fill="#7191AD"/>
<path d="M210.589 203.097C210.84 202.021 211.103 200.934 211.354 199.846C211.373 199.777 211.405 199.711 211.449 199.654C211.493 199.596 211.548 199.548 211.611 199.512C211.674 199.476 211.743 199.453 211.815 199.444C211.886 199.434 211.959 199.439 212.029 199.458C212.099 199.477 212.164 199.509 212.222 199.553C212.279 199.597 212.327 199.652 212.363 199.715C212.399 199.778 212.423 199.847 212.432 199.919C212.441 199.99 212.436 200.063 212.418 200.133C212.167 201.221 211.916 202.308 211.653 203.396C211.497 204.089 210.434 203.862 210.589 203.097Z" fill="#7191AD"/>
<path d="M208.821 210.375L210.171 206.538C210.41 205.869 211.474 206.168 211.235 206.837C210.781 208.116 210.315 209.395 209.848 210.673C209.645 211.343 208.582 211.032 208.821 210.375Z" fill="#7191AD"/>
<path d="M207.59 214.773C207.844 214.174 207.934 213.518 207.852 212.873C207.793 212.167 208.892 212.167 208.964 212.873C209.042 213.716 208.897 214.564 208.546 215.334C208.259 215.992 207.303 215.43 207.59 214.773Z" fill="#7191AD"/>
<path d="M255.166 75.4253L257.138 76.0826L258.249 76.5009C258.249 76.5009 252.62 82.548 251.76 95.4311C241.076 104.585 234.467 87.5316 234.467 87.5316L236.594 75.8675L242.211 73.7163C242.211 73.7163 244.087 84.4721 255.046 75.5209L255.166 75.4253Z" fill="#F2C689"/>
<path d="M224.392 122.918C227.549 123.754 230.853 123.868 234.061 123.253Z" fill="#534248"/>
<path d="M224.154 119.069C224.154 119.069 228.934 120.097 231.575 119.069Z" fill="#534248"/>
<path d="M245.159 17.5851C250.489 18.1657 255.8 18.9111 261.054 19.9942C263.036 20.4082 265.053 20.7947 267.054 21.2316C266.801 16.4686 264.87 11.9467 261.603 8.46277C258.336 4.97879 253.942 2.7563 249.195 2.18686C244.448 1.61742 239.652 2.7376 235.654 5.35001C231.655 7.96242 228.709 11.8994 227.336 16.4673C233.296 16.418 239.252 16.7915 245.159 17.5851V17.5851Z" fill="#FFD347"/>
<path d="M245.941 40.8195C268 43.2224 286.65 38.1258 287.596 29.4359C288.543 20.7461 271.428 11.7536 249.369 9.35078C227.31 6.94791 208.661 12.0445 207.714 20.7344C206.767 29.4242 223.882 38.4166 245.941 40.8195Z" fill="#F6A821"/>
<path d="M270.422 38.0892L269.964 30.5879C269.607 24.6015 266.872 18.996 262.359 15.0013C257.845 11.0066 251.922 8.94903 245.889 9.28011L241.643 9.51335C239.211 9.65025 236.832 10.2613 234.641 11.3116C232.45 12.3618 230.489 13.8307 228.871 15.6342C227.254 17.4377 226.011 19.5405 225.214 21.8224C224.416 24.1042 224.08 26.5204 224.225 28.9328L225.272 46.8339C225.533 51.172 227.515 55.2338 230.784 58.1312C234.053 61.0286 238.342 62.5259 242.715 62.2957L248.951 61.9376C254.99 61.6036 260.643 58.9039 264.669 54.4319C268.695 49.9599 270.765 44.0817 270.422 38.0892V38.0892Z" fill="#FF8A64"/>
<path d="M276.31 42.6849C278.232 39.1173 277.701 35.1007 275.126 33.7136C272.55 32.3264 268.905 34.094 266.983 37.6615C265.062 41.2291 265.592 45.2456 268.168 46.6328C270.743 48.02 274.389 46.2524 276.31 42.6849Z" fill="#FF8A64"/>
<path d="M269.315 45.5816C270.379 41.8115 271.696 37.5787 275.697 36.0775C276.08 35.9399 275.777 35.3449 275.439 35.4994C271.278 37.0549 269.828 41.4167 268.723 45.3497C268.609 45.7438 269.201 45.9757 269.315 45.5816V45.5816Z" fill="#EF7554"/>
<path d="M270.86 40.4539C272.264 40.3741 273.677 40.7398 274.808 41.4764C275.119 41.6796 275.472 41.2855 275.161 41.0823C273.895 40.2663 272.319 39.8627 270.753 39.9533C270.36 39.9762 270.467 40.4676 270.86 40.4539V40.4539Z" fill="#EF7554"/>
<path d="M227.383 46.0485C229.465 44.6927 229.629 41.2546 227.75 38.3693C225.871 35.4839 222.66 34.244 220.578 35.5998C218.497 36.9556 218.332 40.3937 220.211 43.279C222.09 46.1643 225.301 47.4043 227.383 46.0485Z" fill="#FF8A64"/>
<path d="M220.733 37.4894C222.409 38.9989 223.608 40.9542 224.187 43.1194C224.306 43.5318 224.972 43.4421 224.854 43.0175C224.234 40.6849 222.941 38.5797 221.132 36.9588C220.811 36.6617 220.41 37.2047 220.733 37.4894Z" fill="#EF7554"/>
<path d="M221.604 41.8385L223.531 41.6696C223.885 41.7082 223.994 40.8048 223.621 40.8431L221.694 41.012C221.34 40.9734 221.242 41.8779 221.604 41.8385Z" fill="#EF7554"/>
<path d="M223.976 28.8376C223.976 28.8376 223.092 46.2866 222.817 48.8126C222.542 51.3386 220.056 66.8534 238.109 69.3337C253.246 71.4064 268.089 68.2709 269.906 52.786C270.591 50.5188 270.965 48.171 271.019 45.8044C272.195 31.5341 269.47 24.1087 269.47 24.1087L266.824 23.4993C266.824 23.4993 267.51 46.0515 262.174 45.4703C256.839 44.8891 244.72 42.2846 237.246 43.4998C229.771 44.715 228.737 46.4262 226.52 46.1847C224.246 42.2764 223.976 28.8376 223.976 28.8376Z" fill="#8E4700"/>
<path d="M230.105 18.7577C232.469 20.7379 235.649 21.6263 238.757 22.1197C246.321 23.3126 254.058 22.5838 261.152 20.0105C259.938 19.167 258.549 18.5705 257.078 18.2602C249.049 16.059 240.729 14.9896 232.398 15.0879C231.992 15.061 231.588 15.1301 231.221 15.2888C230.041 15.9054 230.664 17.6379 230.122 18.7887" fill="#8E4700"/>
<path d="M237 43.4925C237.154 40.5398 237.004 37.5742 236.554 34.6325C236.467 32.8658 236.047 31.1176 235.311 29.4621C234.319 27.8183 232.449 28.4076 232.228 30.0451C232.178 30.7478 232.248 31.4559 232.437 32.1448C232.769 33.7665 233.001 35.4013 233.131 37.0415C233.232 38.3114 233.599 39.61 233.645 40.8738C233.659 41.5174 233.488 42.3169 232.858 42.5252C232.302 42.577 231.74 42.4298 231.294 42.1157C229.295 41.1678 229.751 43.3322 230.264 44.3196C230.56 44.8817 230.982 45.3858 231.503 45.8C232.024 46.2141 232.632 46.5295 233.289 46.7262C234.023 46.9564 234.82 46.9259 235.514 46.6412C236.035 46.2725 236.443 45.7922 236.702 45.243C236.962 44.6938 237.064 44.0926 237 43.4925V43.4925Z" fill="#F06361"/>
<path d="M228.702 41.3296C229.655 41.1734 230.237 39.8824 230.002 38.4458C229.766 37.0093 228.803 35.9713 227.85 36.1275C226.897 36.2836 226.315 37.5747 226.55 39.0112C226.786 40.4478 227.749 41.4857 228.702 41.3296Z" fill="#8E4700"/>
<path d="M241.14 40.6139C242.099 40.5051 242.744 39.2442 242.58 37.7979C242.416 36.3515 241.505 35.2672 240.545 35.3761C239.586 35.485 238.941 36.7458 239.105 38.1921C239.269 39.6385 240.18 40.7228 241.14 40.6139Z" fill="#8E4700"/>
<path d="M224.622 34.2251C224.942 33.0904 225.461 32.0557 226.136 31.207C226.81 30.3584 227.621 29.7202 228.501 29.3455C229.251 29.0171 228.791 27.6049 228.043 27.9188C227.007 28.3729 226.054 29.1314 225.258 30.1334C224.463 31.1355 223.849 32.3532 223.464 33.6888C223.191 34.6551 224.299 35.2444 224.578 34.2202L224.622 34.2251Z" fill="#8E4700"/>
<path d="M240.055 26.454C241.158 26.312 242.304 26.3736 243.401 26.6339C244.499 26.8942 245.516 27.346 246.374 27.9533C246.944 28.3398 247.589 27.6478 247.03 27.2624C246.041 26.5841 244.876 26.0821 243.626 25.7954C242.376 25.5087 241.073 25.445 239.82 25.6092C239.103 25.6934 239.314 26.5679 240.035 26.4437L240.055 26.454Z" fill="#8E4700"/>
<path d="M233.009 48.8087C233.589 49.1492 234.259 49.3596 234.952 49.4193C235.645 49.479 236.337 49.3858 236.962 49.149C237.587 48.9122 238.121 48.5398 238.514 48.0685C238.907 47.5971 239.144 47.0429 239.203 46.4603C239.194 46.3888 239.157 46.3211 239.097 46.2688C239.037 46.2164 238.958 46.1828 238.873 46.1736C238.789 46.1644 238.705 46.1803 238.635 46.2184C238.565 46.2566 238.514 46.3147 238.49 46.3827C238.445 46.8617 238.253 47.318 237.933 47.7067C237.613 48.0955 237.175 48.4034 236.663 48.6002C236.151 48.797 235.583 48.876 235.013 48.8294C234.444 48.7828 233.893 48.6122 233.415 48.3343C233.031 48.127 232.612 48.6 233.009 48.8087Z" fill="#FF8A64"/>
<g style="mix-blend-mode:multiply" opacity="0.16">
<path d="M270.273 30.5779C270.09 27.2898 269.191 24.0814 267.639 21.1771C258.948 18.8272 250.08 17.1919 241.123 16.2874C237.14 15.8724 233.137 15.6662 229.132 15.6696C226.731 18.4012 225.188 21.78 224.696 25.3837C227.867 25.5252 231.038 25.6668 234.227 25.8866C246.539 26.6242 258.709 28.9049 270.453 32.6752L270.273 30.5779Z" fill="#993952"/>
</g>
<path d="M227.849 19.4674C227.849 19.4674 249.006 15.5918 265.984 23.6215C282.961 31.6512 262.103 14.6791 262.103 14.6791C262.103 14.6791 252.633 4.92358 231.748 10.8209C210.864 16.7183 224.81 20.1376 224.81 20.1376" fill="#F6A821"/>
<path d="M238.199 89.3731C210.293 83.0883 194.592 94.1664 194.592 94.1664C212.57 96.6485 233.075 92.618 238.199 89.3731Z" fill="#999DC4"/>
<path d="M194.592 94.1663C194.592 94.1663 196.721 118.645 205.135 136.919C214.471 139.333 231.151 136.68 235.945 133.094C236.685 129.678 239.36 101.499 238.222 89.373C233.075 92.6179 212.57 96.6484 194.592 94.1663Z" fill="#BDBFE2"/>
<path d="M233.475 91.3426C222.968 90.0263 212.299 91.2243 202.346 94.838C214.449 95.3618 226.529 93.4945 233.475 91.3426Z" fill="white"/>
<path d="M205.136 136.885C214.472 139.298 231.152 136.645 235.945 133.059C236.093 132.387 236.321 130.782 236.572 128.505H236.424C225.746 132.122 214.421 133.426 203.2 132.33C203.804 133.879 204.441 135.416 205.136 136.885Z" fill="#999DC4"/>
<path d="M187.272 105.279C187.272 105.279 192.542 99.6617 196.343 100.654C200.143 101.646 195.351 105.279 195.351 105.279C195.351 105.279 198.817 104.083 199.976 105.279C201.135 106.474 196.833 108.446 196.833 108.446C196.833 108.446 202.808 106.163 202.94 108.446C203.071 110.728 197.502 111.218 197.502 111.218C197.502 111.218 203.776 111.565 202.94 113.776C202.103 115.987 196.51 117.48 196.51 117.48C196.51 117.48 182.313 121.771 187.272 105.279Z" fill="#FFA180"/>
<path d="M276.092 108.446C274.239 146.187 239.486 124.352 239.486 124.352C239.71 121.243 240.642 118.226 242.211 115.533C260.986 130.543 263.197 111.29 263.197 111.29L276.092 108.446Z" fill="#FFA180"/>
<path d="M242.211 115.532C242.211 115.532 238.255 110.943 235.136 111.313C232.017 111.684 236.594 116.094 236.594 116.094C236.594 116.094 223.317 112.986 222.384 115.807C221.882 117.301 224.153 119.034 224.153 119.034C224.153 119.034 222.349 125.439 230.344 127.292C238.339 129.144 241.1 123.945 241.1 123.945L242.211 115.532Z" fill="#FFA180"/>
<path d="M282.115 111.051C282.115 111.051 268.384 117.194 254.975 111.051C254.975 98.9928 259.755 82.5723 264.141 78.9512C273.714 82.3333 279.713 96.1485 282.115 111.051Z" fill="#F2C689"/>
<path d="M59.5061 113.889C59.3717 106.529 61.4684 99.2944 65.531 93.1011C69.5935 86.9079 75.4395 82.0337 82.3299 79.0949C89.2202 76.156 96.8455 75.2845 104.241 76.5905C111.637 77.8964 118.472 81.3213 123.881 86.432C129.29 91.5426 133.031 98.1096 134.63 105.303C136.229 112.496 135.615 119.992 132.865 126.843C130.116 133.694 125.354 139.593 119.182 143.793C113.01 147.993 105.706 150.307 98.1918 150.441C93.1976 150.544 88.2318 149.679 83.5803 147.895C78.9287 146.111 74.6831 143.444 71.0878 140.047C67.4924 136.65 64.6182 132.59 62.6306 128.101C60.6429 123.611 59.5811 118.782 59.5061 113.889V113.889Z" fill="#FEE488"/>
<path d="M65.7093 113.729C65.6071 107.6 67.3686 101.578 70.7715 96.425C74.1743 91.2716 79.066 87.2174 84.8288 84.7743C90.5916 82.3311 96.9671 81.6085 103.151 82.6977C109.334 83.787 115.048 86.6391 119.571 90.8942C124.094 95.1493 127.224 100.616 128.565 106.605C129.905 112.594 129.397 118.837 127.104 124.544C124.812 130.252 120.837 135.168 115.682 138.673C110.527 142.179 104.423 144.115 98.1411 144.239C93.9561 144.321 89.7957 143.596 85.8985 142.106C82.0013 140.616 78.444 138.389 75.4308 135.555C72.4176 132.72 70.0077 129.333 68.3395 125.588C66.6712 121.842 65.7774 117.812 65.7093 113.729Z" fill="#FFBF5F"/>
<path d="M97.4814 147.329C88.3389 147.325 79.563 143.814 73.0413 137.55C66.5196 131.286 62.7732 122.769 62.6079 113.832V113.832C62.5219 109.351 63.3402 104.898 65.016 100.727C66.6919 96.5557 69.1923 92.7484 72.3744 89.5228C75.5565 86.2972 79.3577 83.7165 83.5608 81.9284C87.7638 80.1403 92.2863 79.1799 96.8693 79.102H97.4999C106.641 79.1145 115.414 82.6284 121.936 88.8902C128.459 95.1519 132.212 103.663 132.392 112.599C132.561 121.645 129.049 130.387 122.628 136.903C116.207 143.419 107.402 147.175 98.1492 147.347L97.4814 147.329ZM97.4814 80.3171H96.8693C92.451 80.3973 88.0922 81.328 84.0421 83.0561C79.9919 84.7842 76.3299 87.2757 73.2651 90.3883C70.2004 93.5008 67.7931 97.1733 66.181 101.196C64.5688 105.219 63.7832 109.512 63.8693 113.832C63.9935 120.307 66.071 126.603 69.8411 131.928C73.6112 137.254 78.906 141.372 85.0611 143.766C91.2162 146.16 97.9575 146.724 104.439 145.387C110.921 144.049 116.854 140.87 121.494 136.248C126.135 131.626 129.276 125.767 130.523 119.407C131.77 113.046 131.069 106.467 128.506 100.494C125.943 94.5222 121.633 89.423 116.117 85.8366C110.601 82.2502 104.124 80.3364 97.4999 80.3352L97.4814 80.3171Z" fill="#FFBF5F"/>
<path d="M92.8813 131.705C90.373 131.432 87.9585 130.562 85.8247 129.162L84.3164 128.078L87.0995 119.516L89.721 121.254C91.5266 122.448 93.6155 123.095 95.7541 123.124H95.9517C97.7473 123.124 99.7403 122.301 99.7044 120.226C99.7044 119.123 99.3274 117.796 95.2335 116.169C90.1699 114.3 84.9628 111.29 84.8371 104.56C84.8007 102.107 85.5379 99.7085 86.9357 97.7332C88.3335 95.7579 90.3148 94.3142 92.576 93.6234L92.4683 90.1088L100.584 89.9592L100.692 92.9504C102.669 93.1921 104.583 93.8267 106.33 94.8198L108.126 95.8855L105.217 104.317L102.721 102.896C101.139 101.945 99.3406 101.454 97.5139 101.475H97.2984C95.3233 101.475 94.192 102.316 94.21 103.7C94.21 104.709 94.605 105.569 99.2915 107.439C103.978 109.308 109.005 112.281 109.131 119.59C109.172 122.155 108.404 124.663 106.945 126.73C105.485 128.797 103.415 130.308 101.051 131.032L101.177 134.771L92.989 134.939L92.8813 131.705Z" fill="#FEE488"/>
<path d="M52.6689 120.069C53.4346 119.679 54.1121 119.136 54.6597 118.473C55.2072 117.811 55.613 117.044 55.852 116.218C56.4409 114.617 56.7017 112.904 57.3247 111.298C57.5276 110.749 58.1279 110.119 58.5786 110.492C58.8735 112.496 58.7722 114.538 58.2805 116.503C60.5523 114.541 63.1369 112.974 65.9268 111.867C66.2199 112.548 65.7628 113.271 65.2528 113.862C64.0284 115.273 62.6075 116.501 61.0335 117.507C62.8378 116.901 64.6839 116.428 66.5572 116.091C67.0833 115.918 67.6425 115.872 68.1898 115.955C68.7371 116.039 69.2571 116.25 69.7077 116.572C69.6991 117.207 68.9715 117.541 68.3955 117.777C66.4971 118.445 64.5701 119.03 62.629 119.513C65.2377 119.059 67.9162 119.219 70.4524 119.98C70.602 120.629 69.7163 120.95 69.0533 121.058L63.371 121.697C65.4111 121.898 67.4201 122.341 69.356 123.015C69.5165 123.055 69.6672 123.127 69.7989 123.227C69.9306 123.327 70.0405 123.453 70.122 123.597C70.157 123.793 70.1167 123.995 70.0092 124.163C69.9017 124.331 69.7349 124.452 69.5421 124.502C69.1433 124.59 68.7278 124.566 68.342 124.431C67.1427 124.095 65.897 123.955 64.653 124.015C63.5819 124.264 62.6134 124.836 61.8796 125.655C59.3876 127.695 56.7488 129.549 53.9845 131.202" fill="#FF8A64"/>
</g>
<defs>
<filter id="filter0_d" x="0.210938" y="0" width="293.099" height="277.958" filterUnits="userSpaceOnUse" color-interpolation-filters="sRGB">
<feFlood flood-opacity="0" result="BackgroundImageFix"/>
<feColorMatrix in="SourceAlpha" type="matrix" values="0 0 0 0 0 0 0 0 0 0 0 0 0 0 0 0 0 0 127 0"/>
<feOffset dy="4"/>
<feGaussianBlur stdDeviation="2"/>
<feColorMatrix type="matrix" values="0 0 0 0 0 0 0 0 0 0 0 0 0 0 0 0 0 0 0.25 0"/>
<feBlend mode="normal" in2="BackgroundImageFix" result="effect1_dropShadow"/>
<feBlend mode="normal" in="SourceGraphic" in2="effect1_dropShadow" result="shape"/>
</filter>
</defs>
</svg>
